<?xml version="1.0" encoding="utf-8"?>
<!-- Generator: Adobe Illustrator 17.1.0, SVG Export Plug-In . SVG Version: 6.00 Build 0)  -->
<!DOCTYPE svg PUBLIC "-//W3C//DTD SVG 1.1//EN" "http://www.w3.org/Graphics/SVG/1.1/DTD/svg11.dtd">
<svg version="1.1" id="both" xmlns="http://www.w3.org/2000/svg" xmlns:xlink="http://www.w3.org/1999/xlink" x="0px" y="0px"
	 viewBox="0 0 350 410" style="enable-background:new 0 0 350 410;" width="350" height="410" xml:space="preserve">
<style type="text/css">
	.st0{fill:#fff;}
	.st1{fill:none;stroke:#000;stroke-width:0.5;stroke-linecap:round;stroke-linejoin:round;}
	.st2{fill:none;stroke:#000;stroke-width:0.75;stroke-linecap:round;stroke-linejoin:round;}
	.st3{fill:none;stroke:#000;stroke-linecap:round;stroke-linejoin:round;}
	.st4{fill-rule:evenodd;clip-rule:evenodd;fill:#fff;}
	.st5{fill:none;stroke:#000;stroke-width:2;stroke-linecap:round;stroke-linejoin:round;}
	.st6{fill:#fff;stroke:#000;stroke-width:0.5;stroke-linecap:round;stroke-linejoin:round;}
	.st7{fill:none;stroke:#000;stroke-width:0.653;stroke-linecap:round;stroke-linejoin:round;}
	.st8{fill:#fff;stroke:#000;stroke-linecap:round;stroke-linejoin:round;}
	.st9{fill:#fff;stroke:#000;stroke-width:0.75;stroke-linecap:round;stroke-linejoin:round;}
	
		.st10{fill-rule:evenodd;clip-rule:evenodd;fill:#fff;stroke:#000;stroke-width:0.75;stroke-linecap:round;stroke-linejoin:round;}
</style>
<g id="LOK">
	<g>
		<path class="st0" d="M119.4,314.4C120.6,313.7,118.3,314.2,119.4,314.4L119.4,314.4z"/>
		<path class="st0" d="M119.4,314.4C119.4,314.4,119.4,314.4,119.4,314.4C119.4,314.4,119.4,314.4,119.4,314.4
			C119.4,314.4,119.4,314.4,119.4,314.4z"/>
		<path class="st0" d="M332.9,265.1c1.2-5.8-7.7-30.8-11.9-36.7c-3.2-4.6-6-12.9-19.5-24.3c-0.7-0.6,0.4-0.3,0.2-1.4
			c0.2-0.9-2.2-1.5-2.9-2.1c-0.8-0.6-2.6-1.3-3.3-2.1c-0.5-0.6-0.6-1.4-1.2-1.7c-1.6-0.4-1.8-2-3.7,0.5c-5.8-3.1-14-4.3-24.5,0
			c-1.1-1.6-1.3-2.7-1.8-3.8c-0.3-0.6-1.3,0-2,0.6c0.8,2,1.5,2.4,2.2,4.6c-3.7,4.7-15.4,19.1-19.3,21.9c-3.8,4.3-7.8,9.9-9,11.5
			c-2.6,2-11.9,7-14.6,8c-0.5-0.9-2.8-1-2.2,1.2c-2.5,1.3-23.5,11.4-22.1,11.4c-2.4,0.1-7.3,3.3-9.4,7.3c-9.5-0.9-14.1,2-16.6,6.3
			c-1.6,0.3-1.9-0.2-3.7,0.7c-12.7,6.6-13.6,7.7-15.9,8.9c-4.1,2.3-17.6,9.4-22.9,14.6c-0.2,0-0.9,0.3-7.6,9.2
			c-3.3-2.6-5.7,5.4-7.3,9.5c-9.7-4.1-19.2-3.1-21.9-3.1c-11.1,0.1-19.5,7.1-23.9,10.7c-9.3,7.5-13,17.2-13.9,25.1
			c-2.3,1-3.9,1.4-5.1,1.7c-0.8,0.9-0.5,2.1-0.7,2.6c-7.9-1.1-10.1,6.9-7,11.6c-1,1.2-1.8,2.3-2.5,2.9c-0.8-0.1-1-0.7-1.1-0.8
			c-0.1-0.5,3.9-14.4,2.4-14.6c0.5-0.8,0.9-1.1,0.6-1.5c0-0.2,0.5-2.7-1.2-4c-0.3-0.3-1.1-1.9-1.9-2.1c-0.5-0.1-4.2-8.6-6.8-13.4
			c-1.2-0.5-3.1-1.8-3.3-1.8c0.4,1.6,7.1,16.6,7.3,17.3c-0.1,0.5,0,0.9,0,1.3c-0.3,1,1,2,1.3,2.5c-0.7,0.3-0.7,0.7-0.3,1.3
			c-0.1,0.7,0.2,12.3-0.2,12.7c-1.3,1.6-2.2,2.3-3.1,3.7c0.6,0.6,0.8,0.5,2.2,1.6c0,1.2-0.1,1.9-0.7,3.9c-0.9,0.6-2.2,1.1-2.9,1.1
			c-0.3,3.1,0.1,4.6,0.8,7.8c-8.5,8.7,2.3,12.4,5,10.6c0.4,0.1,0.9,0.4,2.2,0.5c1.7,4.7,7.4,4.7,11.2,1.8c0.5-0.3,0.8,0,1.1,0.1
			c-1.5,7,5.5,9.1,6,9c7.4-0.7,6.5-3.4,7.8-5.1c3.6,1,7.1-0.4,13-4.1c5.7,3.8,18.7,5.2,28.7,1.8c7.1-2.4,15.8-5.3,20.7-12.1
			c2.6-3.5,7.7-12.5,7.8-13.1c3.4-2.7,3.2-11,3.4-11.2c2.5,0.8,13.3,5.6,23.7,1.5c10.6-0.8,28.6-13,37.3-16.6c3-1.2,3.3-2.1,6.9-6.1
			c6.8,0.8,15.1-4.6,16.2-7.7c6.6-0.7,9.5-2.7,9.9-2.8c0.5-0.1,3.9-3.3,4.1-3.4c0.2,0,14.6-7.9,20.2-10c4.5,2.1,7.5,3.1,13.4,4.3
			c6.2,1.2,33.1-3.5,33.1-3.5c1.8-1.8,7-2.4,8.4-12.9C332.6,293.4,333,273,332.9,265.1z"/>
	</g>
	<path class="st1" d="M34.4,386.6c-1.4-0.3-3.1-1-4-2.7c-1.6-2.8-0.8-3.8-0.1-4.6"/>
	<line class="st2" x1="53.8" y1="342.1" x2="58.1" y2="340.7"/>
	<line class="st2" x1="49.5" y1="343.6" x2="53.8" y2="342.1"/>
	<path class="st3" d="M54.1,353.1c0,3.9-3.2,7.1-7,7.1c-3.9,0-7-3.2-7-7.1c0-3.9,3.2-7.1,7-7.1C50.9,346,54.1,349.2,54.1,353.1z"/>
	<path class="st3" d="M74.8,311.9c10.9-5.6,28.4,7.2,39.2,27.6c12.4,23.6,11.7,42.3,3.4,47.1"/>
	<path class="st3" d="M72.6,339.9c4.5,2.3,9,6.6,12.6,12.3c5.3,8.4,7.2,17.7,5.2,24.4"/>
	<path class="st3" d="M67.6,317.5c10.9-5.6,28,7.3,38.8,27.7c12.4,23.6,8.1,40.7-0.3,45.4"/>
	<path class="st3" d="M71.9,342.8c3.8,2.4,7.4,6.2,10.4,11c5,8,7,16.7,5.5,23.3"/>
	<path class="st3" d="M71.8,345.3c3.1,2.4,6.1,5.7,8.6,9.7c3.9,6.1,5.9,12.8,6,18.5"/>
	<path class="st3" d="M71.8,345.3c3.1,2.4,6.1,5.7,8.6,9.7c3.9,6.1,5.9,12.8,6,18.5"/>
	<path class="st4" d="M53.7,345.5c2.8,1.5,3.6,3.9,2.9,4.9c-0.7,1-3.1,0.1-4.8-1.5c-1.7-1.7-3.7-2.4-2.9-4.5
		C49.8,342.2,53.7,345.5,53.7,345.5z"/>
	<path class="st2" d="M53.7,345.5c2.8,1.5,3.6,3.9,2.9,4.9c-0.7,1-3.1,0.1-4.8-1.5c-1.7-1.7-3.7-2.4-2.9-4.5
		C49.8,342.2,53.7,345.5,53.7,345.5z"/>
	<path class="st5" d="M67.1,371.5c1.9,0.2,6.5,3.1,8.4,4.3c1.9,1.2,3.1,1.4,4.5,0.7c1.4-0.7,38.5-14.3,40.7-15
		c2.2-0.7,2.4-1.4,3.1-3.1c0.7-1.7,1.2-4,1.9-6.2c0.7-2.1,1-2.1,3.3-2.6c1.9-0.4,4.1-1,4.1-1"/>
	<path class="st5" d="M66.6,374.9c3.3,1.2,6.9,5,8.6,7.2c1.7,2.1,1.6,2.6,4.2,1.9c2.6-0.7,37.7-14.8,39.6-15.5
		c1.9-0.7,2.4-0.7,3.1,0.5c0.7,1.2,1.9,4.3,1.9,4.3"/>
	<path class="st3" d="M140.5,345.2c-1.2-3.3-3.6-2.6-5.7-0.2c-2.2,2.4-5.5,8.4-7.9,16.5c-2.4,8.1-1.7,9.8-2,12.1
		c-0.6,6,2.7,4.7,3.7,4.2"/>
	<path class="st4" d="M51.8,344.9c0.6,1,0.6,2.1-0.1,2.4c-0.6,0.4-1.6-0.1-2.2-1.1c-0.6-1-0.6-2.1,0.1-2.4
		C50.2,343.4,51.2,343.9,51.8,344.9z"/>
	<path class="st2" d="M51.8,344.9c0.6,1,0.6,2.1-0.1,2.4c-0.6,0.4-1.6-0.1-2.2-1.1c-0.6-1-0.6-2.1,0.1-2.4
		C50.2,343.4,51.2,343.9,51.8,344.9z"/>
	<path class="st4" d="M55.9,347.9c0.6,1,0.6,2.1-0.1,2.4c-0.6,0.4-1.6-0.1-2.2-1.1c-0.6-1-0.6-2.1,0.1-2.4
		C54.3,346.5,55.3,346.9,55.9,347.9z"/>
	<path class="st2" d="M55.9,347.9c0.6,1,0.6,2.1-0.1,2.4c-0.6,0.4-1.6-0.1-2.2-1.1c-0.6-1-0.6-2.1,0.1-2.4
		C54.3,346.5,55.3,346.9,55.9,347.9z"/>
	<line class="st2" x1="56.4" y1="350.5" x2="61.6" y2="346.9"/>
	<polyline class="st2" points="55.8,341.4 55.7,339.1 64.5,345 71.8,341 71.8,345.5 65,349.2 61.5,346.7 	"/>
	<line class="st2" x1="55.7" y1="339" x2="60.4" y2="336.7"/>
	<path class="st6" d="M260.9,187.4L260.9,187.4c0.9-0.5,2.4,0.5,3.3,2.2c0.8,1.5,0.9,3,0.3,3.7"/>
	<path class="st1" d="M64.7,340C64.7,340.1,64.7,340.1,64.7,340c0,0.3-0.3,0.5-0.7,0.5s-0.7-0.1-0.8-0.3"/>
	<line class="st1" x1="63.1" y1="340.1" x2="63.1" y2="337.8"/>
	<line class="st1" x1="64.7" y1="339.9" x2="64.7" y2="337.6"/>
	<path class="st1" d="M65.7,335.7c0,0.6-0.8,1.1-1.8,1.1c-1,0.1-1.9-0.4-1.9-0.9c0-0.6,0.8-1.1,1.8-1.1
		C64.7,334.7,65.6,335.2,65.7,335.7z"/>
	<path class="st1" d="M65.7,336.5L65.7,336.5c0,0.6-0.8,1.1-1.8,1.1c-1,0.1-1.9-0.4-1.9-0.9"/>
	<line class="st1" x1="61.8" y1="336.7" x2="61.7" y2="335.8"/>
	<line class="st1" x1="65.7" y1="336.6" x2="65.8" y2="335.6"/>
	<path class="st1" d="M64.7,335.8c0,0.3-0.4,0.6-0.9,0.6c-0.5,0-1-0.2-1-0.5c0-0.3,0.4-0.6,0.9-0.6
		C64.3,335.2,64.7,335.5,64.7,335.8z"/>
	<path class="st1" d="M61.7,335.4c-1.7,0.7-1.7,3.2-1.2,3.6c0.5,0.4,0.4,0.2,1.1,0.1c0.8-0.2,0.8-0.3,1.3-0.5"/>
	<path class="st1" d="M68.6,334.2c0,0.3-0.4,0.6-0.9,0.6s-1-0.2-1-0.5c0-0.3,0.4-0.6,0.9-0.6C68.1,333.6,68.6,333.9,68.6,334.2z"/>
	<path class="st1" d="M69.6,334.1c0,0.6-0.8,1.1-1.8,1.1c-1,0.1-1.9-0.4-1.9-0.9c0-0.6,0.8-1.1,1.8-1.1
		C68.7,333.2,69.6,333.6,69.6,334.1z"/>
	<path class="st1" d="M69.6,333.6c0.5,1.1,0,2.2,0,2.2c-0.3,0.5-0.2,1.4-0.2,1.4"/>
	<path class="st1" d="M66.3,338.3c0-1.7-0.8-2.6-0.7-4.1"/>
	<path class="st1" d="M66.3,338.3c0-1.7-0.8-2.6-0.7-4.1"/>
	<path class="st1" d="M66.6,335.9c1,0.5,1.6,0.5,2.4,0"/>
	<path class="st2" d="M71.8,341c0.8-1.8,1.1-1.7,1.8-2.3s2.7-2.2,3.5-2.8c0.9-0.6,0.9-2.3-0.5-3.4c-1.4-1.1-5.7-3.5-7.3-4.1
		c-1.5-0.6-1.5-0.5-1.9,0.4c-0.4,0.9-2.3,4.7-2.3,4.7l-1.6,1"/>
	<line class="st2" x1="69" y1="328.8" x2="67.5" y2="331.8"/>
	<line class="st2" x1="76.6" y1="333.1" x2="70.2" y2="339.2"/>
	<line class="st2" x1="56.6" y1="347.5" x2="62" y2="344.5"/>
	<path class="st2" d="M60.9,342.8c1.3,1.2,1.7,3.2,0.7,4"/>
	<line class="st2" x1="64.7" y1="345.5" x2="64.8" y2="348.3"/>
	<path class="st3" d="M75.9,365.3c4.1-1.1,5.4-0.3,5.7,0.6c0.7,1.9-0.9,4.8-3.4,5.7c-2.8,1.1-5.7-1.5-6.1-3
		C71.7,367.6,73.2,366,75.9,365.3z"/>
	<path class="st5" d="M42,391.1c4.3,3.3,5.1,5.7,10,4.1c4.9-1.6,7-4.6,7.3-7.9c0.3-3.2-1-8.8,2.1-12.8"/>
	<path class="st5" d="M48,359.6c3.9,1.8,4.8,2.3,8.1,2.8c3.3,0.5,5.8,1.2,5.7,6.7"/>
	<line class="st3" x1="31" y1="378.2" x2="36.8" y2="370.1"/>
	<line class="st7" x1="40.6" y1="385.9" x2="51.2" y2="394.6"/>
	<line class="st7" x1="48.7" y1="386" x2="51.4" y2="395.4"/>
	<line class="st7" x1="51.3" y1="388.4" x2="51.8" y2="395.1"/>
	<polygon class="st6" points="34.5,382.8 34.3,387.5 32.7,392.2 31.8,392.7 33,394.6 34,393.9 33.2,392.9 35.3,387.8 35.4,382.4 	
		"/>
	<path class="st6" d="M24.2,387.1c0.3,0.5,0.2,1.1-0.2,1.3c-0.4,0.2-0.9-0.1-1.2-0.6c-0.3-0.5-0.2-1.1,0.2-1.3
		C23.3,386.4,23.9,386.6,24.2,387.1z"/>
	<path class="st6" d="M30.3,383.4c0.5,0.9,0.5,1.9,0,2.3c-0.5,0.4-1.4,0-1.9-0.8c-0.5-0.9-0.5-1.9,0-2.3
		C28.9,382.2,29.8,382.5,30.3,383.4z"/>
	<path class="st1" d="M31.8,383c0.3,0.5,0.2,1.1-0.2,1.3c-0.4,0.2-0.9-0.1-1.2-0.6c-0.3-0.5-0.2-1.1,0.2-1.3
		C31,382.2,31.5,382.4,31.8,383z"/>
	<path class="st1" d="M33.7,382.1c0.3,0.5,0.2,1.1-0.2,1.3c-0.4,0.2-0.9-0.1-1.2-0.6c-0.3-0.5-0.2-1.1,0.2-1.3
		C32.9,381.3,33.4,381.5,33.7,382.1z"/>
	<polygon class="st7" points="44.5,368.2 46.3,369.7 48.9,367.7 48.1,359.2 47.3,358.3 45.5,360.2 46.5,361.8 45.6,366.8 	"/>
	<polyline class="st7" points="46.3,369.6 46.2,367.3 47.4,361.7 47.6,367.4 46.4,368.1 	"/>
	<polyline class="st7" points="46.6,359.1 47,360.9 46.5,361.7 	"/>
	<polygon class="st7" points="45.4,364.9 42.9,367.7 40.7,366.5 41.6,365.1 41.4,356.9 42.8,356.7 44.2,358.1 44.3,359.8 43.3,361 
		44.4,364.4 	"/>
	<polyline class="st7" points="44.4,364.6 43,366.4 42.2,357.8 43.6,358.5 43.7,359.5 42.6,360.7 	"/>
	<line class="st2" x1="42.3" y1="367.4" x2="34.7" y2="376.7"/>
	<polyline class="st7" points="42.9,386.8 42.6,391 40.2,390.9 39.5,386.6 	"/>
	<line class="st7" x1="37.3" y1="386.4" x2="53.3" y2="388.7"/>
	<path class="st7" d="M51.1,388.4c-1.3,1.4-3.2,2.2-5.2,2.2c-2.7,0-5.1-1.6-6.3-3.9"/>
	<line class="st7" x1="53.1" y1="388.6" x2="53.1" y2="388.6"/>
	<path class="st3" d="M79,388.2c-4.2,2.1-6.8,5.2-13,4.4c-6.3-0.8-8.5-2.2-10.4-2.8c-1.9-0.6-2.3-1.1-2.3-1.1"/>
	<path class="st3" d="M66,392.6c-0.9,2.9-3.6,4.9-6.7,4.9c-3.9,0-7.1-3.2-7.1-7.2c0-0.7-0.1-1,0.1-1.6"/>
	<polygon class="st1" points="78,377.2 77.8,386.2 80.5,388.1 82,387.7 82.3,379.9 82.7,379 79.7,376.5 	"/>
	<polygon class="st1" points="79.2,377.9 81.8,379.5 80.8,380.2 80.3,387 79.7,378.9 	"/>
	<polygon class="st1" points="79.7,376.5 84.3,374.3 86.5,375.3 87.1,376.7 87.1,378.1 86.8,378.9 87.7,379.3 87.1,380.1 
		84.7,380.7 83.7,380.2 84.1,379.5 85.6,378 83.6,378.6 82.3,378.2 81.9,377.8 	"/>
	<line class="st1" x1="85.8" y1="375.4" x2="82.3" y2="377.5"/>
	<polyline class="st1" points="82,387.6 84.6,386.9 86.9,386.3 86.5,385.7 85.5,385.4 83.9,383.1 83,383.2 83,385.4 83,387.1 	"/>
	<path class="st1" d="M83.1,385.7c0.5,0.7,0.7,0.9,1.3,1.1"/>
	<path class="st1" d="M89.2,384.7c-0.2,1-0.9,1.6-1.5,1.5c-0.6-0.1-0.9-1-0.7-2c0.2-1,0.9-1.6,1.5-1.5
		C89.1,382.9,89.4,383.8,89.2,384.7z"/>
	<path class="st1" d="M87.2,386.1c-0.1,0-0.1,0-0.2,0c-0.6-0.1-0.9-1-0.7-2c0.2-1,0.9-1.6,1.5-1.5c0.6,0.1,0.8,0.2,0.8,0.2"/>
	<polygon class="st1" points="87.2,377.5 89,377 91.2,378.6 89.4,379.2 	"/>
	<polygon class="st1" points="89.6,377 91.4,376.5 95.3,379.5 93.5,380.1 	"/>
	<path class="st7" d="M43.9,362.5c0.8,0.2,1.6,0.4,2.3,0.7"/>
	<path class="st7" d="M39.8,362.4c0.6-0.1,1.1-0.1,1.6-0.1"/>
	<path class="st1" d="M88.8,384.6c-0.1,0.6-0.6,1-0.9,0.9c-0.4-0.1-0.6-0.6-0.4-1.3s0.6-1,0.9-0.9C88.8,383.5,89,384,88.8,384.6z"/>
	<path class="st1" d="M92.5,382.7c-0.2,0.9-0.9,1.6-1.5,1.5c-0.6-0.1-0.9-1-0.7-2c0.2-0.9,0.9-1.6,1.5-1.5
		C92.4,380.9,92.7,381.8,92.5,382.7z"/>
	<path class="st1" d="M90.4,384c-0.1,0-0.1,0-0.2,0c-0.6-0.1-0.9-1-0.7-2c0.2-0.9,0.9-1.6,1.5-1.5c0.6,0.1,0.8,0.2,0.8,0.2"/>
	<path class="st1" d="M92.1,382.6c-0.1,0.6-0.6,1-1,0.9c-0.4-0.1-0.6-0.6-0.4-1.3c0.1-0.6,0.6-1,1-0.9C92,381.5,92.2,382,92.1,382.6
		z"/>
	<polyline class="st1" points="93.3,380.1 93.3,381.8 95.7,383.2 98.9,381.3 98.7,379.9 96.8,378.9 95.3,379.5 	"/>
	<polygon class="st1" points="98.1,379.4 101.4,377.5 101.4,376.6 102.3,376.9 102.6,376 103.6,376.2 106.8,374.3 107.4,373.7 
		110.3,372.3 109.9,373.1 111.1,373.2 107.4,375.8 107.1,375.1 104.1,376.8 103.5,377.8 102.9,377.5 102.4,378.4 101.6,378.1 
		100.2,379.1 98.9,380 	"/>
	<polyline class="st1" points="98.3,380.2 95.7,381.3 94.1,380.6 	"/>
	<line class="st1" x1="95.6" y1="381.8" x2="95.6" y2="382.8"/>
	<path class="st1" d="M56,368.8L56,368.8c0.3-0.2,0.9,0.1,1.2,0.7c0.3,0.5,0.3,1.1,0.1,1.4"/>
	<path class="st1" d="M47.4,374.9c0.4,0.6,0.4,1.3,0,1.6c-0.4,0.2-0.9-0.1-1.3-0.7c-0.4-0.6-0.4-1.3,0-1.6
		C46.4,374,47,374.3,47.4,374.9z"/>
	<path class="st1" d="M54.3,369.6L54.3,369.6c0.3-0.3,0.9,0,1.4,0.6c0.4,0.5,0.5,1.1,0.3,1.4"/>
	<line class="st1" x1="47.8" y1="373.3" x2="46.4" y2="374.1"/>
	<line class="st1" x1="49.3" y1="375.3" x2="47.7" y2="376.2"/>
	<path class="st1" d="M53.3,370.3c-0.1-0.6,0-1.1,0.3-1.4c0.6-0.5,1.7,0,2.5,1s0.9,2.3,0.3,2.8c-0.4,0.4-1.2,0.2-1.9-0.3"/>
	<path class="st1" d="M52,370.9L52,370.9c0.3-0.3,0.9,0,1.4,0.6c0.4,0.5,0.5,1.1,0.3,1.4"/>
	<path class="st1" d="M51.1,371.5c-0.1-0.6,0-1.1,0.3-1.4c0.6-0.5,1.7,0,2.5,1c0.8,1.1,0.9,2.3,0.3,2.8c-0.4,0.4-1.2,0.2-1.9-0.3"/>
	<path class="st1" d="M49.9,372.1L49.9,372.1c0.3-0.3,0.9,0,1.4,0.6c0.4,0.5,0.5,1.1,0.3,1.4"/>
	<path class="st1" d="M49,372.7c-0.1-0.6,0-1.1,0.3-1.4c0.6-0.5,1.7,0,2.5,1c0.8,1.1,0.9,2.3,0.3,2.8c-0.5,0.4-1.2,0.2-1.9-0.3"/>
	<path class="st1" d="M47.7,373.3L47.7,373.3c0.3-0.3,0.9,0,1.4,0.6c0.4,0.5,0.5,1.1,0.3,1.4"/>
	<path class="st1" d="M46.8,373.9c-0.1-0.6,0-1.1,0.3-1.4c0.6-0.5,1.7,0,2.5,1c0.8,1.1,0.9,2.3,0.3,2.8c-0.4,0.4-1.2,0.2-1.9-0.3"/>
	<line class="st1" x1="51.6" y1="374" x2="50.2" y2="374.8"/>
	<line class="st1" x1="53.7" y1="372.8" x2="52.4" y2="373.7"/>
	<line class="st1" x1="53.7" y1="372.8" x2="52.4" y2="373.7"/>
	<line class="st1" x1="56" y1="371.6" x2="54.7" y2="372.4"/>
	<line class="st1" x1="57.5" y1="370.8" x2="56.8" y2="371.2"/>
	<line class="st1" x1="56.1" y1="368.8" x2="55.4" y2="369.2"/>
	<line class="st1" x1="56.1" y1="368.8" x2="55.4" y2="369.2"/>
	<line class="st1" x1="50.1" y1="372" x2="48.8" y2="372.8"/>
	<line class="st1" x1="52.3" y1="370.8" x2="50.9" y2="371.7"/>
	<line class="st1" x1="54.6" y1="369.6" x2="53.2" y2="370.4"/>
	<path class="st1" d="M54,368.7c-0.3-1.4,0-2.6,0.8-3.2c1.2-0.8,3.3,0.3,4.5,2.4s1.3,4.6,0,5.4c-0.8,0.5-1.9,0.3-3-0.6"/>
	<path class="st3" d="M54.6,365.7c-0.9-1.2-1.4-2.7-1.4-4.3c0-4,3.3-7.3,7.3-7.3c4,0,7.3,3.3,7.3,7.3c0,4-3.3,7.3-7.3,7.3
		c-0.2,0-0.4,0-0.6,0"/>
	<polygon class="st6" points="17.5,311.9 23.2,315.2 24.2,307.8 27.3,309.5 27.3,317.3 31.8,320.3 32.6,321.6 32,323.5 30.4,324.1 
		27.1,321.9 26.6,326.3 25.5,326.8 23.3,325.3 23.2,319.6 17,315.1 	"/>
	<line class="st6" x1="26.7" y1="309.8" x2="26.4" y2="317.6"/>
	<line class="st6" x1="26.4" y1="317.6" x2="31.1" y2="320.6"/>
	<line class="st6" x1="31.2" y1="320.6" x2="31.7" y2="322.6"/>
	<line class="st6" x1="31.7" y1="322.6" x2="30.6" y2="323.8"/>
	<line class="st1" x1="25.9" y1="326.4" x2="26.3" y2="321.5"/>
	<path class="st2" d="M138.4,361.6c-0.6,2.1-1.6,3.6-2.2,3.4s-0.8-2-0.2-4.1c0.6-2.1,2-3.5,2.7-3.3
		C139.4,357.8,139,359.5,138.4,361.6z"/>
	<path class="st3" d="M136.2,365.1c-4.6,10.9-12.1,19-17,20.8c-7.1,2.6-22.4,11.2-39.8,2.3"/>
	<path class="st3" d="M54.3,341.9c-0.3-9.1,9-24.5,24-32c16.8-8.5,45.8-3.9,57.2,17.9c5.3,10.1,5.5,20.6,3.2,29.8"/>
	<path class="st3" d="M64.9,373.2c0,0.6-0.4,1.1-1,1.1c-0.6,0-1-0.4-1.1-1c0-0.6,0.4-1.1,1-1.1C64.3,372.2,64.8,372.6,64.9,373.2z"
		/>
	<path class="st3" d="M65.3,376.8c0,0.6-0.4,1.1-1,1.1c-0.6,0-1-0.4-1.1-1c0-0.6,0.4-1.1,1-1.1C64.8,375.8,65.2,376.3,65.3,376.8z"
		/>
	<line class="st3" x1="64.9" y1="373.3" x2="65.3" y2="376.7"/>
	<line class="st3" x1="62.6" y1="373.4" x2="63" y2="377.1"/>
	<path class="st3" d="M66,377.4c0,0-0.3-1.4-0.4-3.7c-0.1-2.3,0.1-1.8-2-2.7c-2.1-0.8-3.5-1.7-3.5-1.7"/>
	<line class="st3" x1="60.5" y1="373.1" x2="62.6" y2="374.3"/>
	<path class="st3" d="M65.7,373.2c0.5-0.1,1-0.2,1.5-0.2c4,0,7.3,3.3,7.3,7.2c0,4-3.3,7.2-7.3,7.2c-4,0-7.3-3.3-7.3-7.2
		c0-2.1,0.9-4,2.4-5.3"/>
	<path class="st7" d="M33.3,367.8c1.9-1.4,2.8-1.9,4-2.9c1.2-1,1.8-1.6,1.8-3.1c0-1.5,0.8-2.3,1.9-3.2"/>
	<line class="st1" x1="38.4" y1="344.1" x2="37.3" y2="359.3"/>
	<line class="st1" x1="36.2" y1="345" x2="36.1" y2="357.4"/>
	<polygon class="st6" points="39.9,339.9 39.2,339.8 38.4,342.7 35.7,343.9 36.1,344.9 38.5,344.1 40.4,345.4 41.2,344.1 39.4,343 	
		"/>
	<path class="st1" d="M39.9,339.9c1.1,1.3,1.5,2.8,0.9,3.9"/>
	<line class="st1" x1="36.1" y1="344.9" x2="38.1" y2="345.9"/>
	<line class="st1" x1="38.1" y1="345.9" x2="40.4" y2="345.3"/>
	<path class="st6" d="M37.4,340.9c0.4,0.8,0.3,1.6,0,1.8c-0.4,0.2-1-0.4-1.3-1.2c-0.4-0.8-0.3-1.6,0-1.8
		C36.4,339.6,37,340.1,37.4,340.9z"/>
	<polyline class="st6" points="38.6,341.6 37.7,339.8 39.2,339.9 	"/>
	<path class="st6" d="M25.2,318.3c0.2,0.5,0.2,1-0.1,1.1c-0.3,0.1-0.7-0.2-0.9-0.6c-0.2-0.5-0.2-1,0.1-1.1
		C24.6,317.5,25,317.8,25.2,318.3z"/>
	<path class="st6" d="M24.9,324.3c0.2,0.5,0.2,1-0.1,1.1c-0.3,0.1-0.7-0.2-0.9-0.6c-0.2-0.5-0.2-1,0.1-1.1
		C24.3,323.5,24.7,323.8,24.9,324.3z"/>
	<path class="st6" d="M30.3,321.5c0.2,0.5,0.2,1-0.1,1.1c-0.3,0.1-0.7-0.2-0.9-0.6c-0.2-0.5-0.2-1,0.1-1.1
		C29.7,320.7,30.1,321,30.3,321.5z"/>
	<path class="st6" d="M25.7,310.2c0.4,0.4,0.3,0.9-0.1,1.1c-0.3,0.1-0.7-0.2-0.9-0.6c-0.2-0.5-0.2-1,0.1-1.1S25.5,309.8,25.7,310.2z
		"/>
	<path class="st6" d="M19.1,314.4c0.2,0.5,0.2,1-0.1,1.1c-0.3,0.1-0.7-0.2-0.9-0.6c-0.2-0.5-0.2-1,0.1-1.1
		C18.5,313.6,18.9,313.9,19.1,314.4z"/>
	<line class="st6" x1="26.7" y1="309.7" x2="24.1" y2="308.5"/>
	<polyline class="st6" points="23.2,314.4 21.7,311.3 22.3,310.8 23.6,312.8 	"/>
	<polyline class="st6" points="27.7,322.5 35.1,339.6 35.1,341.1 36.5,343.5 	"/>
	<polyline class="st1" points="39.9,339.9 37.7,337.4 31,324 	"/>
	<line class="st1" x1="30.2" y1="325" x2="36.8" y2="338.5"/>
	<path class="st3" d="M36.6,370.3c-2.4-2.7-3.9-2.8-4.7-2.4c-0.8,0.4,0.2,6.1,0.6,7.7"/>
	<line class="st1" x1="40.4" y1="345.4" x2="38.1" y2="360"/>
	<path class="st7" d="M35.3,362.9c-0.9,2.7-0.9,4.9,0.6,6.4c1.1,1.8,0.7,0.5,1.7-0.4c1-1,3.1-2.4,3.1-2.4"/>
	<polyline class="st7" points="37.2,369.2 36.4,361.2 37.1,359.5 39.4,360.9 39.6,362.7 37.8,362.9 38.3,367.9 	"/>
	<polygon class="st2" points="36,357.6 37.2,359.4 32.8,361.3 	"/>
	<line class="st2" x1="32.8" y1="361.3" x2="35.3" y2="362.9"/>
	<polyline class="st7" points="38.5,357 39.7,356.6 41.2,358.4 	"/>
	<path class="st3" d="M134.8,326.4c3.3,6.5,5.3,10.6,5.9,12.2c0.5,1.6,0.4,3.2-0.7,3.5"/>
	<polygon class="st4" points="132.3,328.1 134.5,331.6 135.4,331.3 135.3,330 136.7,330.3 138.1,329.4 136.6,326.9 135.2,327.7 
		134.6,328.4 133.6,327.5 	"/>
	<polygon class="st2" points="132.3,328.1 134.5,331.6 135.4,331.3 135.3,330 136.7,330.3 138.1,329.4 136.6,326.9 135.2,327.7 
		134.6,328.4 133.6,327.5 	"/>
	<path class="st1" d="M121.2,299.3c-2.7-0.9-4.6,2.7-5.5,5.5c-0.9,2.7-1.5,4.6-1.5,4.6"/>
	<path class="st3" d="M122.5,313.4c4.8-2.6,15.3,3.1,19.8,11.6c3.3,6.3,5.8,21.5-2.3,23.4"/>
	<path class="st3" d="M123.4,314.3c5.2,0.7,12.3,5.6,15.8,12.2c2.9,5.4,5.1,17.2,0.6,21.8"/>
	<path class="st1" d="M130,301.3L130,301.3c0.3-0.2,0.8,0.1,1.1,0.7c0.3,0.5,0.3,1,0,1.2"/>
	<path class="st1" d="M121.6,306.5c0.3,0.6,0.3,1.2-0.1,1.4c-0.3,0.2-0.9-0.1-1.2-0.7c-0.3-0.6-0.3-1.2,0.1-1.4
		C120.7,305.6,121.3,305.9,121.6,306.5z"/>
	<path class="st1" d="M128.3,302L128.3,302c0.3-0.2,0.9,0,1.3,0.6c0.3,0.5,0.4,1,0.2,1.3"/>
	<line class="st1" x1="122.1" y1="305.1" x2="120.7" y2="305.7"/>
	<line class="st1" x1="123.4" y1="306.9" x2="121.8" y2="307.7"/>
	<path class="st1" d="M127.4,302.6c-0.1-0.5,0-1,0.4-1.3c0.6-0.4,1.6,0,2.3,1c0.7,1,0.7,2.2,0.2,2.6c-0.4,0.3-1.1,0.1-1.7-0.4"/>
	<path class="st1" d="M126.2,303.1L126.2,303.1c0.3-0.2,0.9,0,1.3,0.6c0.3,0.5,0.4,1,0.2,1.3"/>
	<path class="st1" d="M125.2,303.6c-0.1-0.5,0-1,0.4-1.3c0.6-0.4,1.6,0,2.3,1c0.7,1,0.7,2.2,0.2,2.6c-0.4,0.3-1.1,0.1-1.7-0.4"/>
	<path class="st1" d="M124.1,304.1L124.1,304.1c0.3-0.2,0.9,0,1.3,0.6c0.3,0.5,0.4,1,0.2,1.3"/>
	<path class="st1" d="M123.2,304.6c-0.1-0.5,0-1,0.4-1.3c0.6-0.4,1.6,0,2.3,1c0.7,1,0.7,2.2,0.2,2.6c-0.4,0.3-1.1,0.1-1.7-0.4"/>
	<path class="st1" d="M122,305.1L122,305.1c0.3-0.2,0.9,0,1.3,0.6c0.3,0.5,0.4,1,0.2,1.3"/>
	<path class="st1" d="M121.1,305.6c-0.1-0.5,0-1,0.4-1.3c0.6-0.4,1.6,0,2.3,1s0.7,2.2,0.2,2.6c-0.4,0.3-1.1,0.1-1.7-0.4"/>
	<line class="st1" x1="125.6" y1="305.8" x2="124.3" y2="306.5"/>
	<line class="st1" x1="127.6" y1="304.9" x2="126.3" y2="305.6"/>
	<line class="st1" x1="129.8" y1="303.9" x2="128.5" y2="304.5"/>
	<line class="st1" x1="131.3" y1="303.2" x2="130.6" y2="303.6"/>
	<line class="st1" x1="130.1" y1="301.3" x2="129.4" y2="301.7"/>
	<line class="st1" x1="124.3" y1="304" x2="123" y2="304.7"/>
	<line class="st1" x1="126.4" y1="303" x2="125.1" y2="303.7"/>
	<line class="st1" x1="128.6" y1="302" x2="127.3" y2="302.7"/>
	<path class="st1" d="M128.1,301.2c-0.2-1.3,0.1-2.4,0.9-2.8c1.2-0.7,3.1,0.4,4.1,2.4c1.1,2,1,4.2-0.2,4.9c-0.8,0.4-1.8,0.2-2.7-0.6
		"/>
	<polygon class="st1" points="132.1,305.8 131.8,309.2 130,311.8 129.9,313.6 129.1,313.9 129.1,312.1 131.4,309 131.5,305.7 	"/>
	<polyline class="st1" points="130.7,305.3 130.7,308.7 128.5,311.9 128.4,313.4 129,313.8 	"/>
	<polyline class="st1" points="129.9,313.7 130.7,314.4 130.8,314.9 129.9,315.5 127.2,313.6 128.3,312.9 	"/>
	<line class="st1" x1="130.4" y1="314.5" x2="130" y2="314.9"/>
	<line class="st1" x1="129.7" y1="314.7" x2="127.7" y2="313.3"/>
	<line class="st1" x1="24.2" y1="387" x2="28.1" y2="384.8"/>
	<path class="st3" d="M120.5,307.6c-1,2.8-0.8,4.2-0.8,4.2"/>
	<path class="st3" d="M54.9,372.9c3.1,6.4,2.7,13-1.6,15.7c0,0,0.1,0-0.1,0.1"/>
	<path class="st3" d="M48.8,364.8c1.9,1.5,3.2,3.3,4.1,4.7"/>
	<path class="st2" d="M30.8,378.3c0.3-0.5,0.5-0.8,0.9-1.1c0.7-0.5,1.8-0.7,1.8-0.7c2.9,0.4,3.9,1,4.9,2.8c1.4,2.7,1.3,4.4,0.5,5.4
		c-0.8,1-1.4,1.7-1.4,1.7l-1.2,0.4c0,0-0.3,0-0.7,0"/>
	<path class="st4" d="M33.6,392.5c0.6,0.7,0.8,1.7,0.4,2.2c-0.4,0.5-1.2,0.3-1.8-0.5c-0.6-0.7-0.8-1.7-0.4-2.2
		C32.2,391.6,33,391.8,33.6,392.5z"/>
	<path class="st1" d="M33.6,392.5c0.6,0.7,0.8,1.7,0.4,2.2c-0.4,0.5-1.2,0.3-1.8-0.5c-0.6-0.7-0.8-1.7-0.4-2.2
		C32.2,391.6,33,391.8,33.6,392.5z"/>
	<polygon class="st4" points="33.3,380.5 29.6,378.8 25.3,377.5 24.1,377.9 23.2,377.1 23.1,376 24.9,376.7 30,377.7 33.9,379.6 	
		"/>
	<polygon class="st1" points="33.3,380.5 29.6,378.8 25.3,377.5 24.1,377.9 23.2,377.1 23.1,376 24.9,376.7 30,377.7 33.9,379.6 	
		"/>
	<path class="st4" d="M24.4,376.1c0.6,0.7,0.8,1.7,0.4,2.2s-1.2,0.3-1.8-0.5c-0.6-0.7-0.8-1.7-0.4-2.2
		C23,375.1,23.8,375.3,24.4,376.1z"/>
	<path class="st1" d="M24.4,376.1c0.6,0.7,0.8,1.7,0.4,2.2s-1.2,0.3-1.8-0.5c-0.6-0.7-0.8-1.7-0.4-2.2
		C23,375.1,23.8,375.3,24.4,376.1z"/>
	<polygon class="st3" points="231.8,277 273,255.2 267.4,246.8 225.9,268.8 	"/>
	<line class="st6" x1="271.2" y1="183.8" x2="270.4" y2="184.1"/>
	<line class="st6" x1="271.9" y1="187.5" x2="271" y2="187.9"/>
	<path class="st6" d="M271.2,183.8c0,0,0.1,0,0.1,0c0.6,0,1.1,0.8,1.2,1.8c0.1,0.8-0.1,1.5-0.5,1.8"/>
	<path class="st6" d="M269.8,185.3c0.1-0.7,0.4-1.2,0.8-1.3c0.6,0,1.1,0.8,1.2,1.8c0.1,1-0.3,2-0.9,2c-0.1,0-0.5-0.2-0.6-0.3"/>
	<path class="st6" d="M270.6,184.7c0,0,0.1,0,0.1,0c0.3,0,0.6,0.5,0.7,1.2c0,0.5-0.1,0.9-0.2,1.2"/>
	<line class="st6" x1="270.6" y1="184.8" x2="269.8" y2="185.1"/>
	<line class="st6" x1="271.1" y1="187.2" x2="270.2" y2="187.7"/>
	<path class="st6" d="M263.6,190c0.9,1.7,0.9,3.5,0,4c-0.9,0.5-2.4-0.5-3.3-2.2c-0.9-1.7-0.9-3.5,0-4
		C261.2,187.3,262.7,188.3,263.6,190z"/>
	<line class="st6" x1="269" y1="184.9" x2="268.1" y2="185.3"/>
	<line class="st6" x1="269.6" y1="188.7" x2="268.8" y2="189.1"/>
	<path class="st6" d="M269,184.9c0,0,0.1,0,0.1,0c0.6,0,1.1,0.8,1.2,1.8c0.1,0.8-0.1,1.5-0.5,1.8"/>
	<path class="st6" d="M267.5,186.5c0.1-0.7,0.4-1.2,0.8-1.3c0.6,0,1.1,0.8,1.2,1.8c0.1,1-0.3,2-0.9,2c-0.1,0-0.5-0.2-0.6-0.2"/>
	<path class="st6" d="M268.3,185.9c0,0,0.1,0,0.1,0c0.3,0,0.6,0.5,0.7,1.2c0,0.5-0.1,0.9-0.2,1.2"/>
	<line class="st6" x1="268.4" y1="185.9" x2="267.5" y2="186.3"/>
	<line class="st6" x1="268.8" y1="188.3" x2="267.9" y2="188.9"/>
	<line class="st6" x1="266.7" y1="186.2" x2="265.8" y2="186.6"/>
	<line class="st6" x1="267.3" y1="190" x2="266.5" y2="190.3"/>
	<path class="st6" d="M266.6,186.2c0,0,0.1,0,0.1,0c0.6,0,1.1,0.8,1.2,1.8c0.1,0.8-0.1,1.5-0.5,1.8"/>
	<path class="st6" d="M265.2,187.7c0.1-0.7,0.4-1.2,0.8-1.3c0.6,0,1.1,0.8,1.2,1.8c0.1,1-0.3,2-0.9,2c-0.1,0-0.5,0-0.6-0.3"/>
	<path class="st6" d="M266,187.2c0,0,0.1,0,0.1,0c0.3,0,0.6,0.5,0.7,1.2c0,0.5-0.1,0.9-0.2,1.2"/>
	<line class="st6" x1="266.1" y1="187.2" x2="265.2" y2="187.6"/>
	<line class="st6" x1="266.6" y1="189.6" x2="265.7" y2="190.1"/>
	<line class="st6" x1="264.4" y1="187.5" x2="263.5" y2="187.8"/>
	<line class="st6" x1="265" y1="191.2" x2="264.9" y2="191.3"/>
	<line class="st6" x1="265" y1="191.2" x2="265" y2="191.2"/>
	<path class="st6" d="M264.4,187.5c0,0,0.1,0,0.1,0c0.6,0,1.1,0.8,1.2,1.8c0.1,0.8-0.1,1.5-0.5,1.8"/>
	<path class="st6" d="M263.3,188.2c0.2-0.3,0.3-0.4,0.5-0.4c0.6,0,1.1,0.8,1.2,1.8c0,0.5,0,0.9-0.1,1.2"/>
	<path class="st6" d="M263.7,188.4c0,0,0.1,0,0.1,0c0.3,0,0.6,0.5,0.7,1.2c0,0.2,0,0.3,0,0.4"/>
	<line class="st6" x1="263.8" y1="188.4" x2="263.6" y2="188.5"/>
	<line class="st3" x1="280.8" y1="263.8" x2="326.5" y2="244.1"/>
	<line class="st3" x1="281" y1="264.8" x2="326.9" y2="245.1"/>
	<line class="st3" x1="271" y1="245.7" x2="312.9" y2="218.7"/>
	<line class="st3" x1="251.4" y1="230.2" x2="285.4" y2="196.8"/>
	<path class="st3" d="M234.4,233.7c8.3-7.1,27.4-2.3,40.3,22.1c14,26.6,6.8,42-3.7,44.4"/>
	<path class="st3" d="M187.8,259.5c9-14,31.4-5.4,44.2,19.2c10.7,20.5,13.7,45.7-8.9,46.6"/>
	<line class="st3" x1="235.8" y1="232.7" x2="245.6" y2="220.1"/>
	<line class="st3" x1="279.8" y1="294" x2="327.6" y2="286.2"/>
	<path class="st3" d="M261.4,201.9c12.2-14.6,40.4-9.2,60.6,28.2c20.2,37.3,9.9,64.2-9,66.5"/>
	<path class="st3" d="M311.7,236.3c3.2,5.8,1.2,12.9-4.5,15.8c-5.7,2.9-12.9,0.5-16.1-5.3c-3.2-5.8-1.2-12.9,4.5-15.8
		C301.2,228.1,308.5,230.5,311.7,236.3z"/>
	<path class="st3" d="M236.3,232.5c7-8.6,28.5,0.9,39.9,22.1c12.9,24.1,5.5,44.9-5.2,45.5"/>
	<path class="st8" d="M262.4,202.9c-3.6-3.5-10.8-4.4-16.6,1.2c-5.5,5.2-1.9,14.7-0.5,16.1c1.4,1.4,7.6-0.7,11.6-5.7
		C261,209.5,263.6,204.1,262.4,202.9z"/>
	<path class="st3" d="M238.9,228.9c4-3.3,6.9-3.5,9.5-3.8c2.6-0.2,1.9,1.7,4.5-0.5c2.6-2.1,20.7-21.3,22.3-23.4
		c1.7-2.1,1.2-3.8-2.1-3.3c-3.3,0.5-5.9,0.5-11.6,3.8"/>
	<path class="st4" d="M280.5,235.1l19.7-13.7c0,0-0.5-1.2,0.7-1.9c1.2-0.7,1.9,0,1.9,0s1.2-0.9,2.4-1.7c1.2-0.7,1.2-0.2,2.4,0.9
		c1.2,1.2,3.6,3.1,8.6,12.1c5,9,6.7,15.6,7.6,17.5c1,1.9-1.2,3.5-2.1,4c-1,0.5,0.7,0.9-1.4,1.9c-2.1,0.9-2.4-0.5-2.4-0.5l-22.1,8.3
		c0,0,1,0.5-0.5,1.4c-1.4,0.9-2.1-0.2-2.1-0.2s0.2-0.2-1.4,0.5c-1.7,0.7-1.7,0.9-2.6-1.2c-1-2.1-1.7-5.2-5.2-12.1
		c-3.6-6.9-6.7-8.5-7.4-9.9c-0.7-1.4-1.2-2.1-0.2-2.6c1-0.5,1.4-0.9,1.4-0.9s-0.5-0.5,0.7-1.4C279.6,234.6,280.5,235.1,280.5,235.1z
		"/>
	<path class="st3" d="M280.5,235.1l19.7-13.7c0,0-0.5-1.2,0.7-1.9c1.2-0.7,1.9,0,1.9,0s1.2-0.9,2.4-1.7c1.2-0.7,1.2-0.2,2.4,0.9
		c1.2,1.2,3.6,3.1,8.6,12.1c5,9,6.7,15.6,7.6,17.5c1,1.9-1.2,3.5-2.1,4c-1,0.5,0.7,0.9-1.4,1.9c-2.1,0.9-2.4-0.5-2.4-0.5l-22.1,8.3
		c0,0,1,0.5-0.5,1.4c-1.4,0.9-2.1-0.2-2.1-0.2s0.2-0.2-1.4,0.5c-1.7,0.7-1.7,0.9-2.6-1.2c-1-2.1-1.7-5.2-5.2-12.1
		c-3.6-6.9-6.7-8.5-7.4-9.9c-0.7-1.4-1.2-2.1-0.2-2.6c1-0.5,1.4-0.9,1.4-0.9s-0.5-0.5,0.7-1.4C279.6,234.6,280.5,235.1,280.5,235.1z
		"/>
	<path class="st3" d="M279.3,238.3c0.2,0.3,0,0.7-0.3,1c-0.4,0.2-0.9,0.2-1-0.1c-0.2-0.3,0-0.7,0.3-1
		C278.6,238,279.1,238.1,279.3,238.3z"/>
	<path class="st3" d="M282.6,236.1c0.2,0.3,0,0.7-0.3,1c-0.4,0.2-0.9,0.2-1-0.1c-0.2-0.3,0-0.7,0.3-1
		C282,235.8,282.4,235.8,282.6,236.1z"/>
	<path class="st3" d="M286.2,233.9c0.2,0.3,0,0.7-0.3,1c-0.4,0.2-0.9,0.2-1-0.1c-0.2-0.3,0-0.7,0.3-1
		C285.5,233.5,286,233.6,286.2,233.9z"/>
	<path class="st3" d="M292.5,261.2c0.2,0.3,0,0.7-0.3,1c-0.4,0.2-0.9,0.2-1.1-0.1c-0.2-0.3,0-0.7,0.3-1
		C291.8,260.8,292.3,260.9,292.5,261.2z"/>
	<path class="st3" d="M296.2,259.8c0.2,0.3,0,0.7-0.3,1c-0.4,0.2-0.9,0.2-1.1-0.1c-0.2-0.3,0-0.7,0.3-1
		C295.5,259.4,296,259.5,296.2,259.8z"/>
	<path class="st3" d="M299.6,258.3c0.2,0.3,0,0.7-0.3,1c-0.4,0.2-0.9,0.2-1.1-0.1c-0.2-0.3,0-0.7,0.3-1
		C299,258,299.4,258.1,299.6,258.3z"/>
	<path class="st3" d="M316.3,252c0.2,0.3,0,0.7-0.3,1c-0.4,0.2-0.9,0.2-1-0.1c-0.2-0.3,0-0.7,0.3-1
		C315.6,251.6,316.1,251.7,316.3,252z"/>
	<path class="st3" d="M319.3,250.9c0.2,0.3,0,0.7-0.3,1c-0.4,0.2-0.9,0.2-1-0.1c-0.2-0.3,0-0.7,0.3-1
		C318.6,250.6,319.1,250.6,319.3,250.9z"/>
	<path class="st3" d="M322.1,249.6c0.2,0.3,0,0.7-0.3,1c-0.4,0.2-0.9,0.2-1-0.1c-0.2-0.3,0-0.7,0.3-1
		C321.4,249.3,321.9,249.3,322.1,249.6z"/>
	<path class="st3" d="M301.9,223.1c0.2,0.3,0,0.7-0.3,1c-0.4,0.2-0.9,0.2-1-0.1c-0.2-0.3,0-0.7,0.3-1
		C301.2,222.7,301.7,222.8,301.9,223.1z"/>
	<path class="st3" d="M304.3,221.5c0.2,0.3,0,0.7-0.3,1c-0.4,0.2-0.9,0.2-1-0.1c-0.2-0.3,0-0.7,0.3-1
		C303.6,221.2,304.1,221.2,304.3,221.5z"/>
	<path class="st3" d="M306.5,220c0.2,0.3,0,0.7-0.3,1c-0.4,0.2-0.9,0.2-1.1-0.1c-0.2-0.3,0-0.7,0.3-1
		C305.9,219.7,306.3,219.7,306.5,220z"/>
	<polyline class="st4" points="272.1,230.6 272.3,232.7 265.4,237.5 253.9,229.9 253.9,227.9 255.6,226.8 	"/>
	<polyline class="st3" points="272.1,230.6 272.3,232.7 265.4,237.5 253.9,229.9 253.9,227.9 255.6,226.8 	"/>
	<polyline class="st4" points="253.9,227.7 265.4,235.1 272,230.6 	"/>
	<polyline class="st3" points="253.9,227.7 265.4,235.1 272,230.6 	"/>
	<line class="st3" x1="265.5" y1="235.1" x2="265.4" y2="237.4"/>
	<polyline class="st4" points="263.8,227.4 260.1,229.4 255.6,226.7 255.6,226.5 255.6,224.9 260.1,227.7 263.2,226.1 	"/>
	<polyline class="st3" points="263.8,227.4 260.1,229.4 255.6,226.7 255.6,226.5 255.6,224.9 260.1,227.7 263.2,226.1 	"/>
	<line class="st3" x1="255.6" y1="224.8" x2="256.6" y2="223.9"/>
	<path class="st4" d="M256.7,222.9l0,2.5c0.2,1,1.8,1.7,3.6,1.7c1.9,0,3.4-0.9,3.4-2c0-0.1,0,0.3,0,0.3l0.1-2.1"/>
	<path class="st3" d="M256.7,222.9l0,2.5c0.2,1,1.8,1.7,3.6,1.7c1.9,0,3.4-0.9,3.4-2c0-0.1,0,0.3,0,0.3l0.1-2.1"/>
	<line class="st3" x1="260.2" y1="229.3" x2="260.2" y2="227.4"/>
	<polygon class="st4" points="270.9,230.5 266.7,233.2 262.2,230.5 262.2,230.3 262.2,228.7 266.7,231.5 271,229 270.9,229 	"/>
	<polygon class="st3" points="270.9,230.5 266.7,233.2 262.2,230.5 262.2,230.3 262.2,228.7 266.7,231.5 271,229 270.9,229 	"/>
	<line class="st3" x1="262.2" y1="228.6" x2="263.3" y2="227.6"/>
	<path class="st4" d="M270.4,228.6c0,0.1,0,0.1,0,0.2c0,1.1-1.6,2-3.4,2c-1.8,0-3.2-0.8-3.4-1.8"/>
	<path class="st3" d="M270.4,228.6c0,0.1,0,0.1,0,0.2c0,1.1-1.6,2-3.4,2c-1.8,0-3.2-0.8-3.4-1.8"/>
	<line class="st3" x1="266.8" y1="233.1" x2="266.8" y2="231.2"/>
	<path class="st4" d="M263.4,226.1l0,2.5c0.2,1,1.8,1.7,3.6,1.7c1.9,0,3.4-0.9,3.4-2c0-0.1,0,0.3,0,0.3l0.1-2.1"/>
	<path class="st3" d="M263.4,226.1l0,2.5c0.2,1,1.8,1.7,3.6,1.7c1.9,0,3.4-0.9,3.4-2c0-0.1,0,0.3,0,0.3l0.1-2.1"/>
	<path class="st3" d="M251.7,222.2c0.2,0.2,0.1,0.6-0.2,0.9c-0.3,0.3-0.7,0.5-0.9,0.3c-0.2-0.2-0.1-0.6,0.2-0.9
		C251.1,222.2,251.5,222,251.7,222.2z"/>
	<path class="st3" d="M253.6,220.2c0.2,0.2,0.1,0.6-0.2,0.9c-0.3,0.3-0.7,0.5-0.9,0.3s-0.1-0.6,0.2-0.9
		C253,220.2,253.4,220,253.6,220.2z"/>
	<path class="st3" d="M255.6,218c0.2,0.2,0.1,0.6-0.2,0.9c-0.3,0.3-0.7,0.5-0.9,0.3s-0.1-0.5,0.2-0.9
		C255.1,218,255.5,217.8,255.6,218z"/>
	<path class="st3" d="M270.7,202.7c0.2,0.2,0.1,0.5-0.2,0.9c-0.3,0.3-0.7,0.5-0.9,0.3c-0.2-0.2-0.1-0.5,0.2-0.9
		C270.2,202.7,270.6,202.5,270.7,202.7z"/>
	<path class="st3" d="M272.4,200.6c0.2,0.2,0.1,0.6-0.2,0.9c-0.3,0.3-0.7,0.5-0.9,0.3c-0.2-0.2-0.1-0.5,0.2-0.9
		C271.8,200.6,272.2,200.5,272.4,200.6z"/>
	<path class="st3" d="M273.9,198.8c0.2,0.2,0.1,0.6-0.2,0.9s-0.7,0.5-0.9,0.3c-0.2-0.2-0.1-0.6,0.2-0.9
		C273.4,198.8,273.8,198.6,273.9,198.8z"/>
	<path class="st4" d="M270.4,226.5L270.4,226.5c0,1.1-1.5,2-3.4,2s-3.4-0.9-3.4-2c0-1.1,1.5-2,3.4-2S270.4,225.4,270.4,226.5z"/>
	<path class="st3" d="M270.4,226.5L270.4,226.5c0,1.1-1.5,2-3.4,2s-3.4-0.9-3.4-2c0-1.1,1.5-2,3.4-2S270.4,225.4,270.4,226.5z"/>
	<path class="st4" d="M263.8,223.2L263.8,223.2c0,1.1-1.5,2-3.4,2c-1.9,0-3.4-0.9-3.4-2c0-1.1,1.5-2,3.4-2
		C262.2,221.2,263.8,222.1,263.8,223.2z"/>
	<path class="st3" d="M263.8,223.2L263.8,223.2c0,1.1-1.5,2-3.4,2c-1.9,0-3.4-0.9-3.4-2c0-1.1,1.5-2,3.4-2
		C262.2,221.2,263.8,222.1,263.8,223.2z"/>
	<line class="st3" x1="264" y1="222.9" x2="290" y2="198.5"/>
	<line class="st3" x1="267.4" y1="224.2" x2="291.8" y2="203.2"/>
	<line class="st3" x1="270.5" y1="227.1" x2="295.9" y2="206.2"/>
	<line class="st3" x1="271.8" y1="230.6" x2="302.2" y2="206.9"/>
	<line class="st3" x1="265.8" y1="239.6" x2="305.6" y2="210"/>
	<line class="st3" x1="294.9" y1="272.7" x2="331.3" y2="262.2"/>
	<line class="st3" x1="294.9" y1="284.2" x2="330.8" y2="276.8"/>
	<path class="st3" d="M284.1,272.3c2.1-0.3,5.3-1.4,7.3-1.8c2-0.4,3.1-0.4,3.4,1.3c0.3,1.7,0.3,11.9,0.1,14
		c-0.1,2.1-0.8,2.7-2.5,3.1c-1.7,0.4-5.1,1-7.2,1.3c-1.5,0.2-1.8-0.3-1.5-1.7c0.4-2,0.5-3.3,0.6-6c0.1-5.6-0.3-7.1-0.4-8.3
		C283.7,273,283.1,272.4,284.1,272.3z"/>
	<path class="st3" d="M267.8,196.8c14.1-5.8,36.1,3.3,52.7,34c19.7,36.5,10.3,63-7.8,66.3"/>
	<path class="st3" d="M311.8,289c1.3,4.8,0.8,9.6-0.7,13.6c-1,2.7-5.3,7.3-9.8,7.8c-6.3,0.8-23.8,2.7-27.6,2.7
		c-3.8,0-6.5-0.3-9.7-1.4c-3.2-1.1-7-3.1-7-3.1"/>
	<path class="st3" d="M288.4,292.9c0.3,6.9-0.1,18.6-12.8,20.2"/>
	<polygon class="st3" points="239.6,302.4 280.9,279.3 279.3,269.9 237.7,292.5 238.7,297.9 	"/>
	<polygon class="st3" points="237,290.2 278.5,267.9 274.2,257.5 232.8,279.4 	"/>
	<path class="st3" d="M239.9,303.8c0.6,3.1-0.7,10.1-0.7,10.1l40.5-22.4l1.1-9.8C280.9,281.7,249.5,298.1,239.9,303.8z"/>
	<path class="st4" d="M268.3,301.7l-4.4-3.5l-0.1-1.5l-2.8-2c0,0-1.5-0.6-3.1,1.3c-1.5,1.8-1,3.9-1,3.9l2.3,2.1l1.3,0.3l4.2,3.6"/>
	<path class="st3" d="M268.3,301.7l-4.4-3.5l-0.1-1.5l-2.8-2c0,0-1.5-0.6-3.1,1.3c-1.5,1.8-1,3.9-1,3.9l2.3,2.1l1.3,0.3l4.2,3.6"/>
	<path class="st3" d="M263.8,298.1c-2-0.1-3.8,1.4-3.5,3.9"/>
	<path class="st3" d="M263.7,296.7c-2.5-0.4-5.3,2.7-4.6,5.3"/>
	<polygon class="st8" points="265.1,303.5 264.4,310.1 270.7,306.6 271,300.2 	"/>
	<line class="st3" x1="235.1" y1="320" x2="263.7" y2="305"/>
	<path class="st3" d="M193.3,254.5c10.8-4.3,27.3,5.1,37.5,24.9c8.8,16.9,11.6,37.3-0.3,44.4"/>
	<polygon class="st3" points="216.6,259.7 224.4,267.1 266.3,245.2 258.8,238.2 	"/>
	<polygon class="st3" points="207.6,254.7 214.9,258.2 257,236.8 250.1,232 	"/>
	<polygon class="st3" points="201.3,252.8 206.3,253.9 247.9,232.1 242.7,230.9 	"/>
	<line class="st3" x1="194.7" y1="253.9" x2="234.3" y2="233.6"/>
	<path class="st1" d="M221.6,239.7c0.1,0.4-0.3,0.8-0.9,1c-0.6,0.2-1.3,0.1-1.4-0.3c-0.1-0.4,0.3-0.8,0.9-1
		C220.8,239.3,221.5,239.4,221.6,239.7z"/>
	<line class="st1" x1="219.2" y1="240.5" x2="220.3" y2="242.6"/>
	<line class="st1" x1="221.5" y1="239.6" x2="222.9" y2="241.7"/>
	<path class="st4" d="M236.3,246.4l0,1.7c0.2,0.3,0.7,0.6,1.3,0.6c0.8,0,1.4-0.3,1.4-0.8c0-0.1,0,0-0.1-0.1l0-1.4"/>
	<path class="st3" d="M236.3,246.4l0,1.7c0.2,0.3,0.7,0.6,1.3,0.6c0.8,0,1.4-0.3,1.4-0.8c0-0.1,0,0-0.1-0.1l0-1.4"/>
	<line class="st4" x1="238.9" y1="247.7" x2="238.9" y2="247.7"/>
	<line class="st3" x1="238.9" y1="247.7" x2="238.9" y2="247.7"/>
	<path class="st4" d="M239,246.4L239,246.4c0,0.4-0.6,0.8-1.3,0.8s-1.3-0.3-1.3-0.8s0.6-0.8,1.3-0.8S239,246,239,246.4z"/>
	<path class="st3" d="M239,246.4L239,246.4c0,0.4-0.6,0.8-1.3,0.8s-1.3-0.3-1.3-0.8s0.6-0.8,1.3-0.8S239,246,239,246.4z"/>
	<path class="st4" d="M253.1,265.6l-1.4,0.8c-0.2,0.3-0.2,0.9,0.1,1.5c0.4,0.7,1,1,1.3,0.8c0.1,0,0,0,0-0.1l1.3-0.7"/>
	<path class="st3" d="M253.1,265.6l-1.4,0.8c-0.2,0.3-0.2,0.9,0.1,1.5c0.4,0.7,1,1,1.3,0.8c0.1,0,0,0,0-0.1l1.3-0.7"/>
	<line class="st4" x1="253.2" y1="268.4" x2="253.2" y2="268.4"/>
	<line class="st3" x1="253.2" y1="268.4" x2="253.2" y2="268.4"/>
	<path class="st4" d="M254.4,267.9c-0.4,0.2-1-0.1-1.3-0.8c-0.3-0.6-0.3-1.3,0-1.5c0.4-0.2,1,0.1,1.3,0.8
		C254.8,267,254.8,267.7,254.4,267.9z"/>
	<path class="st3" d="M254.4,267.9c-0.4,0.2-1-0.1-1.3-0.8c-0.3-0.6-0.3-1.3,0-1.5c0.4-0.2,1,0.1,1.3,0.8
		C254.8,267,254.8,267.7,254.4,267.9z"/>
	<line class="st3" x1="272.7" y1="197.9" x2="275" y2="195.2"/>
	<polyline class="st4" points="262.1,190.7 263.4,193.6 265.4,198.1 262.6,201 266.4,199.3 268.6,198.6 269.8,197.2 265.9,197.2 
		262.9,190.2 	"/>
	<polyline class="st6" points="262.1,190.7 263.4,193.6 265.4,198.1 262.6,201 266.4,199.3 268.6,198.6 269.8,197.2 265.9,197.2 
		262.9,190.2 	"/>
	<line class="st1" x1="261.8" y1="189.4" x2="260.8" y2="189.9"/>
	<path class="st1" d="M260.9,191.5c-0.1-0.1-0.1-0.2-0.2-0.3c-0.3-0.5-0.3-0.8-0.2-1"/>
	<path class="st6" d="M260.5,190.3c0-0.2,0.1-0.3,0.2-0.3c0.3-0.2,0.9,0.2,1.2,0.7c0.3,0.6,0.3,1.2,0,1.3c-0.3,0.1-0.7-0.1-1-0.4"/>
	<path class="st6" d="M261.6,189.6c0-0.1,0.1-0.1,0.2-0.1c0.3-0.1,0.8,0.1,1.2,0.6"/>
	<line class="st1" x1="260.8" y1="191.3" x2="264.8" y2="198.6"/>
	<line class="st6" x1="261" y1="187.3" x2="260.2" y2="187.8"/>
	<line class="st6" x1="273.7" y1="185.7" x2="272.5" y2="186.4"/>
	<line class="st6" x1="272.4" y1="183.8" x2="271.9" y2="184"/>
	<path class="st6" d="M272.1,184.1c0-0.1,0.1-0.2,0.2-0.3c0.3-0.2,0.9,0.2,1.2,0.7c0.2,0.4,0.3,0.8,0.2,1.1"/>
	<line class="st1" x1="243.7" y1="229.3" x2="247.2" y2="225.4"/>
	<path class="st4" d="M291.7,203.1l4.4,3.3l5.4-2.8c0,0,0.5-1.4-0.1-2c-0.6-0.6-2-1.1-2-1.1l-2.2,0.2c0,0-1.5-0.7-2-1.4
		c-0.6-0.8-1.1-2.7-1.1-2.7s-1.9-1.3-2.8-0.3c-1.7,2,0.6,3.7,0.6,3.7L291.7,203.1z"/>
	<path class="st1" d="M291.7,203.1l4.4,3.3l5.4-2.8c0,0,0.5-1.4-0.1-2c-0.6-0.6-2-1.1-2-1.1l-2.2,0.2c0,0-1.5-0.7-2-1.4
		c-0.6-0.8-1.1-2.7-1.1-2.7s-1.9-1.3-2.8-0.3c-1.7,2,0.6,3.7,0.6,3.7L291.7,203.1z"/>
	<polyline class="st1" points="294.3,196.8 295.7,198.7 297.7,199.9 299.5,200.6 	"/>
	<path class="st1" d="M292,196.2c0.1,0.1,0,0.4-0.2,0.5c-0.2,0.1-0.5,0.1-0.5,0c-0.1-0.1,0-0.4,0.2-0.5
		C291.7,196.1,292,196.1,292,196.2z"/>
	<path class="st1" d="M301.9,203.3c0.1,0.1,0,0.4-0.2,0.5c-0.2,0.1-0.5,0.1-0.5,0c-0.1-0.1,0-0.4,0.2-0.5
		C301.6,203.1,301.8,203.1,301.9,203.3z"/>
	<line class="st1" x1="301.9" y1="203.2" x2="300.8" y2="202.2"/>
	<line class="st1" x1="301.1" y1="203.8" x2="300.1" y2="202.9"/>
	<path class="st1" d="M300.8,202.3c0.1,0.1,0,0.4-0.2,0.5c-0.2,0.1-0.5,0.1-0.5,0c-0.1-0.1,0-0.4,0.2-0.5
		C300.5,202.2,300.7,202.2,300.8,202.3z"/>
	<path class="st1" d="M296.1,206.5c0.2-1.5,0.6-2.4,1.5-2.9"/>
	<path class="st1" d="M262.6,203.1c0.9-0.4,1.4,0.1,1.1,1.6c-0.3,1.7-1.6,5.7-5.7,10.6c-3.4,4-8.9,6.4-10.4,6.7s-2.1-0.2-1.6-1.4"/>
	<path class="st3" d="M194.3,341.8c-0.1,0-0.1,0.1-0.2,0.1"/>
	<path class="st3" d="M164.3,268.6c13.3-2.3,26.9,9.1,35.9,26.1c6.7,12.6,11.2,33.8,3.6,41.8"/>
	<path class="st3" d="M170.9,266.2c9-14,34.9-5.3,47.7,19.3c10.7,20.5,12.5,46.4-10.1,47.3"/>
	<path class="st3" d="M170.9,266.2c9-14,32.4-4.4,45.2,20.2c10.7,20.5,12.7,45.6-10,46.5"/>
	<line class="st1" x1="202.3" y1="337.9" x2="204.4" y2="341.4"/>
	<line class="st1" x1="197.7" y1="340.1" x2="199.5" y2="344"/>
	<line class="st1" x1="194.3" y1="341.9" x2="195.5" y2="345.1"/>
	<polyline class="st1" points="193,342.5 195.5,345.1 195.3,341.8 	"/>
	<polyline class="st1" points="197.1,341.7 199.5,344 199.3,340.3 	"/>
	<polyline class="st1" points="201.3,338.8 204.3,341.6 203.2,337.3 	"/>
	<polyline class="st1" points="209.5,329.7 212.2,329.8 210.2,326 	"/>
	<polyline class="st1" points="206.9,333.8 210.6,335.3 208.8,331.4 	"/>
	<polyline class="st1" points="210,322.9 213,323.9 210.8,320.9 	"/>
	<polyline class="st1" points="210,314.7 213.5,317.6 210.3,317.2 	"/>
	<polyline class="st1" points="209.3,311.3 212.4,310.3 209.3,308.9 	"/>
	<polyline class="st1" points="207.9,304.4 210.6,303.1 207.4,302.3 	"/>
	<line class="st1" x1="203.6" y1="297" x2="207" y2="295.6"/>
	<polyline class="st1" points="204.8,294.9 207.2,295.7 205.8,297.6 	"/>
	<path class="st3" d="M190.6,343.4"/>
	<polyline class="st1" points="190,343.7 189.9,345.1 188.8,344.3 	"/>
	<path class="st3" d="M167.9,266.7c-21,10.4-37.4,23.8-43,32.3c-1.2,1.8-2.1,3.4-2.8,4.8"/>
	<line class="st1" x1="193.6" y1="341.8" x2="193.6" y2="341.8"/>
	<line class="st1" x1="193.6" y1="341.8" x2="193.6" y2="341.8"/>
	<line class="st1" x1="193.6" y1="341.8" x2="193.6" y2="341.8"/>
	<line class="st1" x1="193.5" y1="342.1" x2="203.2" y2="337.5"/>
	<line class="st1" x1="204.7" y1="335.5" x2="207.7" y2="338.8"/>
	<polyline class="st1" points="206.2,335.3 207.7,338.8 204.4,337 	"/>
	<line class="st1" x1="207.3" y1="331.8" x2="210.4" y2="335.2"/>
	<line class="st1" x1="209" y1="327.5" x2="212.1" y2="329.6"/>
	<line class="st1" x1="209.9" y1="321.4" x2="213" y2="323.9"/>
	<line class="st1" x1="209.5" y1="315.8" x2="213.5" y2="317.6"/>
	<line class="st1" x1="208.9" y1="309.8" x2="212.4" y2="310.3"/>
	<line class="st1" x1="207.6" y1="303.3" x2="210.6" y2="303.1"/>
	<line class="st1" x1="157.6" y1="272.5" x2="157.6" y2="272.5"/>
	<line class="st1" x1="157.6" y1="272.5" x2="157.6" y2="272.5"/>
	<line class="st1" x1="157.6" y1="272.5" x2="157.6" y2="272.5"/>
	<line class="st1" x1="169.3" y1="267.5" x2="168.4" y2="263"/>
	<polyline class="st1" points="170.3,266.3 168.4,263 167.9,266.7 	"/>
	<line class="st1" x1="173.9" y1="267.5" x2="172.9" y2="263"/>
	<line class="st1" x1="178.6" y1="268.9" x2="178.4" y2="264.8"/>
	<line class="st1" x1="183.8" y1="271.5" x2="183.6" y2="267.5"/>
	<line class="st1" x1="188.1" y1="275" x2="189" y2="270.9"/>
	<line class="st1" x1="191.9" y1="278.5" x2="194.3" y2="276.1"/>
	<line class="st1" x1="197.2" y1="284.5" x2="199.1" y2="281.7"/>
	<line class="st1" x1="166" y1="268.2" x2="164.2" y2="264.3"/>
	<line class="st1" x1="161.3" y1="269.8" x2="159.4" y2="266.5"/>
	<line class="st1" x1="157.9" y1="271.9" x2="156" y2="269.1"/>
	<polyline class="st1" points="156.7,272.7 156,269.1 158.6,271.2 	"/>
	<polyline class="st1" points="159.8,269.8 159.4,266.5 162.2,268.9 	"/>
	<polyline class="st1" points="164.6,268.2 164.1,264.1 167,267.5 	"/>
	<polyline class="st1" points="177.3,267.7 178.4,264.6 179.6,268.4 	"/>
	<polyline class="st1" points="172,266.5 172.9,262.7 175.1,266.5 	"/>
	<polyline class="st1" points="182.7,270.5 183.6,267.5 184.8,271 	"/>
	<polyline class="st1" points="189.3,275.3 189.1,270.8 187.4,273.6 	"/>
	<polyline class="st1" points="191.1,277.2 194.3,276 193.6,279.3 	"/>
	<polyline class="st1" points="196.4,283.1 199.1,281.7 198.2,285.1 	"/>
	<line class="st1" x1="200.7" y1="290.6" x2="203.1" y2="288.8"/>
	<polyline class="st1" points="202,292 203.1,288.8 199.8,289 	"/>
	<path class="st3" d="M154.6,274.1"/>
	<polyline class="st1" points="154,274.3 152.8,273.6 152.8,275 	"/>
	<path class="st1" d="M205.4,334.4c-0.7,2.1-4.9,4.6-7.1,5.5"/>
	<path class="st3" d="M117.2,310.5c0.9-5,4.7-17.5,20.5-26.8c5.1-3,8.9-5.1,13.7-7.7"/>
	<path class="st3" d="M139.6,353.9c1.9,0.9,5.6,2,9.7,2.6c5,0.8,7.7,0.4,15.1-1.2c6.8-1.4,11-3.3,16.8-6.7c10.2-5.9,17.4-8.9,19-9.7
		c7.1-7.3,6.7-23.9-0.9-38.9c-11-21.8-23.9-31.9-39.4-29.1"/>
	<path class="st3" d="M155.5,291L155.5,291c0,1.8-2.5,3.2-5.7,3.2c-3.1,0-5.7-1.4-5.7-3.2s2.5-3.2,5.7-3.2
		C153,287.8,155.5,289.2,155.5,291z"/>
	<path class="st3" d="M187.9,283.5c0,0-23.4,14.4-30.3,18c-11.3,5.8-19,17.7-19,17.7"/>
	<line class="st3" x1="197.4" y1="297.8" x2="143" y2="326.4"/>
	<path class="st3" d="M184.8,288.4c-4.4,1.9-11.2,6.1-14.3,7.9c-3.1,1.8-4.3,1.7-2.5,3.9c1.9,2.1,2.2,3,3.7,5.2
		c1.5,2.1,2.8,1.8,5.3,0.9c2.5-0.9,12.4-6.1,14.6-7.3c2.2-1.2,3.1-1.8,1.2-4.6c-1.9-2.7-3.4-4.3-4.3-6.1
		C187.5,286.5,186.9,287.5,184.8,288.4z"/>
	<path class="st3" d="M167.9,266.7c13.3-2.3,26.4,9.1,35.4,26.1c6.7,12.6,10.6,35,0.6,43.6"/>
	<path class="st2" d="M191.5,265.4L191.5,265.4c0,0.8-0.7,1.5-1.5,1.5s-1.5-0.7-1.5-1.5c0-0.8,0.7-1.5,1.5-1.5
		S191.5,264.6,191.5,265.4z"/>
	<path class="st2" d="M187.6,263.3L187.6,263.3c0,0.8-0.7,1.5-1.5,1.5c-0.9,0-1.5-0.7-1.5-1.5c0-0.8,0.7-1.5,1.5-1.5
		C187,261.8,187.6,262.5,187.6,263.3z"/>
	<path class="st2" d="M221.2,320.3L221.2,320.3c0,0.8-0.7,1.5-1.5,1.5c-0.9,0-1.5-0.7-1.5-1.5c0-0.8,0.7-1.5,1.5-1.5
		C220.5,318.8,221.2,319.5,221.2,320.3z"/>
	<path class="st2" d="M220.9,324.1L220.9,324.1c0,0.8-0.7,1.5-1.5,1.5s-1.5-0.7-1.5-1.5c0-0.8,0.7-1.5,1.5-1.5
		S220.9,323.3,220.9,324.1z"/>
	<path class="st2" d="M217.8,325.2l-2.4-0.9c0,0-1.4-0.9-1.2-2.4c0.2-1.4,0-7.1,0.2-8.5c0.2-1.4,0.5-2.2,2-2.2
		c1.7,0,0.9,0.1,2.6,0.3s1.6,0.2,1.8,2.1c0.2,1.9,0.5,6.2,0.5,6.2l-0.2,4.3C221.2,324,221.2,326.6,217.8,325.2z"/>
	<line class="st2" x1="216.2" y1="312.2" x2="217.7" y2="320"/>
	<line class="st2" x1="217.6" y1="320" x2="217.2" y2="325"/>
	<path class="st2" d="M184.4,263.4c0,0,0.5,2,0.9,3.3c0.5,1.4,1,1.7,2.1,2.8c1.2,1.2,1.7,2.1,3.6,3.3c1.9,1.2,3.6,1.2,5.2-0.2
		c1.7-1.4,2.1-3.3,0.7-4.5c-1.4-1.2-6.2-4.5-6.2-4.5l-4-2.1c0,0-5,0.5-0.7,3.6c4.3,3.1,3.3,1.9,3.3,1.9"/>
	<line class="st2" x1="189.4" y1="267.1" x2="195" y2="273.5"/>
	<line class="st2" x1="191.5" y1="264.9" x2="197.6" y2="270.8"/>
	<path class="st6" d="M29,384.4c0.3,0.5,0.2,1.1-0.2,1.3s-0.9-0.1-1.2-0.6c-0.3-0.5-0.2-1.1,0.2-1.3C28.2,383.6,28.7,383.8,29,384.4
		z"/>
</g>
<g id="apollo">
	<path id="apollo_white" class="st0" d="M305,68.3c-1.4-10.2-9.4-28.2-17-33.8c-3.4-4.4-22.8-18-30-0.3c-1.6,2.7-1.7,2-3.4,4.1
		c-3.2,0.6-1.8,0.4-3.3,1.4c-2.9-3.2-25.6-26.1-45.6-15.5c-5.6,2.9-45.6,25.3-51.4,28.8c-4.9,2.9-10.2,5.9-16.1,8.9
		C132,65,76,96.7,69.4,100.3c-0.3,0.2-5,2.2-7.9,5.7c-2,2.2-2.7,2.2-4.5,4.6c-1.1,2.2-16.4,34-17.5,36.4c-4.1,7.3-11,23.5-15.5,32.4
		c-3.2,2.8-4.1,7.6-3,14.4c-0.9,12.5,5.3,14.1,10.5,19c1.4,1.3,6.4,5.7,11.3,3.8c5.5,0.8,46,6.6,59.1,7.9c8.6,1.3,14,2,14.3,2.5
		c2.7-0.7,4.8-1.1,7.4-1.7c13.3-5,24.4-13.5,38.9-21.3c5.7-3.1,44.6-24.9,51.8-28.8c8.2-4,21-13,31.7-17.6
		c5.4-2.8,16.6-9.5,21.3-12.1c6.6-1.8,12.4-13.8,13.4-19.8c1-6,1.4-9.6,1.4-12.6c0.9-0.3,16.2-5.6,17.1-6c-0.1-0.4-0.5-2.5-0.5-2.8
		c-0.6,0.2-16.7,6-16.7,5.7c0.2-3.4-0.7-6.5-1.1-12.7c1.3-1,1.8-1.4,2.8-2.2c1.3-0.3,2.8-0.6,5.3-1.1C302.2,97,307,82.8,305,68.3z"
		/>
	<path class="st2" d="M118.2,72.9c10.4-6.2,23.6-3.6,37.6,7.3"/>
	<path class="st2" d="M257.7,34.9c4.7-13.6,19.8-12.2,32.5,1.9c12.6,14.2,18.7,36.3,13.6,49.1c-2.8,7-8.3,9.7-15.3,8.4"/>
	<path class="st2" d="M254.6,38.2l6.3-6.8c7.7-8.5,22.6-2.4,33.1,13.6c10.5,16,12.7,36.2,5,44.7c-1.5,1.7-3,2.7-5.1,3.4l-10.5,2.4"
		/>
	<path class="st2" d="M252,40.3c9.3-4.5,22.4,5.5,29.7,21c6.7,14.1,6.4,28.6-0.6,34.1l-0.7,0.4"/>
	<line class="st2" x1="299" y1="50" x2="317.9" y2="39.4"/>
	<line class="st2" x1="292.2" y1="39.2" x2="309.9" y2="26.9"/>
	<line class="st2" x1="295.8" y1="44.3" x2="313.4" y2="33.4"/>
	<line class="st2" x1="304.6" y1="21.9" x2="288" y2="34.5"/>
	<line class="st2" x1="294.4" y1="14.7" x2="279.5" y2="28.1"/>
	<line class="st2" x1="283.1" y1="12.3" x2="270.2" y2="25.4"/>
	<line class="st2" x1="299.8" y1="17.3" x2="283.7" y2="30.8"/>
	<line class="st2" x1="289.2" y1="12.2" x2="274.8" y2="26.1"/>
	<line class="st2" x1="303.6" y1="61.7" x2="323.2" y2="53.2"/>
	<line class="st2" x1="325.2" y1="67.3" x2="305.6" y2="73.8"/>
	<line class="st2" x1="323.3" y1="79.4" x2="304.4" y2="84.1"/>
	<line class="st2" x1="301.7" y1="55.9" x2="320.2" y2="46.7"/>
	<line class="st2" x1="324.4" y1="60.8" x2="305" y2="68.2"/>
	<line class="st2" x1="324.3" y1="73.7" x2="305.4" y2="79.1"/>
	<line class="st2" x1="319.9" y1="84.9" x2="302.3" y2="88.7"/>
	<line class="st2" x1="276.6" y1="50.3" x2="290.6" y2="40.4"/>
	<line class="st2" x1="279.6" y1="54.6" x2="294.3" y2="45.4"/>
	<line class="st2" x1="286.5" y1="35.9" x2="273" y2="46.3"/>
	<line class="st2" x1="278.1" y1="29.7" x2="266" y2="40.8"/>
	<line class="st2" x1="268.8" y1="27.6" x2="259" y2="38.2"/>
	<line class="st2" x1="282.2" y1="32.3" x2="269.4" y2="43.1"/>
	<line class="st2" x1="273.4" y1="28" x2="262.2" y2="39"/>
	<line class="st2" x1="286.3" y1="69.2" x2="301.9" y2="62.4"/>
	<line class="st2" x1="303.6" y1="74.2" x2="288" y2="79.3"/>
	<line class="st2" x1="302.2" y1="84.3" x2="287.4" y2="87.7"/>
	<line class="st2" x1="284.6" y1="64.3" x2="300" y2="56.7"/>
	<line class="st2" x1="303.1" y1="68.7" x2="287.5" y2="74.5"/>
	<line class="st2" x1="303.3" y1="79.5" x2="288" y2="83.6"/>
	<line class="st2" x1="299.9" y1="88.7" x2="286.1" y2="91.5"/>
	<line class="st2" x1="282.3" y1="59.3" x2="297.4" y2="50.8"/>
	<line class="st2" x1="265.5" y1="58.1" x2="275.4" y2="51.1"/>
	<line class="st2" x1="267.7" y1="62.1" x2="278.4" y2="55.3"/>
	<line class="st2" x1="272" y1="47.2" x2="263" y2="54.1"/>
	<line class="st2" x1="265.2" y1="41.8" x2="258.5" y2="48"/>
	<line class="st2" x1="258.2" y1="39.4" x2="254.6" y2="43.2"/>
	<line class="st2" x1="268.6" y1="44.1" x2="260.8" y2="51"/>
	<line class="st2" x1="261.5" y1="40.1" x2="256.4" y2="45.2"/>
	<line class="st2" x1="273.8" y1="74.2" x2="284.9" y2="69.7"/>
	<line class="st2" x1="286.5" y1="79.7" x2="276.9" y2="82.5"/>
	<line class="st2" x1="285.7" y1="87.9" x2="278.9" y2="89.4"/>
	<line class="st2" x1="272" y1="70.2" x2="283.3" y2="64.9"/>
	<line class="st2" x1="286" y1="75" x2="275.7" y2="78.7"/>
	<line class="st2" x1="286.4" y1="84" x2="278.2" y2="86.1"/>
	<line class="st2" x1="284.3" y1="91.5" x2="279.7" y2="92.4"/>
	<line class="st2" x1="270.1" y1="66" x2="281" y2="59.9"/>
	<line class="st2" x1="221.8" y1="118.8" x2="252.2" y2="101.9"/>
	<path class="st2" d="M121.8,70.8c11.1-6.6,26.1-2.6,41.1,10.3"/>
	<path class="st2" d="M60.8,107c14.1-17.5,42.8-6.9,63.4,23.4c20.7,30.3,26.1,69.6,11.9,87.1c-3.6,4.5-8.9,6.9-14.3,8"/>
	<path class="st2" d="M56.9,110.9c13.8-17.2,41.8-6.9,62.1,22.7c20.3,29.7,25.5,68.2,11.7,85.3c-4.1,5.1-8.6,7.2-15,7.7"/>
	<path class="st2" d="M48.5,128.2c9.1-18.7,32.8-15.1,52,7.9c19.2,23.1,27.5,57.5,18.4,76.2c-4.4,9.1-11.6,13.2-21.4,11.9"/>
	<path class="st2" d="M81.1,201.7l-8.2,1.3c0,0,0.3-4-0.1-8.7c-0.3-3.4-0.9-5.8-0.9-5.8l6.6-2.8"/>
	<path class="st2" d="M78.4,191.1c0.3,0.7-0.4,1.6-1.5,2.1c-1.1,0.5-2.2,0.3-2.5-0.3c-0.3-0.7,0.4-1.6,1.5-2.1
		C77,190.3,78.1,190.4,78.4,191.1z"/>
	<path class="st2" d="M79.2,196.8c0.2,0.7-0.5,1.6-1.6,2c-1.1,0.4-2.2,0.2-2.4-0.5c-0.2-0.7,0.5-1.6,1.6-2
		C77.9,195.9,79,196.1,79.2,196.8z"/>
	<path class="st2" d="M82.8,161.1l6.3-3.5c1.9-1.1,3.6,0,3.8,2.4l0.7,9.1c0.2,2.4-0.7,5-2,5.7l-8.7,5c-1.3,0.8-3.2-0.3-4.2-2.2
		l-3.8-7.5c-1-2-0.3-4.5,1.6-5.5L82.8,161.1z"/>
	<path class="st2" d="M74.9,166c1.9-1.1,4.4-2.5,4.4-2.5l6.5-3.6c1.9-1.1,4-0.3,4.5,1.8l1.4,8.1c0.3,2.2-0.9,4.8-2.6,5.8
		c0,0-4.3,2.5-7.5,4.3"/>
	<path class="st2" d="M89.1,203.9c0.6-0.9,2.1-5.3,1.9-11.5c-0.2-5.4-1.5-9.8-2.6-13.1l27.5-9.4c1.9,5.5,3.8,13,4.1,21.9
		c0.4,10.3-1.4,15.2-2.4,16.7C117.5,208.5,89.1,203.9,89.1,203.9z"/>
	<path class="st2" d="M101.4,184l4-0.1c1.5-0.1,2.8,1.2,2.9,2.8l0.3,8.5c0.1,1.6-1.2,3-2.7,3l-8.1,0.3c-1.5,0.1-2.8-1.2-2.9-2.8
		l-0.3-8.5c-0.1-1.6,1.2-3,2.7-3L101.4,184z"/>
	<path class="st2" d="M106.4,184.3c0,0.1,0,0.2,0,0.3l0.3,8.5c0.1,1.6-1.2,3-2.7,3l-4,0.1l-5,0.1"/>
	<path class="st2" d="M78.9,131.8l2.6-3.2c1-1.2,2.8-1.4,3.9-0.4l6.2,5.5c1.2,1.1,1.3,2.9,0.3,4l-5.5,6c-1,1.1-2.9,1.2-4,0.2
		l-6.1-5.2c-1.1-1-1.2-2.7-0.2-3.9L78.9,131.8z"/>
	<path class="st2" d="M92.3,136.6c-0.1-0.1-0.1-0.1-0.2-0.2l-6.2-5.5c-1.2-1-2.9-0.9-3.9,0.3l-2.7,3.1l-3.3,3.8"/>
	<path class="st2" d="M138.2,197.2l-8.6,0.7c0,0,0.6-4,0.5-8.7c-0.1-3.4-0.5-5.8-0.5-5.8l8-2.8"/>
	<path class="st2" d="M135.9,186.9c0.1,0.7-0.8,1.5-2,1.6c-1.2,0.2-2.2-0.3-2.3-1c-0.1-0.7,0.8-1.5,2-1.6
		C134.8,185.7,135.8,186.1,135.9,186.9z"/>
	<path class="st2" d="M136.3,192.4c0.1,0.7-0.8,1.5-1.9,1.7c-1.2,0.2-2.2-0.2-2.3-1c-0.1-0.7,0.8-1.5,1.9-1.7
		C135.2,191.3,136.2,191.7,136.3,192.4z"/>
	<path class="st2" d="M91.8,207.8l7,1.4c2.4,0.5,4.2,1.8,3.7,2.9l-1.8,4c-0.5,1-2.5,1.6-4.2,1.2l-11.8-3.5c-1.2-0.2-2.2-1.5-2.3-2.7
		c0,0,1.1-5.3,2.5-4.9L91.8,207.8z"/>
	<path class="st2" d="M88.5,207.1l6.3,1.5c2.2,0.4,4.2,1.8,4.2,2.8l-0.7,4c-0.4,1-2.2,1.1-4.2,0.8c0,0-5.9-1.5-9-2.1"/>
	<path class="st2" d="M34.6,157.4c6.7-11,22-7.6,33.9,8.1c11.9,15.6,16.2,37.5,9.5,48.4c-2.6,4.3-6.2,6.2-11,6.2"/>
	<path class="st2" d="M21.4,194.8l-0.7-3.3c-1-10.2,4.4-15.9,12-12.6c7.6,3.3,14.7,14.4,15.7,24.6c1,10.2-4.4,15.9-12,12.6
		c-1.9-0.8-3.5-1.9-5.3-3.6l-2.5-2.3"/>
	<path class="st2" d="M21.4,195.8c-1-7.7,2.6-13.1,8.3-10.9c5.7,2.2,11.1,10.4,12.1,18.1c1,7.7-2.9,12.3-8.6,10.1
		c-1.6-0.6-3-1.6-4.5-3"/>
	<path class="st2" d="M21.4,195.8c-0.9-7,2.6-11.1,7.8-9.1c5.1,2,10.1,9.4,10.9,16.4c0.9,7-2.6,11.1-7.8,9.1
		c-1.4-0.6-2.7-1.4-4.1-2.7"/>
	<path class="st4" d="M29.6,198.5l4.5-2.5c2.4-1.4,4.8-1.8,5.1-1.1c0.4,0.8-1.3,2.5-3.7,3.9l-9,5c-2.4,1.4-4.7,1.8-5.1,1.1
		c-0.4-0.8,1.3-2.5,3.7-3.9L29.6,198.5z"/>
	<path class="st2" d="M29.6,198.5l4.5-2.5c2.4-1.4,4.8-1.8,5.1-1.1c0.4,0.8-1.3,2.5-3.7,3.9l-9,5c-2.4,1.4-4.7,1.8-5.1,1.1
		c-0.4-0.8,1.3-2.5,3.7-3.9L29.6,198.5z"/>
	<path class="st4" d="M29.9,210.6l4.2,1.3c2.6,0.8,5,0.8,5.2,0c0.2-0.8-1.7-2.2-4.3-3.1l-8.3-2.7c-2.6-0.8-5-0.8-5.2,0
		c-0.2,0.8,1.7,2.2,4.4,3.1L29.9,210.6z"/>
	<path class="st2" d="M29.9,210.6l4.2,1.3c2.6,0.8,5,0.8,5.2,0c0.2-0.8-1.7-2.2-4.3-3.1l-8.3-2.7c-2.6-0.8-5-0.8-5.2,0
		c-0.2,0.8,1.7,2.2,4.4,3.1L29.9,210.6z"/>
	<path class="st4" d="M21.6,194.1l1.3-4.4c0.8-2.8,2.1-4.8,2.9-4.6c0.8,0.3,0.8,2.7,0,5.5l-2.5,8.7c-0.8,2.8-2.1,4.8-2.9,4.6
		c-0.8-0.3-0.8-2.7,0-5.5L21.6,194.1z"/>
	<path class="st2" d="M21.6,194.1l1.3-4.4c0.8-2.8,2.1-4.8,2.9-4.6c0.8,0.3,0.8,2.7,0,5.5l-2.5,8.7c-0.8,2.8-2.1,4.8-2.9,4.6
		c-0.8-0.3-0.8-2.7,0-5.5L21.6,194.1z"/>
	<line class="st2" x1="23.8" y1="179.8" x2="56.9" y2="110.9"/>
	<line class="st2" x1="42.6" y1="216.8" x2="115.6" y2="226.6"/>
	<line class="st2" x1="67.5" y1="101.2" x2="205.2" y2="24.4"/>
	<line class="st2" x1="129.1" y1="223" x2="266.9" y2="146"/>
	<path class="st2" d="M89.7,88.8c18.1-10.8,46.7,7.7,64,41c17.3,33.2,16.6,69.5-1.5,80.3c-0.2,0.1-0.4,0.2-0.6,0.3"/>
	<path class="st2" d="M86.3,90.7c18.1-10.8,47.6,7.6,64.9,40.8c17.3,33.2,16.6,69.5-1.5,80.3c-0.2,0.1-0.4,0.2-0.6,0.3"/>
	<path class="st2" d="M83.9,92.3c18.1-10.8,47.2,7.6,64.5,40.8c17.3,33.2,16.6,69.5-1.5,80.3c-0.2,0.1-0.4,0.2-0.6,0.3"/>
	<path class="st2" d="M81.5,93.6c18.1-10.8,47.2,7.6,64.5,40.8c17.3,33.2,16.6,69.5-1.5,80.3c-0.2,0.1-0.4,0.2-0.6,0.3"/>
	<path class="st2" d="M79,95c18.1-10.8,47.2,7.6,64.5,40.8c17.3,33.2,16.6,69.5-1.5,80.3c-0.2,0.1-0.4,0.2-0.6,0.3"/>
	<path class="st2" d="M76.3,96.5c18.1-10.8,47.2,7.6,64.5,40.8c17.3,33.2,16.6,69.5-1.5,80.3c-0.2,0.1-0.4,0.2-0.6,0.3"/>
	<path class="st2" d="M73.8,97.9c18.1-10.8,47.2,7.6,64.5,40.8c17.3,33.2,16.6,69.5-1.5,80.3c-0.2,0.1-0.4,0.2-0.6,0.3"/>
	<path class="st2" d="M71.4,99.2c18.1-10.8,47.2,7.6,64.5,40.8c17.3,33.2,16.6,69.5-1.5,80.3c-0.2,0.1-0.4,0.2-0.6,0.3"/>
	<path class="st2" d="M69,100.5c18.1-10.8,47.4,7.6,64.6,40.8c17.3,33.2,16.6,69.5-1.5,80.3c-0.2,0.1-0.4,0.2-0.6,0.3"/>
	<path class="st2" d="M128.2,97.6c6.3,5.1,11.5,10.6,16.9,18.1l-22.2,12.9c-5.4-7.6-10.9-13.4-17.3-18.5L128.2,97.6"/>
	<path class="st2" d="M165.9,171.8c-0.5-8.3-2.1-16.4-5.1-25.3l-22.4,12.4c3,8.9,4.8,17.1,5.4,25.4L165.9,171.8"/>
	<line class="st2" x1="130.5" y1="99.3" x2="246.1" y2="34.7"/>
	<path class="st2" d="M205.1,24.4c18.1-10.8,47.2,7.6,64.5,40.8c17.3,33.2,16.6,69.5-1.5,80.3c-0.2,0.1-1.9,0.8-2.1,0.9"/>
	<line class="st2" x1="161.6" y1="148.9" x2="277.5" y2="84.4"/>
	<path class="st2" d="M202.1,26.1c18.1-10.8,47.2,7.6,64.5,40.8c17.3,33.2,17.2,69.3-1.6,80.1c-0.2,0.1-0.4,0.2-0.6,0.3"/>
	<path class="st2" d="M215.6,118.7c3.9,12.4,5.5,23.3,4.7,34l-21.7,12.1c0.8-10.6-0.8-21.6-4.7-34"/>
	<path class="st2" d="M143.9,58.5C155,51.9,170,55.9,185,68.8"/>
	<path class="st2" d="M221.9,118.7c7.9,27.6,3.6,50.7-10.9,58.8"/>
	<path class="st2" d="M148.6,55.9c10.5-6.3,23.8-3.6,38.1,7.7"/>
	<path class="st2" d="M190.6,132.6c3.9,12.4,5.5,23.3,4.7,34L166.3,183"/>
	<line class="st2" x1="162.3" y1="80.5" x2="162.3" y2="80.5"/>
	<path class="st2" d="M121.8,70.8"/>
	<line class="st2" x1="216.2" y1="46.9" x2="216.8" y2="46.5"/>
	<line class="st2" x1="186.7" y1="63.6" x2="216.2" y2="46.9"/>
	<path class="st2" d="M225.9,119.5c6.4,24.9,2.7,47.6-11,55.7c-0.2,0.1-0.4,0.2-0.6,0.3"/>
	<path class="st2" d="M151.9,54c10-6,23.4-3,36.3,6.4"/>
	<path class="st2" d="M229.3,117.6c6.4,24.9,2.7,47.6-11,55.7c-0.2,0.1-0.4,0.2-0.6,0.3"/>
	<path class="st2" d="M155.3,52.2c10-6,23.4-3,36.3,6.4"/>
	<path class="st2" d="M232.6,115.7c6.4,24.9,2.7,47.6-11,55.7c-0.2,0.1-0.4,0.2-0.6,0.3"/>
	<path class="st2" d="M158.6,50.3c10-6,23.4-3,36.3,6.4"/>
	<path class="st2" d="M236,113.9c6.4,24.9,2.7,47.6-11,55.7c-0.2,0.1-0.4,0.2-0.6,0.3"/>
	<path class="st2" d="M162,48.4c10-6,23.4-3,36.3,6.4"/>
	<path class="st2" d="M239.6,111.8c6.4,24.9,2.7,47.6-11,55.7c-0.2,0.1-0.4,0.2-0.6,0.3"/>
	<path class="st2" d="M165.6,46.4c10-6,23.4-3,36.3,6.4"/>
	<path class="st2" d="M243,110c6.4,24.9,2.7,47.6-11,55.7c-0.2,0.1-0.4,0.2-0.6,0.3"/>
	<path class="st2" d="M169,44.5c10-6,23.4-3,36.3,6.4"/>
	<path class="st2" d="M246.3,108.1c6.4,24.9,2.7,47.6-11,55.7c-0.2,0.1-0.4,0.2-0.6,0.3"/>
	<path class="st2" d="M172.3,42.7c10-6,23.4-3,36.3,6.4"/>
	<path class="st2" d="M249.7,106.2c6.4,24.9,2.7,47.6-11,55.7c-0.2,0.1-0.4,0.2-0.6,0.3"/>
	<path class="st2" d="M175.7,40.8c10-6,23.4-3,36.3,6.4"/>
	<path class="st2" d="M252.7,101.6c7.3,25.9,3.8,49.8-10.3,58.3c-0.2,0.1-0.4,0.2-0.6,0.3"/>
	<path class="st2" d="M179.4,38.7c10.4-6.2,24.3-2.8,37.6,7.4"/>
	<polyline class="st2" points="176,172.2 173.9,171.6 173,162.2 185.1,155.5 187.1,156.2 	"/>
	<polygon class="st2" points="175.1,162.8 187.1,156.2 188,165.6 176,172.2 	"/>
	<polyline class="st9" points="173.5,166.3 178.2,166.4 174.8,169 	"/>
	<path class="st9" d="M167,167.3c3.8-1.4,6.9-1.6,7.4-0.3c0.4,1.3,0.1,0.3,0.4,1.3c0.3,1-2.2,3.6-5.8,5"/>
	<path class="st9" d="M169.4,169.8c0.5,1.7,0.3,3.3-0.4,3.5c-0.8,0.3-1.9-0.8-2.4-2.5s-0.3-3.3,0.4-3.5
		C167.8,167,168.8,168.2,169.4,169.8z"/>
	<polyline class="st10" points="189.4,162.8 185.1,163.1 188.4,160.2 	"/>
	<path class="st10" d="M196.3,161.5c-3.7,1.6-6.8,2-7.3,0.7c-0.5-1.3-0.1-0.3-0.5-1.3c-0.4-1,2-3.7,5.5-5.3"/>
	<path class="st10" d="M195.9,158.2c0.6,1.6,0.8,3.1,0.4,3.3c-0.4,0.2-1.3-1-2-2.6c-0.6-1.6-0.8-3.1-0.4-3.3
		C194.3,155.4,195.2,156.6,195.9,158.2z"/>
	<polyline class="st9" points="181.4,157.7 181.5,162.2 178.9,158.7 	"/>
	<path class="st9" d="M180.4,150.5c1.4,3.9,1.7,7.2,0.4,7.7s-0.3,0.1-1.3,0.5c-1,0.4-3.5-2.1-4.9-5.9"/>
	<path class="st9" d="M180.4,150.5c0.3,0.8-0.8,2-2.3,2.6c-1.6,0.6-3.1,0.5-3.4-0.3c-0.3-0.8,0.8-2,2.3-2.6
		C178.6,149.5,180.1,149.6,180.4,150.5z"/>
	<polyline class="st9" points="185.1,169.7 182.4,166.2 182.6,170.6 	"/>
	<path class="st9" d="M188.7,175.9c-1.3-4-3.1-6.6-4.4-6.1c-1.3,0.5-0.3,0.1-1.3,0.5c-1,0.4-1.5,4.1-0.3,7.9"/>
	<path class="st9" d="M188.7,175.9c0.1,0.3-1.1,1.1-2.7,1.7c-1.6,0.6-3,0.8-3.1,0.5c-0.1-0.3,1.1-1.1,2.7-1.7
		C187.2,175.8,188.6,175.6,188.7,175.9z"/>
	<polyline class="st2" points="119.4,80.1 118.6,82 124.8,86.7 136.8,80 137.6,78.1 	"/>
	<polygon class="st2" points="125.6,84.8 137.6,78.1 131.3,73.4 119.4,80.1 	"/>
	<polyline class="st9" points="122.7,84.4 125.5,81.1 121.5,82.6 	"/>
	<path class="st9" d="M117.8,89.5c3.3-2.3,5.4-4.7,4.8-5.6c-0.6-1-0.2-0.2-0.6-1c-0.5-0.7-3.8,0-7,2.2"/>
	<path class="st9" d="M117.6,86.4c0.8,1.2,0.8,2.6,0.2,3.1c-0.7,0.5-1.9-0.1-2.7-1.3c-0.8-1.2-0.8-2.6-0.2-3.1
		C115.6,84.6,116.8,85.2,117.6,86.4z"/>
	<polyline class="st9" points="134.3,73.4 131.7,77.2 135.6,75.4 	"/>
	<path class="st9" d="M138.8,68.4c-3.2,2.5-5.1,5-4.4,5.9c0.7,0.9,0,0.4,0.7,0.9c1,0.7,4-0.3,6.9-2.7"/>
	<path class="st10" d="M141.1,69.9c-0.9-1.1-1.9-1.8-2.3-1.5c-0.4,0.3,0.1,1.5,0.9,2.6c0.9,1.1,1.9,1.8,2.3,1.5
		C142.4,72.1,142,71,141.1,69.9z"/>
	<polyline class="st9" points="134.6,81.7 131.3,80 132.7,83.5 	"/>
	<path class="st9" d="M139.5,85c-2.2-2.6-4.6-3.9-5.6-3c-1,0.9-0.3,0.2-1,0.9c-0.8,0.7-0.1,3.8,2,6.3"/>
	<path class="st9" d="M139.5,85c0.5,0.5-0.2,1.9-1.4,3.1c-1.2,1.2-2.6,1.7-3.1,1.1c-0.5-0.5,0.2-1.9,1.4-3.1
		C137.6,85,139,84.5,139.5,85z"/>
	<polyline class="st10" points="126.7,73.8 127.3,77.6 124.4,75.3 	"/>
	<path class="st2" d="M251.2,39.5c8.6-5.2,22.6,3.5,30.9,19.3c8.2,15.8,8,33-0.7,38.3c-0.2,0.1-0.5,0.3-0.7,0.4"/>
	<polygon class="st2" points="282.1,110.2 298.7,104.4 299.2,107.2 282.1,113.2 	"/>
	<path class="st4" d="M321.3,105.2c0.9,1.8-2.5,5.5-7.5,8.3c-5,2.8-9.9,3.7-10.8,1.9s2.5-5.5,7.6-8.3
		C315.5,104.3,320.4,103.5,321.3,105.2z"/>
	<path class="st2" d="M321.3,105.2c0.9,1.8-2.5,5.5-7.5,8.3c-5,2.8-9.9,3.7-10.8,1.9s2.5-5.5,7.6-8.3
		C315.5,104.3,320.4,103.5,321.3,105.2z"/>
	<line class="st2" x1="314.9" y1="115.9" x2="313.7" y2="113.5"/>
	<path class="st4" d="M301.7,113c0.9,1.8-2.5,5.5-7.5,8.3c-5,2.8-9.9,3.7-10.8,1.9s2.5-5.5,7.6-8.3
		C295.9,112.1,300.8,111.3,301.7,113z"/>
	<path class="st2" d="M301.7,113c0.9,1.8-2.5,5.5-7.5,8.3c-5,2.8-9.9,3.7-10.8,1.9s2.5-5.5,7.6-8.3
		C295.9,112.1,300.8,111.3,301.7,113z"/>
	<line class="st2" x1="295.4" y1="123.8" x2="294.1" y2="121.4"/>
	<path class="st4" d="M320.8,111.1c0.9,1.8-2.5,5.5-7.5,8.3s-9.9,3.7-10.8,1.9c-0.9-1.8,2.5-5.5,7.6-8.3
		C315.1,110.2,319.9,109.4,320.8,111.1z"/>
	<path class="st2" d="M320.8,111.1c0.9,1.8-2.5,5.5-7.5,8.3s-9.9,3.7-10.8,1.9c-0.9-1.8,2.5-5.5,7.6-8.3
		C315.1,110.2,319.9,109.4,320.8,111.1z"/>
	<line class="st2" x1="314.5" y1="121.8" x2="313.3" y2="119.4"/>
	<path class="st4" d="M301.2,118.9c0.9,1.8-2.5,5.5-7.6,8.3s-9.9,3.7-10.8,1.9c-0.9-1.8,2.5-5.5,7.6-8.3
		C295.5,118,300.4,117.2,301.2,118.9z"/>
	<path class="st2" d="M301.2,118.9c0.9,1.8-2.5,5.5-7.6,8.3s-9.9,3.7-10.8,1.9c-0.9-1.8,2.5-5.5,7.6-8.3
		C295.5,118,300.4,117.2,301.2,118.9z"/>
	<line class="st2" x1="294.9" y1="129.7" x2="293.7" y2="127.3"/>
	<line class="st2" x1="311.2" y1="112.4" x2="299.2" y2="107.2"/>
	<line class="st2" x1="310.5" y1="107.1" x2="299.2" y2="107.2"/>
	<line class="st2" x1="291.2" y1="120.4" x2="299.2" y2="107.2"/>
	<line class="st2" x1="299.2" y1="107.2" x2="290.1" y2="115.4"/>
	<line class="st2" x1="127.1" y1="96.5" x2="155.8" y2="80.2"/>
	<path class="st2" d="M161.6,148.9l4.8-13.9c-5.7-13.8-12.8-25.1-22.3-35l-13.7-0.7"/>
	<path class="st10" d="M124.9,68c1.8,2.9,2.4,5.6,1.2,6.4c-1.1,0.8-0.3,0.2-1.1,0.8c-0.9,0.6-3.6-0.9-5.2-3.7"/>
	<path class="st10" d="M124.9,68c0.1,0.2-0.9,1.2-2.3,2.1c-1.4,0.9-2.7,1.5-2.9,1.3c-0.1-0.2,0.9-1.2,2.3-2.1
		C123.5,68.3,124.7,67.8,124.9,68z"/>
	<line class="st2" x1="125.6" y1="84.8" x2="124.8" y2="86.7"/>
	<line class="st2" x1="173" y1="162.2" x2="175.1" y2="162.8"/>
	<path class="st9" d="M22.9,204c0.5,0.9-0.5,2.4-2.2,3.3c-1.7,0.9-3.4,0.9-3.9,0s0.5-2.4,2.2-3.3S22.5,203.1,22.9,204z"/>
</g>
</svg>
