<?xml version="1.0" encoding="UTF-8" ?>
<!DOCTYPE svg PUBLIC "-//W3C//DTD SVG 1.1//EN" "http://www.w3.org/Graphics/SVG/1.1/DTD/svg11.dtd">
<svg width="994pt" height="1006pt" viewBox="0 0 994 1006" version="1.1" xmlns="http://www.w3.org/2000/svg">
<path fill="#ffffff" d=" M 0.00 0.00 L 994.00 0.00 L 994.00 1006.00 L 0.00 1006.00 L 0.00 0.00 Z" />
<path fill="#000000" d=" M 617.82 18.76 C 622.66 16.91 627.93 17.61 632.99 17.54 C 643.32 17.65 652.64 26.71 652.79 37.08 C 652.87 45.39 652.82 53.71 652.82 62.02 C 652.92 65.95 651.35 69.62 649.65 73.08 C 655.91 73.22 662.19 72.89 668.45 73.30 C 668.57 75.63 668.55 77.97 668.39 80.30 C 659.84 80.54 651.28 80.35 642.72 80.41 C 642.72 86.05 642.72 91.70 642.72 97.35 C 646.60 98.61 651.77 97.52 654.39 101.23 C 650.44 101.28 646.59 100.30 642.74 99.56 C 642.73 106.86 642.64 114.17 642.80 121.47 C 648.50 114.45 653.13 106.66 658.27 99.24 C 660.80 95.66 662.96 91.63 666.64 89.05 C 665.62 87.26 664.65 85.45 663.70 83.62 C 662.15 83.55 660.61 83.48 659.08 83.41 C 659.10 82.89 659.14 81.85 659.16 81.33 C 665.21 81.02 671.37 81.98 677.32 80.54 C 684.25 80.22 691.21 80.51 698.15 80.41 C 698.14 86.32 698.16 92.23 698.14 98.14 C 692.15 98.19 686.16 98.06 680.17 98.25 C 684.29 101.33 688.52 104.27 692.48 107.56 C 694.52 108.99 693.54 111.73 693.56 113.80 C 703.99 119.05 714.57 124.04 724.75 129.78 C 717.06 141.38 709.44 153.05 701.21 164.27 C 692.56 156.65 684.38 148.52 675.95 140.67 C 673.91 141.84 671.64 143.26 669.23 142.24 C 659.89 138.87 651.49 133.42 642.74 128.81 C 642.69 153.72 642.74 178.63 642.72 203.54 C 643.37 203.53 644.67 203.52 645.32 203.51 C 645.31 200.74 645.31 197.97 645.60 195.21 C 656.04 198.61 666.30 202.56 676.62 206.32 C 676.64 204.40 676.66 202.49 676.68 200.58 C 677.91 200.58 679.15 200.58 680.39 200.58 C 680.39 198.14 680.39 195.70 680.39 193.26 C 685.79 193.26 691.19 193.25 696.60 193.26 C 696.58 195.65 696.58 198.03 696.57 200.42 C 697.57 200.54 698.57 200.66 699.59 200.78 C 699.51 205.39 699.55 210.00 699.56 214.60 C 700.79 214.60 702.03 214.60 703.28 214.60 C 703.27 218.02 703.27 221.45 703.28 224.88 C 684.80 224.88 666.33 224.88 647.86 224.88 C 647.84 227.89 647.84 230.91 647.86 233.93 C 684.67 258.17 709.02 299.66 713.79 343.31 C 725.62 343.34 737.48 343.85 749.18 345.71 C 757.27 347.11 765.58 348.91 772.60 353.39 C 776.95 356.12 780.46 360.74 780.60 366.03 C 781.00 371.42 777.96 376.57 773.69 379.67 C 767.12 384.54 759.01 386.61 751.14 388.23 C 738.30 390.63 725.20 391.12 712.17 391.41 C 711.96 395.95 710.60 400.23 709.22 404.53 C 713.62 403.58 717.80 400.91 722.43 401.56 C 717.99 406.31 711.76 408.77 706.87 412.95 C 703.61 420.84 700.89 429.05 696.21 436.28 C 683.43 459.97 664.25 480.23 641.01 493.87 C 639.60 494.69 637.99 495.04 636.45 495.49 C 638.12 491.68 642.55 490.69 645.67 488.41 C 643.69 488.32 641.72 488.26 639.76 488.21 C 639.76 466.75 639.82 445.29 639.71 423.84 C 638.27 423.83 636.85 423.83 635.43 423.83 C 635.33 434.73 635.41 445.64 635.38 456.54 C 617.01 456.52 598.64 456.53 580.27 456.53 C 580.28 461.23 580.28 465.93 580.28 470.64 C 600.01 470.66 619.75 470.58 639.49 470.68 C 639.31 471.16 638.97 472.12 638.80 472.60 C 638.18 472.74 636.96 473.01 636.35 473.14 C 634.93 501.77 634.10 530.41 632.72 559.03 C 632.69 561.41 633.98 563.60 633.85 566.01 C 633.78 571.90 633.58 577.83 635.05 583.60 C 642.58 577.65 653.05 577.87 661.85 580.47 C 660.46 577.04 660.39 573.38 660.66 569.75 C 667.18 569.62 673.72 569.60 680.25 569.77 C 682.16 578.06 674.90 584.59 675.80 592.76 C 678.01 592.91 680.22 593.08 682.43 593.32 C 682.54 595.30 682.59 597.30 682.65 599.30 C 702.10 591.20 721.41 582.72 740.92 574.77 C 754.59 572.84 768.34 571.52 782.03 569.75 C 786.83 569.18 791.81 569.13 796.34 567.25 C 811.88 561.14 827.47 555.15 843.01 549.04 C 845.91 547.72 849.15 548.30 852.22 548.35 C 852.26 550.05 852.28 551.76 852.33 553.48 C 855.52 543.60 863.75 536.34 872.85 531.89 C 882.03 527.06 892.31 524.96 902.51 523.62 C 902.49 521.64 902.48 519.67 902.49 517.71 C 907.16 517.75 911.83 517.71 916.51 517.74 C 916.50 519.64 916.51 521.54 916.51 523.45 C 930.29 524.18 944.30 527.46 956.02 535.00 C 962.95 539.64 969.31 546.17 971.17 554.56 C 973.03 562.44 969.94 570.76 964.52 576.54 C 955.92 585.94 943.53 590.82 931.31 593.44 C 914.35 596.80 896.39 595.94 880.08 590.03 C 870.37 586.41 860.90 580.71 855.25 571.77 C 852.45 568.74 852.58 564.43 851.48 560.69 C 848.85 560.77 846.15 560.63 843.64 561.54 C 827.55 567.64 811.65 574.27 795.52 580.23 C 779.72 582.42 763.86 584.19 748.03 586.13 C 746.65 586.34 745.25 586.51 743.97 587.06 C 723.48 595.96 703.18 605.33 682.60 614.01 C 682.60 618.99 682.48 623.97 682.60 628.95 C 683.30 631.13 685.41 632.58 686.48 634.62 C 688.27 636.76 686.35 639.80 687.96 642.05 C 721.93 706.41 755.92 770.77 789.87 835.15 C 790.68 837.73 794.39 837.20 795.28 839.70 C 798.17 845.66 800.88 851.71 803.83 857.65 C 803.24 858.38 802.65 859.12 802.06 859.87 C 811.31 876.38 820.53 892.91 829.80 909.40 C 829.98 913.71 829.34 918.02 829.17 922.34 C 835.46 923.58 838.14 930.45 843.31 933.62 C 853.94 933.82 864.58 933.63 875.22 933.70 C 875.21 937.89 875.22 942.07 875.22 946.27 C 872.22 946.31 869.23 946.12 866.25 946.38 C 861.89 948.55 858.32 952.08 853.90 954.18 C 851.98 954.40 850.06 954.31 848.16 954.35 C 847.95 961.46 849.49 969.62 844.58 975.58 C 839.41 981.92 830.59 982.82 822.97 983.14 C 814.92 982.87 805.75 982.34 799.74 976.24 C 794.15 970.58 794.79 961.96 794.85 954.63 C 788.88 953.89 785.01 948.68 779.75 946.38 C 777.11 946.14 774.47 946.29 771.84 946.28 C 771.83 942.08 771.82 937.89 771.85 933.71 C 782.73 933.67 793.62 933.74 804.50 933.68 C 807.41 930.39 810.19 927.00 813.17 923.77 C 811.67 922.98 810.06 922.35 808.73 921.29 C 799.16 903.81 789.85 886.16 780.14 868.76 C 771.28 864.38 762.93 859.01 754.08 854.64 C 750.83 855.00 747.41 856.16 744.25 854.82 C 740.43 853.66 737.75 850.36 734.01 849.11 C 713.46 843.31 692.90 837.55 672.36 831.69 C 669.91 830.76 667.39 831.80 664.94 832.07 C 661.10 832.53 657.22 833.00 653.36 832.74 C 649.15 830.68 645.86 826.89 641.21 825.73 C 602.47 815.13 563.78 804.30 525.03 793.71 C 514.36 793.84 503.67 793.78 493.00 793.82 C 487.57 794.27 482.13 794.33 476.69 794.35 C 476.69 846.71 476.68 899.07 476.69 951.44 C 472.74 951.44 468.79 951.44 464.85 951.43 C 464.84 948.47 464.84 945.51 464.85 942.56 C 442.26 942.55 419.68 942.56 397.10 942.55 C 397.10 945.50 397.10 948.46 397.08 951.42 C 393.13 951.44 389.18 951.44 385.23 951.43 C 385.22 906.74 385.26 862.05 385.21 817.36 C 375.04 820.20 364.86 822.98 354.68 825.78 C 350.09 826.96 346.82 830.66 342.68 832.74 C 336.81 833.22 331.01 831.78 325.22 831.35 C 304.66 836.96 284.20 842.95 263.65 848.62 C 257.95 849.73 254.24 855.79 248.07 855.44 C 245.49 855.70 242.74 853.79 240.37 855.31 C 232.20 859.80 224.15 864.52 215.87 868.79 C 206.14 886.18 196.84 903.83 187.27 921.31 C 185.66 922.65 183.58 923.18 181.70 924.01 C 184.81 927.29 188.04 930.45 191.21 933.68 C 202.00 933.73 212.78 933.68 223.57 933.70 C 223.58 937.89 223.58 942.08 223.57 946.28 C 220.50 946.32 217.41 946.09 214.35 946.41 C 210.01 948.67 206.42 952.21 201.94 954.22 C 200.12 954.38 198.28 954.32 196.46 954.35 C 196.27 961.51 197.70 969.76 192.71 975.70 C 187.19 982.25 177.92 982.96 169.96 983.14 C 161.83 982.76 152.43 981.89 146.94 975.07 C 142.19 969.33 143.45 961.50 143.37 954.63 C 137.45 954.07 133.51 949.12 128.49 946.54 C 125.55 945.95 122.51 946.38 119.54 946.28 C 119.53 942.08 119.53 937.89 119.54 933.71 C 130.59 933.68 141.63 933.73 152.68 933.68 C 155.55 930.51 158.26 927.21 161.12 924.04 C 162.51 922.27 164.96 922.83 166.91 922.57 C 167.12 917.10 164.33 910.86 168.04 906.09 C 176.74 890.75 185.29 875.32 193.90 859.93 C 193.50 859.02 191.90 858.29 192.48 857.21 C 195.35 850.84 198.49 844.60 201.41 838.26 C 202.93 837.51 205.16 837.57 205.80 835.71 C 239.87 771.18 273.98 706.67 308.03 642.12 C 308.59 641.06 309.38 639.58 310.82 640.19 C 311.09 641.52 310.25 642.67 309.72 643.82 C 276.95 705.71 244.37 767.70 211.55 829.56 C 218.38 830.91 225.16 833.63 230.07 838.74 C 246.21 808.15 262.46 777.61 278.52 746.97 C 276.81 744.11 273.21 742.64 270.95 740.11 C 272.43 737.39 274.22 734.85 276.11 732.40 C 278.81 733.77 281.30 735.52 283.79 737.25 C 291.08 723.10 298.69 709.12 306.02 695.00 C 309.00 684.87 316.34 676.76 319.81 666.84 C 324.11 662.24 326.22 656.23 329.47 650.94 C 324.62 648.84 320.01 646.24 315.59 643.38 C 313.26 641.93 311.17 639.71 310.59 636.98 C 311.37 633.69 314.51 631.69 315.72 628.71 C 315.64 623.75 316.38 618.48 315.35 613.69 C 295.97 604.99 276.47 596.53 257.08 587.85 C 252.57 585.67 247.44 585.83 242.59 585.15 C 229.57 583.41 216.50 582.12 203.51 580.20 C 187.67 574.28 172.00 567.87 156.22 561.77 C 153.48 560.65 150.50 560.74 147.60 560.69 C 147.58 562.60 147.57 564.52 147.55 566.45 C 146.34 566.45 145.12 566.45 143.91 566.47 C 133.57 581.89 114.26 587.86 96.65 589.67 C 96.65 591.73 96.65 593.80 96.65 595.87 C 91.98 595.87 87.30 595.86 82.63 595.87 C 82.63 593.87 82.62 591.88 82.60 589.89 C 67.99 589.27 53.07 585.54 41.03 576.97 C 33.61 571.68 27.41 563.42 27.43 553.97 C 27.50 544.30 34.02 536.02 41.66 530.72 C 54.84 521.69 71.18 518.04 87.00 518.21 C 102.68 517.91 118.82 521.34 132.11 529.93 C 136.47 532.76 140.12 536.52 143.33 540.59 C 144.74 540.58 146.15 540.58 147.57 540.59 C 147.57 543.12 147.57 545.66 147.59 548.20 C 150.18 548.31 152.88 547.86 155.38 548.76 C 172.14 555.21 188.81 561.91 205.62 568.22 C 219.61 570.38 233.75 571.56 247.79 573.43 C 252.24 574.13 256.94 573.91 261.10 575.83 C 279.31 583.60 297.55 591.28 315.77 599.01 C 315.79 597.03 315.80 595.06 315.80 593.10 C 318.01 592.96 320.22 592.86 322.44 592.77 C 323.08 587.56 320.23 583.06 318.50 578.37 C 317.37 575.64 317.84 572.63 317.85 569.77 C 324.17 569.65 330.50 569.55 336.82 569.77 C 338.69 572.83 337.28 577.13 336.28 580.42 C 344.98 578.03 355.42 577.49 362.80 583.55 C 363.52 580.32 364.34 577.02 366.52 574.43 C 367.05 569.98 366.36 565.42 367.41 561.00 C 367.63 546.94 367.41 532.86 367.51 518.79 C 361.42 518.80 355.56 516.96 349.79 515.22 C 338.19 511.34 327.19 505.73 317.12 498.81 C 314.97 497.07 312.09 497.80 309.55 497.57 C 301.26 474.60 294.07 451.24 285.62 428.33 C 272.79 390.57 260.00 352.80 247.11 315.07 C 246.42 312.80 245.33 310.59 245.23 308.19 C 248.65 302.70 252.72 297.64 256.37 292.30 C 253.97 283.56 252.89 273.28 258.52 265.51 C 265.41 256.18 273.50 247.82 281.05 239.03 C 283.75 236.12 285.90 232.42 289.69 230.77 C 293.25 229.11 297.25 229.68 301.03 229.77 C 306.00 223.40 312.85 218.84 319.67 214.67 C 333.75 206.55 349.07 200.52 364.95 197.00 C 369.38 196.02 373.90 195.43 378.29 194.25 C 410.03 182.07 444.57 175.43 478.55 179.77 C 507.62 183.96 534.31 197.56 558.85 213.12 C 557.38 203.23 555.32 193.43 553.44 183.62 C 550.01 183.63 546.59 183.62 543.16 183.64 C 543.16 181.67 543.16 179.70 543.16 177.74 C 520.11 177.75 497.06 177.49 474.00 177.44 C 457.54 177.10 441.06 177.62 424.61 176.78 C 419.59 160.98 418.64 144.34 417.54 127.92 C 401.85 124.68 386.47 120.00 370.74 116.98 C 372.67 120.17 376.92 123.14 375.50 127.34 C 374.00 129.34 371.50 130.18 369.44 131.47 C 362.33 135.27 355.41 139.58 347.77 142.26 C 345.36 143.22 343.05 141.95 341.08 140.66 C 332.64 148.52 324.44 156.63 315.80 164.27 C 307.54 153.07 299.94 141.36 292.24 129.76 C 302.44 124.10 312.96 118.97 323.44 113.84 C 323.44 111.75 322.41 108.98 324.52 107.54 C 332.14 101.41 340.14 95.75 348.23 90.25 C 348.23 88.60 348.24 86.95 348.25 85.29 C 345.86 85.32 343.46 85.14 341.09 85.48 C 337.77 88.38 334.68 91.56 331.69 94.79 C 330.54 95.83 330.58 97.43 330.31 98.83 C 323.76 98.75 317.20 98.81 310.65 98.80 C 310.65 92.92 310.67 87.04 310.64 81.16 C 316.65 81.24 322.67 81.07 328.68 81.21 C 330.41 81.17 331.30 83.39 333.07 83.23 C 337.56 83.28 342.06 83.36 346.55 83.20 C 347.17 82.82 348.41 82.07 349.03 81.70 C 344.92 80.76 340.67 81.25 336.50 81.17 C 336.49 77.95 336.49 74.74 336.51 71.53 C 413.75 71.54 491.00 71.53 568.24 71.54 C 568.24 68.89 568.23 66.24 568.19 63.59 C 566.15 65.47 564.22 67.69 561.34 68.20 C 563.23 64.03 567.17 61.38 570.25 58.14 C 571.59 56.26 573.71 57.86 574.81 59.13 C 577.34 61.88 580.77 64.16 581.86 67.92 C 579.31 67.13 577.50 65.14 575.59 63.42 C 575.57 66.12 575.57 68.83 575.56 71.54 C 580.72 71.54 585.88 71.51 591.04 71.52 C 593.52 71.24 595.52 73.21 598.00 73.08 C 601.17 73.19 604.35 73.09 607.53 73.07 C 605.98 69.92 604.33 66.62 604.40 63.01 C 604.36 54.66 604.41 46.31 604.37 37.96 C 604.09 29.56 609.99 21.56 617.82 18.76 Z" />
<path fill="#ffffff" d=" M 621.30 20.12 C 628.27 19.48 636.09 18.69 642.26 22.73 C 647.32 26.03 650.69 31.93 650.64 38.01 C 650.64 46.01 650.66 54.01 650.63 62.00 C 650.68 67.62 647.54 72.89 643.20 76.27 C 639.94 77.68 636.81 80.06 633.09 79.66 C 629.12 79.58 625.16 79.77 621.21 79.55 C 613.09 77.93 606.53 70.36 606.47 62.00 C 606.42 54.00 606.44 45.99 606.45 37.99 C 606.47 29.56 612.96 21.63 621.30 20.12 Z" />
<path fill="#fefefe" d=" M 571.23 60.16 C 571.58 60.13 572.27 60.08 572.62 60.06 C 572.42 64.00 573.22 68.10 571.90 71.92 C 570.67 68.11 571.31 64.08 571.23 60.16 Z" />
<path fill="#ffffff" d=" M 339.46 73.73 C 423.57 73.74 507.69 73.73 591.80 73.73 C 591.79 75.44 591.79 77.16 591.79 78.87 C 582.21 78.59 572.63 78.99 563.05 78.84 C 561.43 78.90 560.09 77.88 558.68 77.28 C 553.94 74.86 548.05 74.89 543.32 77.32 C 541.90 77.91 540.55 78.89 538.95 78.84 C 479.65 78.90 420.35 78.78 361.04 78.87 C 359.14 79.37 358.33 77.44 357.21 76.35 C 356.80 76.96 355.99 78.20 355.58 78.81 C 350.21 78.97 344.84 78.77 339.47 78.88 C 339.46 77.16 339.46 75.44 339.46 73.73 Z" />
<path fill="#ffffff" d=" M 593.88 75.67 C 598.51 74.94 603.23 75.29 607.90 75.27 C 609.53 75.07 610.59 76.48 611.82 77.30 C 606.37 77.44 600.89 77.71 595.47 77.26 C 595.07 76.86 594.28 76.07 593.88 75.67 Z" />
<path fill="#ffffff" d=" M 647.57 75.30 C 653.59 75.20 659.60 75.26 665.62 75.26 C 665.61 75.81 665.59 76.91 665.58 77.46 C 658.96 77.44 652.34 77.47 645.72 77.44 C 646.33 76.72 646.95 76.01 647.57 75.30 Z" />
<path fill="#fefefe" d=" M 545.24 78.43 C 549.02 77.41 553.01 77.44 556.80 78.42 C 552.96 78.90 549.07 78.90 545.24 78.43 Z" />
<path fill="#ffffff" d=" M 583.79 81.18 C 587.98 81.23 592.19 81.31 596.32 80.52 C 602.17 80.24 608.03 80.50 613.88 80.41 C 613.88 84.38 613.88 88.35 613.89 92.33 C 604.33 90.59 594.72 89.04 585.19 87.21 C 584.09 85.44 584.34 83.15 583.79 81.18 Z" />
<path fill="#ffffff" d=" M 350.40 81.18 C 352.45 81.17 354.49 81.17 356.55 81.17 C 356.55 86.02 356.59 90.87 356.51 95.72 C 354.63 93.24 352.42 91.03 350.47 88.63 C 350.29 86.15 350.42 83.66 350.40 81.18 Z" />
<path fill="#ffffff" d=" M 358.71 81.22 C 379.80 81.21 400.90 80.99 421.98 81.33 C 421.51 82.62 421.11 83.96 420.41 85.15 C 399.84 88.37 379.33 92.08 358.71 94.94 C 358.73 90.37 358.73 85.79 358.71 81.22 Z" />
<path fill="#ffffff" d=" M 423.87 81.27 C 461.80 81.07 499.73 81.26 537.66 81.13 C 535.09 84.58 532.91 88.57 533.15 93.00 C 532.65 99.99 536.92 106.93 543.31 109.76 C 550.68 113.41 560.57 111.16 565.33 104.35 C 566.28 103.25 566.77 101.60 568.24 101.05 C 573.07 112.64 573.71 125.61 571.87 137.90 C 570.23 146.54 567.26 155.54 560.57 161.61 C 557.61 164.40 553.25 166.12 549.23 164.87 C 545.15 163.94 542.61 160.39 539.33 158.13 C 540.10 154.94 540.69 151.55 539.66 148.34 C 538.73 143.93 535.12 140.75 531.33 138.69 C 532.69 137.28 533.99 135.81 535.22 134.27 C 540.56 134.25 545.90 134.26 551.24 134.26 C 551.26 133.51 551.29 132.02 551.30 131.27 C 553.47 131.29 555.65 131.30 557.83 131.32 C 557.84 126.66 557.81 122.01 557.86 117.35 C 554.76 117.56 551.75 117.01 548.87 115.91 C 544.73 115.57 540.57 115.81 536.43 115.82 C 536.06 112.25 535.96 107.64 532.38 105.67 C 530.31 105.02 528.14 105.60 526.07 105.83 C 526.79 101.37 527.27 95.81 523.43 92.57 C 520.11 89.48 514.53 93.17 511.59 89.38 C 505.48 82.39 493.51 82.40 487.40 89.39 C 485.25 92.10 481.54 90.98 478.57 91.36 C 475.66 95.65 473.56 101.08 475.79 106.15 C 473.10 105.87 470.15 105.14 467.70 106.68 C 464.48 108.51 464.21 112.57 463.51 115.81 C 457.62 116.11 451.40 114.70 445.81 117.09 C 443.34 117.49 440.83 117.25 438.35 117.29 C 438.36 121.96 438.35 126.63 438.35 131.30 C 441.26 131.30 444.17 131.30 447.09 131.29 C 447.16 132.28 447.24 133.28 447.33 134.28 C 452.32 134.23 457.32 134.27 462.32 134.25 C 464.61 137.92 468.44 140.60 472.96 139.84 C 471.24 147.12 468.23 154.49 462.58 159.62 C 459.42 162.51 454.70 164.36 450.53 162.64 C 444.19 160.28 440.31 154.10 437.75 148.17 C 432.05 134.04 431.77 117.92 436.23 103.41 C 438.42 96.99 441.62 90.36 447.38 86.42 C 451.01 83.79 456.20 83.57 460.00 86.01 C 466.00 89.59 469.15 96.26 471.56 102.55 C 471.98 104.02 473.33 104.87 474.47 105.76 C 473.12 98.13 469.32 90.70 463.43 85.59 C 458.76 81.56 451.50 80.92 446.35 84.41 C 439.46 88.88 435.88 96.85 433.57 104.45 C 429.73 118.61 430.03 134.05 435.19 147.84 C 437.57 154.07 441.34 160.18 447.23 163.61 C 451.77 166.27 457.71 165.98 461.99 162.94 C 468.23 158.56 471.89 151.44 474.07 144.31 C 474.62 142.78 474.80 141.05 475.86 139.76 C 479.99 139.63 484.14 139.86 488.27 139.59 C 488.24 144.68 488.16 149.77 488.27 154.86 C 488.27 157.65 489.96 160.29 492.42 161.58 C 498.41 164.86 507.09 164.07 511.19 158.16 C 513.73 163.39 518.97 167.63 524.99 167.47 C 530.62 167.83 535.60 164.28 538.72 159.86 C 541.99 163.86 546.53 167.65 552.00 167.47 C 558.35 167.55 563.51 162.81 566.84 157.83 C 572.72 148.71 574.75 137.68 575.17 126.99 C 575.13 117.50 573.77 107.86 569.79 99.17 C 568.22 96.16 569.24 92.70 568.58 89.49 C 568.06 86.35 566.18 83.69 564.40 81.15 C 570.07 81.21 575.75 81.16 581.43 81.17 C 584.58 95.90 584.59 111.02 585.18 126.00 C 584.78 142.77 583.90 159.99 577.50 175.72 C 572.31 175.71 567.06 176.14 561.97 174.85 C 554.92 174.81 547.79 174.27 540.83 175.59 C 512.88 175.52 484.94 175.25 457.00 175.23 C 446.77 174.42 436.50 175.05 426.26 174.75 C 419.76 151.61 419.38 127.31 420.78 103.48 C 421.44 96.02 422.54 88.63 423.87 81.27 Z" />
<path fill="#ffffff" d=" M 541.24 81.27 C 547.16 81.03 553.09 81.22 559.02 81.17 C 562.05 80.74 563.56 83.91 564.93 86.05 C 569.33 93.62 565.72 104.31 557.69 107.75 C 550.17 111.67 540.09 107.83 536.72 100.16 C 533.68 93.85 535.48 85.40 541.24 81.27 Z" />
<path fill="#ffffff" d=" M 616.86 81.83 C 624.74 81.82 632.63 81.83 640.53 81.83 C 640.52 122.40 640.51 162.98 640.53 203.55 C 632.64 203.54 624.74 203.55 616.85 203.54 C 616.86 162.97 616.85 122.40 616.86 81.83 Z" />
<path fill="#ffffff" d=" M 678.86 82.59 C 684.52 82.58 690.18 82.60 695.84 82.57 C 695.82 86.77 695.83 90.98 695.83 95.18 C 690.17 95.17 684.51 95.19 678.85 95.17 C 678.85 90.98 678.83 86.78 678.86 82.59 Z" />
<path fill="#ffffff" d=" M 313.59 84.13 C 318.53 84.15 323.47 84.15 328.41 84.13 C 328.40 88.03 328.40 91.94 328.41 95.84 C 323.47 95.83 318.53 95.83 313.60 95.84 C 313.60 91.94 313.61 88.03 313.59 84.13 Z" />
<path fill="#010101" d=" M 541.87 83.95 C 545.84 84.85 548.41 88.31 551.64 90.54 C 554.86 88.32 557.34 84.61 561.44 84.03 C 559.98 87.74 556.97 90.47 554.58 93.58 C 556.99 96.63 559.97 99.37 561.42 103.06 C 557.33 102.42 554.80 98.77 551.58 96.54 C 548.38 98.83 545.80 102.49 541.66 103.00 C 543.31 99.43 546.12 96.64 548.56 93.63 C 546.28 90.44 543.07 87.79 541.87 83.95 Z" />
<path fill="#fefefe" d=" M 666.22 83.54 C 669.43 83.52 672.66 83.53 675.88 83.49 C 675.87 87.38 675.91 91.27 675.81 95.16 C 674.08 93.91 672.24 92.80 670.66 91.38 C 668.85 88.96 667.65 86.17 666.22 83.54 Z" />
<path fill="#fefefe" d=" M 330.56 85.28 C 332.99 85.29 335.41 85.30 337.85 85.34 C 335.44 87.74 333.03 90.14 330.61 92.54 C 330.58 90.11 330.57 87.70 330.56 85.28 Z" />
<path fill="#fefefe" d=" M 488.77 91.15 C 491.72 88.21 495.68 86.00 499.96 86.29 C 503.92 86.27 507.46 88.46 510.21 91.16 C 503.06 91.25 495.91 91.25 488.77 91.15 Z" />
<path fill="#ffffff" d=" M 358.27 97.73 C 378.94 93.80 399.81 90.88 420.56 87.40 C 418.41 100.09 417.94 112.98 417.69 125.82 C 401.98 122.01 386.28 118.16 370.58 114.33 C 368.18 114.10 367.12 111.83 365.93 110.06 C 363.36 105.96 360.32 102.13 358.27 97.73 Z" />
<path fill="#ffffff" d=" M 585.21 89.50 C 594.76 91.28 604.34 92.83 613.89 94.61 C 613.87 103.57 613.88 112.54 613.89 121.50 C 605.04 123.12 596.18 124.64 587.34 126.22 C 587.30 113.95 586.52 101.69 585.21 89.50 Z" />
<path fill="#ffffff" d=" M 350.52 91.74 C 352.57 94.44 354.76 97.07 356.42 100.05 C 356.65 103.39 357.62 108.86 352.98 109.46 C 351.78 108.54 350.31 107.45 350.47 105.75 C 350.30 101.08 350.38 96.40 350.52 91.74 Z" />
<path fill="#ffffff" d=" M 666.55 91.74 C 672.64 95.35 678.16 99.79 684.09 103.65 C 681.54 103.59 678.76 102.87 676.44 104.25 C 672.50 106.06 671.23 111.72 673.97 115.06 C 677.06 119.46 684.77 118.78 687.03 113.88 C 688.52 111.12 687.23 108.03 686.21 105.36 C 688.19 107.07 690.21 108.73 692.16 110.49 C 690.16 114.17 686.73 117.06 685.72 121.24 C 688.62 120.36 690.00 117.54 691.78 115.34 C 701.75 120.38 711.73 125.42 721.69 130.50 C 714.78 140.67 707.90 150.85 700.99 161.01 C 692.89 153.86 685.33 146.13 677.26 138.94 C 677.82 137.50 678.87 136.12 678.64 134.50 C 678.05 131.27 681.60 128.48 679.86 125.29 C 678.40 120.12 670.96 118.44 667.33 122.31 C 663.92 125.22 664.51 131.32 668.32 133.64 C 671.00 135.63 674.47 134.54 677.49 134.21 C 675.70 136.31 674.43 139.03 671.97 140.45 C 668.46 140.14 665.38 138.22 662.25 136.77 C 656.11 133.58 649.92 130.46 644.08 126.74 C 642.21 125.46 644.33 123.47 645.14 122.21 C 652.83 112.45 658.83 101.47 666.55 91.74 Z" />
<path fill="#ffffff" d=" M 480.38 93.41 C 493.50 93.55 506.64 93.18 519.77 93.44 C 523.30 93.71 524.47 98.03 524.47 100.99 C 524.65 105.50 521.42 108.85 519.08 112.30 C 523.78 111.64 526.90 106.52 532.08 107.54 C 533.41 110.08 533.84 112.91 533.98 115.74 C 529.83 115.98 525.43 115.03 521.55 116.96 C 522.22 117.39 523.55 118.26 524.21 118.69 C 532.24 118.80 540.27 118.68 548.30 118.72 C 548.30 123.18 548.31 127.64 548.29 132.10 C 539.39 132.30 530.45 131.22 521.59 132.54 C 524.22 135.79 529.05 133.58 532.67 134.43 C 531.32 135.44 530.04 136.58 528.50 137.29 C 522.81 137.57 517.10 137.49 511.41 137.51 C 511.60 128.85 511.30 119.97 508.30 111.75 C 506.98 108.28 504.08 104.64 500.04 104.70 C 495.74 105.24 493.44 109.44 492.12 113.12 C 489.52 121.00 488.19 129.30 488.22 137.61 C 481.85 137.32 475.46 137.72 469.09 137.39 C 467.52 136.68 466.29 135.43 464.95 134.40 C 469.09 134.08 473.26 134.46 477.40 134.16 C 477.91 133.81 478.94 133.12 479.45 132.77 C 469.56 131.17 459.43 132.29 449.44 132.08 C 449.41 127.63 449.43 123.17 449.42 118.72 C 459.21 118.60 469.01 118.97 478.80 118.52 C 478.05 117.44 477.63 115.47 475.91 115.78 C 472.58 115.70 469.25 115.82 465.93 115.67 C 466.48 112.94 466.65 108.53 470.27 108.26 C 474.58 107.19 478.08 110.73 482.27 110.70 C 480.71 108.59 478.59 106.83 477.61 104.34 C 476.66 100.59 477.45 96.08 480.38 93.41 Z" />
<path fill="#a9a9a9" d=" M 551.23 93.28 C 551.82 93.87 551.82 93.87 551.23 93.28 Z" />
<path fill="#ffffff" d=" M 324.78 110.34 C 332.27 104.21 340.05 98.40 348.20 93.17 C 348.35 97.70 348.03 102.25 348.37 106.78 C 348.67 110.42 353.37 113.00 356.36 110.53 C 358.69 109.11 358.66 106.20 358.93 103.81 C 363.26 109.93 367.20 116.33 371.84 122.23 C 372.56 123.48 374.20 124.70 373.48 126.31 C 368.41 129.82 362.78 132.46 357.39 135.44 C 353.38 137.36 349.46 139.88 344.99 140.48 C 342.81 139.14 341.55 136.82 340.01 134.86 C 341.77 133.28 343.88 131.83 344.65 129.48 C 346.63 125.19 344.07 119.66 339.74 118.01 C 336.78 116.64 333.50 117.68 330.69 118.91 C 328.67 116.09 326.50 113.36 324.78 110.34 Z" />
<path fill="#ffffff" d=" M 677.51 106.25 C 681.44 103.53 687.24 108.35 685.12 112.68 C 683.44 116.80 676.70 116.92 675.18 112.65 C 673.78 110.39 675.31 107.33 677.51 106.25 Z" />
<path fill="#ffffff" d=" M 497.42 108.41 C 499.58 105.42 503.49 107.51 504.94 110.08 C 508.64 116.62 508.74 124.38 509.30 131.68 C 503.66 128.17 496.12 128.16 490.54 131.79 C 491.87 123.85 492.17 114.93 497.42 108.41 Z" />
<path fill="#ffffff" d=" M 295.31 130.59 C 305.18 125.31 315.27 120.45 325.23 115.33 C 326.46 116.99 327.70 118.65 328.97 120.29 C 327.61 123.72 326.39 127.91 328.84 131.18 C 330.57 134.41 334.42 134.93 337.65 135.57 C 338.51 136.49 339.23 137.53 339.97 138.55 C 332.02 146.08 324.13 153.66 316.04 161.04 C 309.09 150.91 302.30 140.68 295.31 130.59 Z" />
<path fill="#ffffff" d=" M 441.29 119.49 C 443.26 119.49 445.24 119.48 447.22 119.48 C 447.22 122.70 447.22 125.91 447.21 129.13 C 445.24 129.13 443.27 129.13 441.31 129.14 C 441.31 125.92 441.31 122.70 441.29 119.49 Z" />
<path fill="#ffffff" d=" M 551.25 119.48 C 552.71 119.48 554.18 119.49 555.65 119.49 C 555.65 122.71 555.64 125.92 555.64 129.14 C 554.18 129.13 552.72 129.13 551.28 129.14 C 551.25 125.92 551.26 122.70 551.25 119.48 Z" />
<path fill="#ffffff" d=" M 333.45 120.25 C 338.10 117.51 344.27 122.63 342.79 127.72 C 342.13 132.96 334.47 134.70 331.32 130.66 C 328.24 127.63 329.52 121.88 333.45 120.25 Z" />
<path fill="#ffffff" d=" M 669.55 123.34 C 672.49 121.01 677.85 123.15 677.84 127.07 C 678.63 131.44 672.65 134.52 669.42 131.64 C 666.52 129.79 666.61 125.09 669.55 123.34 Z" />
<path fill="#ffffff" d=" M 587.34 128.52 C 596.17 126.86 605.03 125.37 613.88 123.79 C 613.89 150.38 613.87 176.96 613.89 203.55 C 611.44 203.55 609.00 203.55 606.57 203.56 C 606.56 211.94 606.56 220.32 606.57 228.70 C 597.89 228.56 589.18 228.96 580.52 228.53 C 577.33 226.39 574.34 223.97 571.30 221.64 C 569.43 220.43 569.55 218.02 569.04 216.11 C 567.20 206.63 565.23 197.17 563.38 187.69 C 562.37 184.24 565.37 181.32 564.69 177.78 C 569.12 177.56 573.51 178.21 577.93 178.22 C 579.90 176.91 580.34 174.40 581.19 172.35 C 585.84 158.24 587.04 143.27 587.34 128.52 Z" />
<path fill="#ffffff" d=" M 496.44 131.59 C 501.08 130.57 508.34 131.32 509.35 137.01 C 506.13 143.76 494.80 143.84 490.86 137.72 C 489.96 134.43 493.73 132.25 496.44 131.59 Z" />
<path fill="#fefefe" d=" M 511.43 139.74 C 513.19 139.73 514.96 139.72 516.74 139.71 C 514.81 141.75 512.98 143.86 511.36 146.14 C 511.40 144.01 511.42 141.87 511.43 139.74 Z" />
<path fill="#ffffff" d=" M 520.60 140.64 C 524.58 139.60 528.98 139.87 532.65 141.83 C 526.41 147.44 520.08 152.95 513.74 158.45 C 510.55 151.85 513.70 143.24 520.60 140.64 Z" />
<path fill="#ffffff" d=" M 490.22 141.07 C 495.78 145.20 503.60 145.35 509.35 141.48 C 509.34 144.62 509.34 147.76 509.34 150.90 C 503.61 147.26 495.66 147.12 490.24 151.43 C 490.28 147.97 490.27 144.52 490.22 141.07 Z" />
<path fill="#fefefe" d=" M 518.97 156.91 C 524.01 152.50 529.06 148.10 534.06 143.63 C 534.57 144.02 535.59 144.81 536.10 145.21 C 532.63 148.72 528.84 151.90 525.11 155.12 C 522.09 157.69 519.42 160.82 515.67 162.36 C 515.01 159.80 517.38 158.41 518.97 156.91 Z" />
<path fill="#ffffff" d=" M 518.93 163.99 C 524.70 158.16 531.08 152.94 537.32 147.62 C 538.82 153.02 537.65 159.46 532.81 162.79 C 528.83 165.94 523.46 165.61 518.93 163.99 Z" />
<path fill="#ffffff" d=" M 490.28 156.05 C 491.77 152.09 495.96 150.17 500.00 150.36 C 503.74 150.32 508.65 151.78 509.37 156.03 C 506.09 163.34 493.93 162.97 490.28 156.05 Z" />
<path fill="#ffffff" d=" M 546.13 177.77 C 551.25 177.82 556.36 177.80 561.48 177.79 C 561.50 178.51 561.55 179.97 561.58 180.69 C 556.43 180.67 551.29 180.68 546.15 180.68 C 546.14 179.95 546.14 178.50 546.13 177.77 Z" />
<path fill="#ffffff" d=" M 468.45 181.28 C 485.75 181.61 502.49 187.10 518.31 193.74 C 532.66 200.13 546.66 207.53 559.51 216.56 C 562.81 232.11 565.42 247.83 568.49 263.44 C 569.25 265.69 568.25 267.85 567.69 270.00 C 567.21 284.32 567.69 298.68 566.78 312.99 C 566.68 337.33 566.12 361.67 565.59 386.01 C 565.23 400.67 565.58 415.35 564.73 429.99 C 564.45 447.99 564.64 466.01 563.80 483.99 C 564.00 488.92 563.08 493.99 564.62 498.79 C 560.74 501.45 557.87 506.28 552.75 506.50 C 530.58 509.96 508.43 513.50 486.28 517.07 C 481.90 518.05 477.41 517.72 472.97 517.80 C 471.23 517.69 469.94 519.03 468.49 519.74 C 458.07 519.75 447.67 517.61 437.26 518.52 C 437.28 517.80 437.34 516.36 437.37 515.64 C 434.17 515.63 430.98 515.62 427.79 515.66 C 426.76 518.56 425.84 521.50 424.98 524.46 C 416.00 525.88 406.96 526.92 397.96 528.27 C 395.11 528.93 392.81 526.65 390.35 525.61 C 388.52 524.46 385.44 523.82 385.90 521.03 C 385.84 504.68 385.90 488.34 385.88 472.00 C 385.93 464.53 385.65 457.04 386.31 449.59 C 390.84 467.67 403.34 483.11 418.85 493.11 C 446.13 510.85 483.01 512.08 511.48 496.39 C 528.74 487.11 542.82 471.45 548.81 452.65 C 554.18 436.34 552.86 418.07 545.43 402.61 C 539.40 389.81 529.60 378.94 517.80 371.19 C 498.08 358.11 473.08 353.56 449.94 358.23 C 426.07 362.75 403.83 377.54 392.19 399.11 C 390.09 402.85 388.80 406.99 386.61 410.68 C 385.03 400.90 386.27 390.89 385.88 381.02 C 388.76 378.93 391.57 376.75 394.27 374.44 C 398.68 376.63 404.17 377.19 408.40 374.27 C 413.21 371.38 414.86 365.37 414.14 360.08 C 418.75 357.16 423.23 354.05 427.67 350.89 C 425.70 347.47 423.27 344.36 420.88 341.23 C 416.11 344.49 411.36 347.87 407.16 351.84 C 404.03 350.90 400.63 350.01 397.47 351.35 C 393.41 352.44 390.77 355.97 388.91 359.51 C 388.76 304.60 388.84 249.68 388.87 194.76 C 387.26 194.68 385.65 194.58 384.04 194.47 C 391.07 191.87 398.24 189.69 405.48 187.75 C 402.53 190.43 398.74 193.46 399.23 197.92 C 399.75 203.87 405.77 207.01 410.60 209.25 C 423.67 214.55 438.04 215.69 452.01 215.29 C 462.99 214.49 474.25 213.13 484.26 208.23 C 488.03 206.32 491.93 203.62 493.31 199.42 C 494.38 195.70 492.16 191.96 489.31 189.72 C 483.29 184.99 475.70 183.18 468.45 181.28 Z" />
<path fill="#ffffff" d=" M 406.36 190.36 C 414.88 184.79 425.23 183.60 435.06 182.15 C 436.22 186.96 441.97 187.05 445.98 187.30 C 449.95 186.96 455.31 186.69 456.57 182.04 C 466.44 183.08 476.63 184.66 485.34 189.71 C 488.22 191.55 491.49 194.19 491.46 197.93 C 490.31 202.20 486.28 204.76 482.55 206.58 C 471.12 211.77 458.38 212.94 445.98 213.21 C 434.66 212.89 423.14 211.81 412.52 207.61 C 408.22 205.80 403.48 203.41 401.53 198.91 C 400.59 195.25 403.55 192.17 406.36 190.36 Z" />
<path fill="#fafafa" d=" M 437.25 182.91 C 442.59 181.10 448.70 180.85 454.01 182.90 C 449.01 185.76 442.29 185.62 437.25 182.91 Z" />
<path fill="#fefefe" d=" M 556.00 183.65 C 557.42 183.64 558.84 183.63 560.27 183.62 C 565.81 211.60 571.60 239.54 576.97 267.55 C 575.14 267.54 573.31 267.53 571.50 267.53 C 566.75 242.22 562.00 216.91 557.25 191.59 C 556.70 188.97 556.32 186.31 556.00 183.65 Z" />
<path fill="#ffffff" d=" M 683.34 196.21 C 686.77 196.22 690.21 196.22 693.65 196.21 C 693.64 197.42 693.63 198.62 693.64 199.83 C 690.21 199.83 686.77 199.83 683.34 199.83 C 683.34 198.62 683.34 197.42 683.34 196.21 Z" />
<path fill="#ffffff" d=" M 327.90 212.76 C 342.41 205.37 358.03 200.05 374.14 197.54 C 374.20 253.15 374.18 308.75 374.15 364.35 C 371.93 364.36 369.71 364.36 367.49 364.36 C 367.51 415.22 367.47 466.09 367.51 516.96 C 349.45 514.58 332.50 506.71 317.62 496.42 C 315.74 494.91 313.16 495.60 310.95 495.33 C 303.25 472.60 295.78 449.78 287.61 427.22 C 274.20 387.76 260.86 348.28 247.36 308.86 C 265.17 283.85 283.09 258.93 300.92 233.93 C 307.35 224.16 317.77 218.07 327.90 212.76 Z" />
<path fill="#ffffff" d=" M 377.14 197.64 C 380.31 197.65 383.48 197.64 386.66 197.64 C 386.66 253.22 386.66 308.79 386.66 364.36 C 383.48 364.36 380.31 364.35 377.14 364.36 C 377.15 308.79 377.15 253.22 377.14 197.64 Z" />
<path fill="#ffffff" d=" M 647.52 198.18 C 657.29 201.55 666.96 205.19 676.67 208.70 C 676.66 210.67 676.66 212.63 676.68 214.60 C 667.07 214.61 657.46 214.60 647.85 214.60 C 647.98 209.12 647.68 203.65 647.52 198.18 Z" />
<path fill="#ffffff" d=" M 679.62 203.55 C 685.28 203.54 690.93 203.55 696.59 203.55 C 696.59 207.23 696.58 210.92 696.59 214.61 C 690.93 214.60 685.27 214.60 679.61 214.60 C 679.62 210.92 679.61 207.23 679.62 203.55 Z" />
<path fill="#ffffff" d=" M 609.53 206.52 C 621.32 206.50 633.10 206.52 644.89 206.51 C 644.87 217.09 644.88 227.68 644.88 238.26 C 644.34 238.26 643.26 238.25 642.73 238.24 C 642.72 228.65 642.72 219.06 642.73 209.48 C 639.61 209.35 636.28 210.03 633.41 208.48 C 630.20 207.57 626.59 207.56 623.39 208.43 C 620.25 210.11 616.63 209.32 613.24 209.46 C 613.26 219.27 613.24 229.08 613.25 238.89 C 612.32 238.88 610.44 238.88 609.50 238.88 C 609.74 228.09 609.42 217.31 609.53 206.52 Z" />
<path fill="#ffffff" d=" M 625.11 211.65 C 627.02 211.66 628.95 211.66 630.87 211.65 C 630.86 218.29 630.87 224.93 630.87 231.57 C 628.94 231.57 627.02 231.57 625.11 231.57 C 625.11 224.93 625.12 218.29 625.11 211.65 Z" />
<path fill="#ffffff" d=" M 616.21 211.66 C 618.40 211.65 620.59 211.65 622.79 211.66 C 622.78 219.28 622.79 226.91 622.79 234.54 C 626.47 234.52 630.15 234.53 633.84 234.53 C 633.84 226.91 633.82 219.29 633.86 211.67 C 636.07 211.65 638.30 211.65 640.52 211.64 C 640.52 220.51 640.52 229.38 640.53 238.24 C 632.42 238.25 624.31 238.24 616.20 238.25 C 616.21 229.39 616.20 220.52 616.21 211.66 Z" />
<path fill="#ffffff" d=" M 648.62 217.56 C 665.86 217.56 683.09 217.56 700.32 217.56 C 700.31 219.07 700.30 220.58 700.30 222.09 C 683.08 222.10 665.87 222.10 648.65 222.09 C 648.63 220.58 648.62 219.06 648.62 217.56 Z" />
<path fill="#ffffff" d=" M 570.87 224.27 C 574.40 226.29 577.07 229.95 581.05 231.05 C 589.55 231.33 598.06 231.07 606.57 231.15 C 606.56 234.72 606.57 238.29 606.56 241.86 C 617.63 241.83 628.69 241.86 639.76 241.85 C 639.77 248.02 639.75 254.20 639.77 260.37 C 619.94 260.37 600.11 260.37 580.27 260.37 C 580.26 252.21 580.30 244.06 580.27 235.91 C 580.39 234.31 579.59 232.89 578.88 231.52 C 578.35 233.30 577.78 235.10 577.82 236.97 C 577.77 244.45 577.96 251.92 577.60 259.39 C 575.51 247.66 572.75 236.04 570.87 224.27 Z" />
<path fill="#ffffff" d=" M 288.91 233.88 C 291.91 231.56 295.90 231.57 299.51 231.76 C 293.33 241.06 286.54 249.95 280.14 259.10 C 272.71 269.35 265.56 279.81 257.91 289.90 C 256.43 282.37 255.41 273.82 260.13 267.17 C 266.96 257.78 275.13 249.47 282.65 240.64 C 284.70 238.35 286.54 235.85 288.91 233.88 Z" />
<path fill="#ffffff" d=" M 647.88 236.68 C 680.97 258.98 703.45 295.49 710.41 334.61 C 703.16 329.07 695.84 323.50 687.59 319.51 C 675.25 313.18 661.53 310.25 647.85 308.65 C 647.87 284.66 647.81 260.67 647.88 236.68 Z" />
<path fill="#ffffff" d=" M 642.12 241.86 C 642.81 241.86 644.18 241.85 644.87 241.85 C 644.89 301.85 644.88 361.84 644.87 421.84 C 644.18 421.84 642.79 421.83 642.10 421.83 C 642.11 361.84 642.08 301.85 642.12 241.86 Z" />
<path fill="#ffffff" d=" M 580.74 262.55 C 600.41 262.55 620.09 262.54 639.77 262.56 C 639.76 281.49 639.76 300.43 639.77 319.37 C 620.09 319.37 600.41 319.37 580.74 319.37 C 580.73 300.43 580.73 281.49 580.74 262.55 Z" />
<path fill="#000000" d=" M 586.64 265.51 C 602.89 265.51 619.13 265.51 635.38 265.51 C 635.39 282.23 635.38 298.94 635.39 315.65 C 619.14 315.65 602.89 315.64 586.64 315.65 C 586.64 298.94 586.63 282.23 586.64 265.51 Z" />
<path fill="#ffffff" d=" M 589.59 268.47 C 604.12 268.47 618.65 268.47 633.19 268.47 C 633.18 283.21 633.18 297.96 633.19 312.70 C 618.65 312.69 604.12 312.70 589.59 312.70 C 589.58 297.96 589.59 283.21 589.59 268.47 Z" />
<path fill="#ffffff" d=" M 569.78 269.63 C 572.25 269.61 574.73 269.69 577.21 269.77 C 576.45 281.71 576.69 293.69 576.42 305.65 C 576.38 319.60 575.47 333.53 575.64 347.49 C 575.00 395.36 573.78 443.22 573.28 491.11 C 571.17 493.11 568.97 495.04 566.42 496.46 C 565.78 492.66 565.87 488.80 566.18 484.98 C 566.42 469.98 566.70 454.99 566.77 439.99 C 567.67 421.68 567.37 403.32 567.75 384.99 C 568.48 371.99 568.13 358.96 568.57 345.95 C 568.84 320.50 569.67 295.08 569.78 269.63 Z" />
<path fill="#090909" d=" M 283.34 280.86 C 284.08 277.96 285.05 275.12 286.13 272.34 C 290.44 273.23 294.51 274.94 298.68 276.31 C 319.70 283.59 340.79 290.69 361.78 298.06 C 361.06 300.97 360.05 303.80 359.00 306.61 C 354.90 305.73 351.01 304.15 347.05 302.85 C 325.83 295.48 304.52 288.33 283.34 280.86 Z" />
<path fill="#fefefe" d=" M 287.63 274.94 C 311.41 283.18 335.28 291.16 358.99 299.58 C 358.49 301.06 357.98 302.54 357.47 304.02 C 333.69 295.74 309.81 287.75 286.07 279.37 C 286.58 277.88 287.10 276.41 287.63 274.94 Z" />
<path fill="#000000" d=" M 409.55 298.69 C 436.60 298.68 463.66 298.68 490.71 298.69 C 490.70 301.89 490.70 305.10 490.71 308.31 C 463.66 308.31 436.60 308.31 409.55 308.31 C 409.54 305.10 409.54 301.89 409.55 298.69 Z" />
<path fill="#fefefe" d=" M 412.52 306.16 C 412.50 304.64 412.50 303.13 412.50 301.62 C 437.59 301.65 462.67 301.62 487.76 301.63 C 487.75 303.13 487.74 304.64 487.74 306.15 C 462.66 306.14 437.59 306.13 412.52 306.16 Z" />
<path fill="#040404" d=" M 530.03 315.05 C 535.71 311.23 541.12 306.99 547.00 303.48 C 549.63 306.98 552.15 310.58 554.57 314.24 C 545.44 320.95 536.05 327.27 526.80 333.80 C 522.72 336.55 518.87 339.65 514.54 342.01 C 511.72 338.71 509.25 335.12 507.02 331.41 C 514.45 325.64 522.38 320.53 530.03 315.05 Z" />
<path fill="#121212" d=" M 575.64 347.49 C 575.47 333.53 576.38 319.60 576.42 305.65 C 577.11 316.67 577.35 327.73 576.88 338.77 C 578.01 337.10 579.15 335.45 580.29 333.79 C 580.30 359.14 580.31 384.48 580.29 409.83 C 579.64 410.14 578.35 410.77 577.71 411.08 C 577.41 395.93 578.37 380.75 577.15 365.63 C 576.09 359.60 578.98 353.03 575.64 347.49 Z" />
<path fill="#ffffff" d=" M 516.87 327.04 C 526.69 320.16 536.57 313.35 546.34 306.40 C 548.09 308.83 549.82 311.28 551.51 313.77 C 541.66 320.64 531.76 327.45 521.99 334.44 C 520.26 331.99 518.54 329.53 516.87 327.04 Z" />
<path fill="#ffffff" d=" M 647.87 311.12 C 664.39 312.38 680.80 317.23 694.82 326.18 C 700.04 329.54 705.07 333.21 709.78 337.26 C 712.02 338.81 711.21 341.71 711.34 344.01 C 713.79 357.28 712.88 370.98 711.23 384.31 C 710.33 388.63 710.12 393.18 708.48 397.31 C 703.59 401.59 698.22 405.33 692.68 408.72 C 688.08 411.67 682.60 412.59 677.53 414.43 C 675.60 415.01 674.63 417.14 672.68 417.67 C 666.34 419.73 659.76 421.04 653.16 421.95 C 653.11 411.60 653.15 401.26 653.15 390.91 C 653.23 389.29 652.63 387.78 651.81 386.42 C 650.47 390.83 650.91 395.47 650.86 400.00 C 650.86 407.28 650.86 414.56 650.85 421.84 C 650.10 421.83 648.60 421.82 647.85 421.81 C 647.87 384.92 647.82 348.02 647.87 311.12 Z" />
<path fill="#ffffff" d=" M 580.28 322.31 C 600.11 322.33 619.94 322.32 639.77 322.32 C 639.77 355.48 639.75 388.65 639.78 421.82 C 638.30 421.81 636.84 421.82 635.38 421.83 C 635.38 418.14 635.38 414.46 635.38 410.78 C 617.01 410.78 598.65 410.78 580.28 410.78 L 580.29 409.83 C 580.31 384.48 580.30 359.14 580.29 333.79 C 580.27 329.96 580.28 326.13 580.28 322.31 Z" />
<path fill="#ffffff" d=" M 509.96 331.92 C 511.49 330.83 513.02 329.74 514.56 328.66 C 516.27 331.11 517.99 333.56 519.70 336.01 C 518.13 337.06 516.57 338.13 515.00 339.18 C 513.31 336.76 511.63 334.34 509.96 331.92 Z" />
<path fill="#ffffff" d=" M 411.73 350.78 C 414.56 348.56 417.47 346.44 420.29 344.21 C 421.79 346.18 423.23 348.20 424.75 350.17 C 419.10 353.93 413.81 358.99 406.65 359.38 C 407.95 356.34 408.90 352.80 411.73 350.78 Z" />
<path fill="#ffffff" d=" M 714.21 345.49 C 718.69 345.54 723.18 345.58 727.67 345.75 C 727.68 360.06 727.65 374.36 727.68 388.67 C 722.79 388.57 717.93 389.08 713.05 389.27 C 713.21 385.15 713.87 381.07 714.32 376.98 C 715.11 366.50 715.01 355.96 714.21 345.49 Z" />
<path fill="#ffffff" d=" M 729.85 346.10 C 739.89 346.40 749.96 347.62 759.68 350.25 C 765.73 352.13 772.26 354.48 776.16 359.79 C 779.38 364.12 779.11 370.52 775.61 374.61 C 771.13 380.15 764.07 382.56 757.47 384.48 C 748.46 386.90 739.13 387.91 729.85 388.52 C 729.84 374.38 729.85 360.24 729.85 346.10 Z" />
<path fill="#fefefe" d=" M 397.02 353.94 C 400.00 352.26 403.34 353.06 406.43 353.88 C 406.01 354.82 405.60 355.77 405.20 356.72 C 402.51 355.81 399.49 355.24 397.04 357.07 C 394.17 358.74 393.85 362.25 393.54 365.21 C 392.80 365.22 391.33 365.25 390.59 365.26 C 390.61 360.71 392.51 355.73 397.02 353.94 Z" />
<path fill="#ffffff" d=" M 399.47 358.41 C 403.22 357.02 407.52 360.93 406.17 364.74 C 405.37 368.19 400.42 369.83 397.91 367.21 C 394.99 364.93 395.70 359.33 399.47 358.41 Z" />
<path fill="#ffffff" d=" M 418.58 373.59 C 434.96 362.40 455.32 357.33 475.04 358.90 C 494.80 360.50 514.18 368.64 528.37 382.63 C 540.78 394.77 549.07 411.47 549.77 428.94 C 550.57 444.14 545.53 459.37 536.61 471.61 C 522.20 491.42 498.37 503.50 474.06 504.88 C 445.55 507.15 415.62 494.65 398.89 471.08 C 389.19 457.48 384.13 440.20 386.63 423.55 C 388.40 424.68 390.52 425.64 391.05 427.89 C 391.54 430.12 393.79 430.70 395.63 431.47 C 395.45 448.91 403.56 465.96 416.40 477.61 C 440.30 500.06 478.75 503.90 507.24 488.14 C 523.25 479.48 536.16 464.50 540.68 446.70 C 544.35 433.08 542.71 418.20 536.40 405.61 C 528.46 389.17 513.35 376.80 496.28 370.75 C 483.23 365.94 468.95 365.15 455.28 367.22 C 431.68 371.12 409.67 386.61 400.25 408.93 C 396.96 408.49 393.63 408.34 390.31 408.44 C 395.97 394.33 405.92 382.02 418.58 373.59 Z" />
<path fill="#fdfdfd" d=" M 405.98 368.97 C 409.38 366.74 407.26 361.41 411.43 359.99 C 412.05 363.34 412.19 367.12 409.86 369.89 C 406.78 374.21 400.87 374.93 396.18 373.10 C 396.25 372.35 396.38 370.86 396.44 370.12 C 399.61 370.34 403.39 371.49 405.98 368.97 Z" />
<path fill="#fefefe" d=" M 577.15 365.63 C 578.37 380.75 577.41 395.93 577.71 411.08 C 577.29 414.70 578.55 418.82 577.18 422.14 L 576.75 421.83 C 576.35 403.11 577.73 384.35 577.15 365.63 Z" />
<path fill="#ffffff" d=" M 370.45 367.31 C 374.87 367.36 379.31 367.10 383.73 367.59 C 380.93 370.56 377.32 372.53 374.09 374.98 C 376.76 378.34 378.37 383.48 382.98 384.56 C 382.62 393.51 383.30 402.52 382.65 411.43 C 380.39 413.47 378.07 415.50 376.47 418.14 C 378.44 419.68 381.37 420.28 382.82 422.32 C 383.00 469.11 382.84 515.92 382.90 562.72 C 378.75 562.72 374.60 562.72 370.45 562.72 C 370.46 497.59 370.46 432.45 370.45 367.31 Z" />
<path fill="#fefefe" d=" M 377.11 375.62 C 382.78 371.84 388.20 366.23 395.67 367.32 C 393.18 373.97 386.71 377.37 381.49 381.58 C 380.02 379.60 378.57 377.60 377.11 375.62 Z" />
<path fill="#fefefe" d=" M 442.74 372.83 C 470.23 362.78 503.68 369.53 523.75 391.25 C 535.86 404.08 542.56 422.38 539.76 439.99 C 537.40 456.76 527.16 471.79 513.51 481.54 C 488.95 499.33 453.67 500.20 428.16 483.85 C 411.58 473.56 399.48 455.64 397.99 435.98 C 396.71 431.55 399.61 427.68 401.56 423.97 C 401.88 427.32 401.49 430.68 401.57 434.04 C 402.10 451.27 411.35 467.65 425.03 477.94 C 448.06 495.78 482.09 497.16 506.67 481.66 C 520.68 473.05 531.45 458.78 534.49 442.49 C 537.46 428.31 533.78 413.17 525.67 401.30 C 516.42 387.61 501.56 378.18 485.57 374.47 C 468.38 370.24 449.68 372.68 434.09 381.03 C 421.40 387.81 411.07 398.83 405.46 412.10 C 404.36 411.46 403.27 410.83 402.18 410.20 C 409.53 392.67 424.93 379.11 442.74 372.83 Z" />
<path fill="#ffffff" d=" M 434.42 383.43 C 451.41 373.90 472.42 372.04 490.86 378.26 C 505.57 383.03 518.69 393.14 526.32 406.68 C 532.10 417.13 534.94 429.61 532.43 441.44 C 530.53 452.26 524.93 462.10 517.54 470.13 C 516.39 468.77 515.56 466.98 513.85 466.26 C 493.43 459.37 472.70 453.33 452.13 446.86 C 443.10 444.20 434.22 440.94 425.05 438.88 C 422.10 437.18 418.68 437.00 415.42 437.75 C 415.41 439.38 414.59 441.55 416.28 442.65 C 419.37 445.27 423.83 444.75 427.30 446.72 C 454.04 455.06 480.81 463.46 507.63 471.51 C 509.80 472.59 512.23 472.76 514.62 472.86 C 501.76 484.56 484.27 490.49 467.00 490.31 C 449.77 489.69 432.46 483.15 420.30 470.71 C 408.03 458.68 401.31 440.61 404.59 423.54 C 407.14 422.19 409.75 420.95 412.12 419.29 C 410.59 417.35 409.00 415.47 407.36 413.63 C 412.51 400.80 422.36 390.10 434.42 383.43 Z" />
<path fill="#040404" d=" M 548.44 375.41 C 552.32 373.38 557.70 376.70 557.68 381.10 C 558.41 386.22 551.95 390.33 547.63 387.46 C 542.86 385.07 543.29 377.04 548.44 375.41 Z" />
<path fill="#ffffff" d=" M 549.50 377.38 C 553.09 375.92 557.00 380.27 554.96 383.62 C 553.65 386.74 548.35 386.68 546.97 383.66 C 545.70 381.37 547.00 378.09 549.50 377.38 Z" />
<path fill="#fefefe" d=" M 699.10 407.54 C 701.94 405.22 704.94 403.11 707.91 400.95 C 707.49 402.43 707.06 403.92 706.61 405.40 C 704.12 406.17 701.62 406.90 699.10 407.54 Z" />
<path fill="#ffffff" d=" M 677.86 416.71 C 689.42 413.01 701.00 409.35 712.65 405.96 C 702.82 412.99 692.59 419.44 682.58 426.20 C 680.89 423.09 679.36 419.90 677.86 416.71 Z" />
<path fill="#ffffff" d=" M 389.54 411.21 C 392.53 410.06 395.84 410.77 398.95 410.90 C 398.45 414.79 397.10 418.51 396.35 422.35 C 394.65 422.74 392.99 423.36 391.26 423.59 C 389.80 423.00 388.45 422.19 387.06 421.48 C 387.48 417.98 388.11 414.45 389.54 411.21 Z" />
<path fill="#fdfdfd" d=" M 398.33 423.75 C 399.12 419.89 400.09 416.07 401.41 412.36 C 402.23 412.89 403.86 413.95 404.68 414.47 C 403.92 417.00 403.19 419.54 402.47 422.08 C 401.09 422.63 399.71 423.19 398.33 423.75 Z" />
<path fill="#ffffff" d=" M 580.72 413.10 C 598.21 413.11 615.70 413.11 633.19 413.10 C 633.18 416.00 633.18 418.91 633.19 421.82 C 632.44 421.82 630.95 421.81 630.20 421.81 C 630.21 419.82 630.21 417.83 630.23 415.86 C 616.43 415.93 602.64 415.86 588.85 415.89 C 588.83 417.86 588.83 419.85 588.83 421.83 C 586.12 421.82 583.42 421.82 580.73 421.83 C 580.74 418.92 580.73 416.01 580.72 413.10 Z" />
<path fill="#fefefe" d=" M 379.61 417.31 C 380.68 416.27 381.74 415.22 382.81 414.18 C 382.84 415.89 382.87 417.61 382.89 419.33 C 381.79 418.65 380.70 417.97 379.61 417.31 Z" />
<path fill="#ffffff" d=" M 681.81 429.38 C 689.11 424.72 696.27 419.82 703.49 415.01 C 699.69 426.73 693.37 437.38 686.68 447.65 C 677.61 461.22 666.17 473.16 653.22 483.09 C 653.03 463.47 653.21 443.85 653.13 424.23 C 661.60 423.50 670.12 423.97 678.61 423.83 C 679.66 425.68 680.71 427.54 681.81 429.38 Z" />
<path fill="#fefefe" d=" M 405.12 420.46 C 405.63 419.01 406.16 417.57 406.71 416.14 C 407.43 417.08 408.16 418.02 408.89 418.97 C 407.62 419.45 406.37 419.95 405.12 420.46 Z" />
<path fill="#fcfcfc" d=" M 591.83 418.85 C 603.63 418.86 615.44 418.85 627.24 418.86 C 627.25 419.60 627.27 421.09 627.27 421.84 C 615.44 421.83 603.61 421.84 591.78 421.84 C 591.79 421.09 591.81 419.60 591.83 418.85 Z" />
<path fill="#fefefe" d=" M 666.97 421.65 C 670.09 420.73 673.24 419.88 676.36 418.93 C 676.86 419.88 677.36 420.84 677.87 421.81 C 674.23 421.85 670.59 421.83 666.97 421.65 Z" />
<path fill="#060606" d=" M 320.49 422.78 C 326.97 421.07 334.29 421.44 340.15 424.90 C 342.64 426.34 344.80 428.92 344.76 431.93 C 344.94 434.77 342.65 436.94 340.58 438.52 C 335.25 442.06 328.48 442.32 322.35 441.40 C 317.30 440.37 311.68 437.58 310.63 432.02 C 311.41 427.06 315.91 423.92 320.49 422.78 Z" />
<path fill="#ffffff" d=" M 323.33 424.46 C 328.60 423.69 334.35 423.98 338.96 426.91 C 340.98 428.24 343.07 430.34 342.64 432.99 C 339.90 437.69 334.18 439.51 329.03 439.64 C 323.78 439.88 317.96 438.71 314.29 434.67 C 312.66 433.31 312.92 430.70 314.17 429.19 C 316.36 426.38 319.94 425.11 323.33 424.46 Z" />
<path fill="#fefefe" d=" M 576.58 424.47 C 576.88 424.40 577.47 424.25 577.76 424.17 C 577.67 445.07 578.01 465.97 577.71 486.87 C 578.57 486.89 579.45 486.92 580.33 486.94 C 580.31 485.12 580.31 483.31 580.34 481.50 C 594.00 508.68 607.64 535.89 621.65 562.89 C 620.01 562.74 618.35 562.78 616.75 562.45 C 611.41 552.41 605.99 542.40 600.91 532.23 C 600.04 526.84 596.81 522.35 594.45 517.56 C 589.04 507.47 584.08 497.13 578.32 487.24 C 577.62 487.66 576.20 488.49 575.50 488.90 C 575.48 478.93 575.66 468.96 575.78 459.00 C 576.66 447.51 576.02 435.97 576.58 424.47 Z" />
<path fill="#ffffff" d=" M 580.76 423.84 C 583.43 423.83 586.10 423.83 588.78 423.83 C 588.90 432.76 588.80 441.69 588.83 450.62 C 602.63 450.62 616.42 450.61 630.22 450.62 C 630.22 441.78 630.22 432.95 630.22 424.12 C 630.97 424.11 632.45 424.11 633.19 424.11 C 633.18 433.93 633.19 443.75 633.19 453.57 C 615.70 453.56 598.22 453.56 580.73 453.57 C 580.75 443.66 580.70 433.75 580.76 423.84 Z" />
<path fill="#ffffff" d=" M 591.81 423.84 C 603.62 423.84 615.43 423.83 627.24 423.84 C 627.29 431.78 627.26 439.73 627.26 447.67 C 615.44 447.66 603.62 447.66 591.79 447.67 C 591.80 439.72 591.77 431.78 591.81 423.84 Z" />
<path fill="#ffffff" d=" M 642.10 424.11 C 642.80 424.11 644.19 424.11 644.88 424.12 C 644.88 444.51 644.88 464.91 644.89 485.31 C 644.19 485.31 642.80 485.31 642.10 485.31 C 642.11 464.91 642.10 444.51 642.10 424.11 Z" />
<path fill="#fefefe" d=" M 393.17 425.59 C 393.84 425.34 395.18 424.86 395.85 424.61 C 395.78 426.00 395.70 427.40 395.63 428.80 C 395.06 428.67 393.93 428.42 393.36 428.30 C 393.29 427.39 393.23 426.49 393.17 425.59 Z" />
<path fill="#fcfcfc" d=" M 647.85 424.80 C 648.61 424.73 650.11 424.60 650.87 424.53 C 650.87 439.35 650.87 454.18 650.87 469.00 C 650.90 474.14 650.62 479.31 651.43 484.41 C 650.24 485.20 649.05 486.00 647.88 486.80 C 647.81 466.13 647.86 445.47 647.85 424.80 Z" />
<path fill="#fefefe" d=" M 416.53 439.77 C 419.98 438.75 423.29 440.08 425.73 442.54 C 422.34 443.06 418.83 442.57 416.53 439.77 Z" />
<path fill="#fdfdfd" d=" M 427.68 441.66 C 448.27 447.95 468.82 454.39 489.40 460.73 C 494.82 462.48 500.34 463.92 505.65 465.98 C 504.65 466.87 503.63 468.43 502.11 467.58 C 477.09 459.92 452.13 452.07 427.11 444.41 C 427.25 443.73 427.54 442.35 427.68 441.66 Z" />
<path fill="#fefefe" d=" M 506.14 467.63 C 509.29 466.87 513.06 467.20 514.75 470.37 C 511.52 471.08 508.47 469.82 506.14 467.63 Z" />
<path fill="#ffffff" d=" M 580.31 472.82 C 598.17 472.67 616.03 472.76 633.89 472.74 C 633.07 502.75 631.56 532.71 630.44 562.70 C 628.08 562.71 625.71 562.72 623.36 562.80 C 622.22 558.86 620.09 555.34 618.33 551.67 C 608.24 531.73 598.13 511.79 588.01 491.87 C 585.62 487.29 583.74 482.39 580.42 478.38 C 580.14 476.53 580.31 474.66 580.31 472.82 Z" />
<path fill="#000000" d=" M 609.48 488.52 C 615.23 485.71 622.85 489.18 624.63 495.30 C 627.12 501.71 621.97 509.85 614.95 509.81 C 609.72 510.56 604.43 506.99 603.21 501.87 C 601.65 496.67 604.41 490.57 609.48 488.52 Z" />
<path fill="#ffffff" d=" M 610.52 490.56 C 616.39 487.51 624.06 493.41 622.82 499.87 C 622.49 506.65 613.27 510.36 608.33 505.70 C 603.10 501.93 604.42 492.68 610.52 490.56 Z" />
<path fill="#ffffff" d=" M 559.47 506.17 C 565.52 500.88 571.64 495.65 577.74 490.41 C 583.89 502.56 590.55 514.46 596.50 526.71 C 584.12 519.93 571.78 513.08 559.47 506.17 Z" />
<path fill="#ffffff" d=" M 550.71 509.03 C 553.74 508.71 557.11 507.29 559.95 509.04 C 571.54 515.49 583.13 521.96 594.76 528.36 C 596.00 528.98 597.13 529.87 597.70 531.19 C 603.25 541.68 608.69 552.22 614.30 562.67 C 568.92 562.78 523.54 562.70 478.16 562.71 C 478.57 548.60 479.36 534.51 479.66 520.40 C 503.32 516.49 527.03 512.85 550.71 509.03 Z" />
<path fill="#fefefe" d=" M 429.01 519.06 C 429.86 516.65 433.05 518.12 434.95 517.72 C 430.48 532.76 425.57 547.66 421.14 562.71 C 419.21 562.71 417.29 562.71 415.37 562.70 C 420.05 548.20 424.35 533.57 429.01 519.06 Z" />
<path fill="#ffffff" d=" M 436.86 519.07 C 441.13 520.93 445.85 520.38 450.37 520.87 C 456.89 521.75 463.55 521.20 470.02 522.60 C 469.79 523.10 469.33 524.11 469.09 524.62 C 458.05 524.19 447.02 523.21 435.99 522.43 C 436.27 521.30 436.56 520.18 436.86 519.07 Z" />
<path fill="#ffffff" d=" M 472.63 520.23 C 474.23 520.50 475.85 520.73 477.48 520.94 C 477.04 534.85 476.40 548.75 476.05 562.67 C 474.11 562.70 472.19 562.71 470.26 562.72 C 470.52 550.17 471.29 537.65 471.54 525.10 C 471.55 523.41 472.21 521.83 472.63 520.23 Z" />
<path fill="#f8f8f8" d=" M 905.48 520.67 C 908.16 520.67 910.85 520.67 913.55 520.67 C 913.54 521.60 913.55 522.54 913.57 523.48 C 910.84 523.48 908.13 523.48 905.42 523.50 C 905.43 522.55 905.45 521.60 905.48 520.67 Z" />
<path fill="#ffffff" d=" M 45.75 530.73 C 61.64 521.28 80.89 518.96 99.03 520.94 C 114.16 522.84 129.94 528.13 140.10 540.09 C 137.62 540.27 137.01 542.19 136.80 544.35 C 122.94 544.28 109.08 544.35 95.22 544.32 C 95.22 541.11 95.22 537.90 95.22 534.70 C 91.76 534.69 88.30 534.69 84.84 534.70 C 84.81 539.85 84.82 545.00 84.83 550.16 C 84.07 550.20 82.53 550.28 81.76 550.32 C 83.08 562.76 82.53 575.29 82.64 587.79 C 67.95 586.91 52.79 583.22 40.98 574.05 C 34.30 568.85 28.77 560.81 29.70 551.99 C 30.91 542.66 38.06 535.45 45.75 530.73 Z" />
<path fill="#ffffff" d=" M 432.13 535.20 C 433.24 531.69 433.50 527.56 435.89 524.68 C 447.06 525.23 458.19 526.66 469.39 526.64 C 468.88 536.68 468.44 546.71 468.29 556.77 C 454.04 556.64 439.78 556.19 425.54 555.77 C 426.89 551.42 428.23 547.07 429.65 542.74 C 434.92 543.46 440.24 543.44 445.53 543.71 C 453.01 544.36 460.52 544.82 468.02 544.84 C 467.94 544.37 467.78 543.41 467.70 542.94 C 467.49 541.71 467.27 540.49 467.05 539.28 C 466.96 538.81 466.79 537.87 466.70 537.40 C 455.20 536.41 443.67 535.67 432.13 535.20 Z" />
<path fill="#fdfdfd" d=" M 385.89 525.74 C 388.50 527.12 391.09 528.53 393.68 529.95 C 391.12 532.05 388.57 534.17 385.90 536.12 C 385.87 532.66 385.87 529.20 385.89 525.74 Z" />
<path fill="#ffffff" d=" M 884.40 529.59 C 890.27 527.78 896.32 526.48 902.47 526.07 C 902.53 534.73 902.47 543.39 902.51 552.06 C 902.65 554.98 900.84 557.52 900.69 560.43 C 885.48 562.28 870.44 565.49 855.19 566.95 C 853.25 560.99 853.52 554.31 856.82 548.87 C 862.73 538.83 873.68 533.14 884.40 529.59 Z" />
<path fill="#ffffff" d=" M 905.45 525.72 C 908.14 525.60 910.83 525.51 913.54 525.48 C 913.58 535.19 913.53 544.90 913.56 554.60 C 910.85 554.60 908.15 554.60 905.46 554.61 C 905.46 544.98 905.46 535.35 905.45 525.72 Z" />
<path fill="#ffffff" d=" M 916.54 525.58 C 930.40 526.53 944.56 529.79 956.12 537.83 C 961.82 541.91 967.02 547.37 968.83 554.33 C 970.26 559.04 969.29 564.06 967.43 568.50 C 950.77 565.79 934.12 562.91 917.43 560.41 C 915.61 548.90 916.87 537.18 916.54 525.58 Z" />
<path fill="#ffffff" d=" M 396.71 530.78 C 405.75 529.33 414.86 527.98 424.00 527.17 C 420.58 539.08 416.66 550.84 413.12 562.71 C 404.03 562.72 394.95 562.73 385.87 562.71 C 385.89 554.83 385.86 546.96 385.89 539.09 C 389.57 536.42 392.82 533.15 396.71 530.78 Z" />
<path fill="#ffffff" d=" M 87.78 537.65 C 89.28 537.64 90.77 537.64 92.26 537.65 C 92.26 541.84 92.27 546.03 92.25 550.23 C 90.76 550.22 89.27 550.22 87.79 550.22 C 87.78 546.03 87.79 541.84 87.78 537.65 Z" />
<path fill="#fefefe" d=" M 431.20 537.36 C 443.17 537.64 455.08 539.06 467.05 539.28 C 467.27 540.49 467.49 541.71 467.70 542.94 C 455.20 542.09 442.68 541.62 430.20 540.55 C 430.53 539.48 430.86 538.42 431.20 537.36 Z" />
<path fill="#ffffff" d=" M 140.23 542.80 C 141.69 542.79 143.16 542.79 144.62 542.80 C 144.61 549.69 144.61 556.59 144.62 563.49 C 143.16 563.48 141.69 563.48 140.23 563.49 C 140.24 556.59 140.24 549.69 140.23 542.80 Z" />
<path fill="#ffffff" d=" M 95.27 546.48 C 109.27 546.55 123.27 546.48 137.27 546.52 C 137.28 550.45 137.28 554.38 137.28 558.32 C 124.03 558.38 110.78 558.25 97.53 558.40 C 98.15 555.74 98.24 553.02 98.27 550.32 C 97.50 550.27 95.95 550.18 95.18 550.13 C 95.20 549.22 95.25 547.39 95.27 546.48 Z" />
<path fill="#ffffff" d=" M 149.39 550.03 C 151.30 550.21 153.28 550.26 155.07 551.03 C 171.11 557.33 187.18 563.52 203.21 569.82 C 204.71 570.40 206.30 570.73 207.90 570.96 C 223.63 572.75 239.36 574.63 255.09 576.52 C 256.78 576.65 258.41 577.14 259.97 577.80 C 278.40 585.63 296.82 593.47 315.27 601.21 C 315.29 604.49 315.29 607.77 315.26 611.06 C 295.46 602.52 275.82 593.62 256.06 584.99 C 252.43 583.64 248.49 583.73 244.71 583.19 C 231.23 581.33 217.67 580.08 204.23 578.04 C 187.93 572.02 171.87 565.35 155.63 559.16 C 153.61 558.37 151.40 558.64 149.28 558.54 C 149.31 555.70 149.30 552.86 149.39 550.03 Z" />
<path fill="#ffffff" d=" M 844.11 551.02 C 845.87 550.27 847.81 550.21 849.71 550.02 C 849.82 552.85 849.82 555.70 849.85 558.54 C 847.35 558.59 844.77 558.43 842.45 559.53 C 828.83 564.92 815.16 570.23 801.53 575.61 C 798.90 576.61 796.34 577.86 793.55 578.33 C 777.18 580.53 760.72 582.15 744.39 584.53 C 724.10 593.06 704.18 602.52 683.85 610.98 C 683.81 607.77 683.82 604.56 683.82 601.36 C 701.42 593.69 719.20 586.38 736.84 578.79 C 739.22 577.78 741.63 576.69 744.25 576.49 C 757.63 574.82 771.05 573.39 784.43 571.68 C 788.27 571.24 792.24 571.21 795.90 569.84 C 811.95 563.52 828.05 557.34 844.11 551.02 Z" />
<path fill="#fefefe" d=" M 83.91 553.74 C 87.91 552.89 92.15 552.87 96.15 553.76 C 92.32 555.10 87.72 555.15 83.91 553.74 Z" />
<path fill="#ffffff" d=" M 85.58 558.33 C 88.29 558.33 90.99 558.33 93.69 558.32 C 93.69 568.14 93.72 577.95 93.68 587.76 C 90.98 587.78 88.28 587.78 85.59 587.79 C 85.57 577.97 85.58 568.15 85.58 558.33 Z" />
<path fill="#ffffff" d=" M 424.78 558.51 C 429.45 557.79 434.28 558.50 439.01 558.34 C 448.77 558.73 458.55 558.43 468.29 559.28 C 468.20 560.40 468.11 561.52 468.03 562.66 C 453.11 562.76 438.19 562.76 423.28 562.66 C 423.76 561.26 424.22 559.86 424.78 558.51 Z" />
<path fill="#ffffff" d=" M 904.03 558.35 C 907.75 558.36 911.51 558.11 915.22 558.73 C 912.58 562.05 907.74 559.95 904.08 560.52 C 904.07 559.98 904.04 558.89 904.03 558.35 Z" />
<path fill="#ffffff" d=" M 96.65 561.28 C 110.20 561.29 123.75 561.28 137.29 561.29 C 137.28 562.98 137.27 564.68 137.25 566.39 C 138.25 566.43 140.24 566.53 141.24 566.58 C 130.75 580.26 113.13 585.63 96.67 587.53 C 96.63 578.78 96.66 570.03 96.65 561.28 Z" />
<path fill="#ffffff" d=" M 856.48 569.52 C 870.58 567.02 884.78 565.02 898.95 562.88 C 905.63 562.60 912.36 562.61 919.05 562.87 C 934.80 565.35 950.54 567.93 966.27 570.59 C 960.27 579.87 950.11 585.43 939.87 588.84 C 922.66 594.41 903.77 594.62 886.37 589.72 C 874.68 586.35 862.98 580.21 856.48 569.52 Z" />
<path fill="#ffffff" d=" M 470.19 565.66 C 472.05 565.67 473.91 565.67 475.78 565.66 C 475.72 568.87 475.58 572.09 475.52 575.31 C 473.57 575.29 471.62 575.28 469.68 575.29 C 469.79 572.07 469.93 568.86 470.19 565.66 Z" />
<path fill="#ffffff" d=" M 369.69 565.68 C 383.82 565.68 397.95 565.64 412.09 565.70 C 411.19 568.92 410.17 572.10 409.19 575.30 C 396.02 575.27 382.86 575.31 369.69 575.30 C 369.68 572.09 369.68 568.88 369.69 565.68 Z" />
<path fill="#fefefe" d=" M 411.52 575.28 C 412.55 572.08 413.49 568.85 414.54 565.66 C 416.39 565.67 418.24 565.68 420.09 565.70 C 419.16 568.91 418.15 572.09 417.19 575.30 C 415.29 575.29 413.40 575.29 411.52 575.28 Z" />
<path fill="#ffffff" d=" M 419.49 575.28 C 420.50 572.07 421.48 568.86 422.51 565.66 C 437.63 565.69 452.75 565.66 467.87 565.68 C 467.80 568.89 467.64 572.09 467.60 575.30 C 451.56 575.28 435.53 575.33 419.49 575.28 Z" />
<path fill="#ffffff" d=" M 478.25 565.66 C 523.73 565.69 569.21 565.66 614.69 565.68 C 614.68 568.88 614.68 572.08 614.69 575.29 C 569.01 575.31 523.34 575.29 477.66 575.29 C 477.69 572.07 477.92 568.86 478.25 565.66 Z" />
<path fill="#ffffff" d=" M 616.86 565.69 C 621.53 565.66 626.20 565.68 630.87 565.67 C 630.86 568.88 630.86 572.09 630.87 575.30 C 626.20 575.29 621.53 575.31 616.86 575.29 C 616.85 572.08 616.85 568.88 616.86 565.69 Z" />
<path fill="#ffffff" d=" M 320.08 572.34 C 325.22 571.55 330.46 571.60 335.61 572.38 C 335.52 579.52 330.02 585.52 331.35 592.84 C 329.04 592.73 326.74 592.62 324.44 592.54 C 325.78 585.23 319.51 579.53 320.08 572.34 Z" />
<path fill="#ffffff" d=" M 662.41 572.37 C 667.53 571.61 672.76 571.54 677.91 572.22 C 678.79 579.48 672.27 585.19 673.67 592.54 C 671.34 592.63 669.02 592.72 666.70 592.79 C 668.00 585.49 662.76 579.45 662.41 572.37 Z" />
<path fill="#ffffff" d=" M 366.57 578.25 C 371.32 578.26 376.07 578.23 380.83 578.28 C 374.44 594.25 368.02 610.22 361.78 626.25 C 359.48 623.22 357.50 619.97 355.35 616.84 C 358.98 603.94 362.85 591.12 366.57 578.25 Z" />
<path fill="#ffffff" d=" M 383.15 578.30 C 388.94 578.21 394.73 578.25 400.51 578.28 C 393.30 603.17 386.28 628.12 379.04 653.00 C 373.78 644.91 368.49 636.83 363.19 628.76 C 369.74 611.90 376.60 595.16 383.15 578.30 Z" />
<path fill="#ffffff" d=" M 402.78 578.25 C 404.59 578.25 406.40 578.25 408.22 578.27 C 401.40 600.95 393.99 623.46 387.38 646.20 C 391.62 646.63 395.84 646.23 399.98 645.32 C 425.10 645.65 450.21 646.84 475.32 647.36 C 475.61 624.32 477.06 601.31 477.56 578.29 C 479.53 578.26 481.50 578.24 483.48 578.24 C 483.43 591.16 483.33 604.08 483.26 617.00 C 483.21 622.00 483.50 627.02 482.89 632.00 C 482.60 638.61 482.91 645.22 482.71 651.84 C 481.01 651.87 479.32 651.91 477.63 651.96 C 477.46 653.51 477.29 655.07 476.99 656.61 C 476.63 653.85 476.67 651.07 476.65 648.31 C 472.82 648.31 468.98 648.33 465.15 648.28 C 465.03 648.90 464.79 650.15 464.67 650.77 C 442.19 650.70 419.71 650.72 397.23 650.76 C 397.13 650.14 396.93 648.91 396.83 648.29 C 392.96 648.33 389.09 648.31 385.22 648.32 C 385.23 650.76 385.23 653.20 385.24 655.65 C 383.71 655.64 382.18 655.64 380.66 655.64 C 388.03 629.84 395.47 604.06 402.78 578.25 Z" />
<path fill="#ffffff" d=" M 410.60 578.27 C 412.46 578.26 414.32 578.25 416.19 578.26 C 409.34 600.27 402.74 622.37 395.59 644.28 C 393.79 644.26 392.00 644.26 390.20 644.25 C 396.91 622.23 403.84 600.27 410.60 578.27 Z" />
<path fill="#fefefe" d=" M 418.47 578.31 C 433.29 578.22 448.11 578.27 462.93 578.23 C 464.83 578.19 466.73 578.39 468.60 578.79 C 468.01 579.14 466.83 579.84 466.25 580.19 C 460.50 580.39 454.74 580.22 449.01 579.77 C 438.77 579.75 428.53 579.71 418.30 579.50 C 418.34 579.21 418.42 578.61 418.47 578.31 Z" />
<path fill="#ffffff" d=" M 485.70 578.29 C 498.63 578.21 511.57 578.25 524.51 578.27 C 526.08 602.80 527.69 627.35 529.38 651.88 C 514.51 651.85 499.64 652.01 484.78 651.79 C 485.87 627.31 485.17 602.78 485.70 578.29 Z" />
<path fill="#ffffff" d=" M 526.63 578.27 C 537.83 578.23 549.03 578.26 560.23 578.25 C 562.59 602.82 565.59 627.32 567.79 651.90 C 555.70 651.88 543.60 651.91 531.51 651.88 C 529.95 627.34 528.37 602.79 526.63 578.27 Z" />
<path fill="#ffffff" d=" M 562.38 578.27 C 572.70 578.22 583.03 578.28 593.35 578.24 C 597.54 605.00 601.45 631.81 605.64 658.58 C 603.02 658.59 600.40 658.59 597.79 658.62 C 597.71 656.65 597.62 654.70 597.47 652.76 C 594.46 652.66 591.44 652.87 588.47 652.43 C 582.33 651.38 576.08 652.19 569.90 651.76 C 567.86 627.23 564.88 602.77 562.38 578.27 Z" />
<path fill="#ffffff" d=" M 595.55 578.30 C 602.03 578.23 608.51 578.20 615.00 578.31 C 621.10 594.08 627.43 609.76 633.72 625.45 C 634.04 626.78 635.28 628.39 634.25 629.70 C 628.08 639.39 621.61 648.89 615.43 658.58 C 612.86 658.60 610.29 658.59 607.73 658.61 C 603.87 631.81 599.75 605.05 595.55 578.30 Z" />
<path fill="#ffffff" d=" M 617.30 578.28 C 622.05 578.22 626.80 578.26 631.55 578.25 C 635.35 591.08 639.03 603.95 642.78 616.80 C 640.67 619.95 638.61 623.13 636.51 626.29 C 629.97 610.34 623.76 594.26 617.30 578.28 Z" />
<path fill="#ffffff" d=" M 469.60 578.31 C 471.53 578.27 473.47 578.25 475.41 578.24 C 474.65 600.25 473.76 622.24 473.13 644.25 C 471.19 644.26 469.26 644.26 467.33 644.27 C 467.98 622.27 468.97 600.30 469.60 578.31 Z" />
<path fill="#ffffff" d=" M 336.08 582.94 C 344.48 580.14 354.68 579.88 362.01 585.52 C 359.39 595.05 356.63 604.56 353.69 614.00 C 351.28 610.58 348.78 607.17 347.12 603.31 C 345.30 603.31 343.48 603.32 341.67 603.33 C 341.64 599.98 341.70 596.64 341.52 593.31 C 338.85 593.05 336.17 592.90 333.49 592.81 C 333.60 589.49 332.94 585.07 336.08 582.94 Z" />
<path fill="#ffffff" d=" M 636.03 585.50 C 643.22 580.08 653.02 580.16 661.30 582.68 C 665.35 584.15 664.31 589.47 664.52 592.89 C 661.92 592.89 659.33 592.89 656.75 592.90 C 656.74 596.37 656.73 599.85 656.75 603.33 C 654.80 603.32 652.87 603.31 650.94 603.32 C 649.25 607.20 646.87 610.72 644.36 614.10 C 641.54 604.58 638.79 595.04 636.03 585.50 Z" />
<path fill="#ffffff" d=" M 412.55 597.49 C 414.33 592.26 415.83 586.95 417.57 581.72 C 426.04 581.64 434.51 581.93 442.99 581.88 C 442.49 587.44 440.70 592.77 439.54 598.21 C 430.55 598.03 421.56 597.49 412.55 597.49 Z" />
<path fill="#ffffff" d=" M 445.67 582.19 C 452.89 582.15 460.11 582.47 467.34 582.37 C 467.27 587.87 466.76 593.37 466.63 598.88 C 458.39 598.72 450.17 598.44 441.94 598.27 C 443.03 592.88 444.36 587.53 445.67 582.19 Z" />
<path fill="#ffffff" d=" M 85.57 590.11 C 88.29 590.11 91.01 590.11 93.72 590.09 C 93.71 590.80 93.69 592.20 93.67 592.90 C 90.98 592.89 88.28 592.89 85.58 592.90 C 85.58 592.20 85.58 590.81 85.57 590.11 Z" />
<path fill="#ffffff" d=" M 318.77 595.88 C 325.40 595.84 332.04 595.87 338.67 595.87 C 338.69 598.35 338.69 600.83 338.69 603.32 C 332.61 603.39 326.53 603.16 320.45 603.47 C 319.94 611.63 320.62 619.81 320.07 627.96 C 319.04 626.46 318.59 624.72 318.73 622.93 C 318.77 613.91 318.74 604.89 318.77 595.88 Z" />
<path fill="#ffffff" d=" M 659.71 595.88 C 666.34 595.85 672.98 595.87 679.61 595.86 C 679.61 606.34 679.61 616.81 679.60 627.29 C 679.06 627.06 677.98 626.60 677.44 626.37 C 677.42 618.69 677.43 611.00 677.43 603.32 C 671.52 603.32 665.61 603.32 659.70 603.32 C 659.69 600.83 659.69 598.35 659.71 595.88 Z" />
<path fill="#ffffff" d=" M 412.05 599.75 C 416.69 599.48 421.36 599.71 425.99 600.15 C 439.39 600.59 452.84 600.30 466.20 601.30 C 466.39 601.87 466.77 603.01 466.96 603.59 C 448.30 603.86 429.66 602.63 411.00 602.39 C 411.27 601.73 411.79 600.41 412.05 599.75 Z" />
<path fill="#ffffff" d=" M 406.13 618.48 C 407.55 613.84 408.94 609.20 410.46 604.59 C 419.62 604.62 428.75 605.24 437.91 605.44 C 436.95 610.13 435.87 614.81 434.57 619.42 C 425.09 619.15 415.62 618.63 406.13 618.48 Z" />
<path fill="#ffffff" d=" M 323.25 606.27 C 330.36 606.28 337.48 606.27 344.60 606.27 C 344.59 625.76 344.60 645.24 344.59 664.73 C 337.92 664.74 331.25 664.75 324.58 664.72 C 326.81 660.56 329.09 656.44 331.12 652.18 C 332.75 651.74 334.66 651.98 336.11 651.04 C 340.53 646.82 341.98 639.04 337.59 634.28 C 338.78 630.73 340.24 626.85 338.36 623.25 C 336.94 623.28 335.51 623.35 334.10 623.46 C 333.40 622.16 332.67 620.89 331.93 619.64 C 328.08 620.59 325.60 623.78 323.26 626.73 C 323.22 619.90 323.24 613.08 323.25 606.27 Z" />
<path fill="#ffffff" d=" M 437.04 619.48 C 438.03 614.76 439.19 610.09 440.36 605.42 C 449.05 605.74 457.79 605.33 466.45 606.30 C 466.36 611.01 466.27 615.73 466.11 620.44 C 456.42 620.17 446.75 619.44 437.04 619.48 Z" />
<path fill="#ffffff" d=" M 653.14 606.27 C 660.50 606.27 667.87 606.27 675.24 606.27 C 675.20 613.18 675.34 620.08 675.14 626.99 C 672.51 624.31 670.19 619.29 665.65 620.37 C 665.01 621.35 664.44 622.36 663.92 623.41 C 662.44 623.34 660.97 623.32 659.51 623.34 C 658.66 627.00 659.15 630.78 660.53 634.24 C 655.42 639.70 657.90 649.56 664.62 652.44 C 667.42 656.15 669.04 660.71 671.45 664.72 C 665.34 664.75 659.23 664.73 653.13 664.74 C 653.19 645.25 653.11 625.76 653.14 606.27 Z" />
<path fill="#ffffff" d=" M 347.64 609.17 C 357.85 624.60 367.89 640.14 378.06 655.59 C 367.89 655.73 357.72 655.59 347.55 655.66 C 347.61 640.16 347.44 624.66 347.64 609.17 Z" />
<path fill="#ffffff" d=" M 618.08 658.57 C 628.78 642.36 639.29 626.03 650.08 609.88 C 650.28 626.12 650.12 642.36 650.16 658.60 C 639.47 658.58 628.77 658.64 618.08 658.57 Z" />
<path fill="#ffffff" d=" M 405.35 620.61 C 425.51 621.26 445.65 622.03 465.81 622.48 C 465.77 623.05 465.69 624.19 465.66 624.76 C 445.46 624.59 425.30 623.37 405.11 623.22 C 405.17 622.57 405.29 621.26 405.35 620.61 Z" />
<path fill="#fdfdfd" d=" M 325.49 627.40 C 327.31 625.39 329.23 623.48 331.33 621.76 C 332.02 624.66 330.91 627.30 329.11 629.54 C 327.90 628.83 326.69 628.11 325.49 627.40 Z" />
<path fill="#fdfdfd" d=" M 668.83 629.47 C 667.24 627.21 666.08 624.67 666.67 621.85 C 668.98 623.41 670.93 625.43 672.66 627.62 C 671.37 628.24 670.10 628.85 668.83 629.47 Z" />
<path fill="#fdfdfd" d=" M 332.07 631.11 C 332.83 628.49 334.28 626.18 336.63 624.68 C 337.05 627.56 336.59 630.45 335.74 633.21 C 334.50 632.51 333.28 631.81 332.07 631.11 Z" />
<path fill="#ffffff" d=" M 400.04 638.36 C 401.23 634.00 402.69 629.72 403.92 625.38 C 413.59 625.52 423.28 625.53 432.94 626.31 C 431.91 630.69 430.84 635.07 429.57 639.38 C 419.75 638.51 409.89 638.80 400.04 638.36 Z" />
<path fill="#ffffff" d=" M 435.26 626.22 C 445.36 626.43 455.46 626.83 465.56 626.90 C 465.66 631.35 465.40 635.79 465.27 640.24 C 454.23 639.88 443.19 639.47 432.14 639.32 C 433.02 634.91 434.23 630.58 435.26 626.22 Z" />
<path fill="#fcfcfc" d=" M 662.49 633.24 C 661.52 630.47 660.90 627.56 661.43 624.64 C 663.69 626.21 665.30 628.40 666.00 631.09 C 664.82 631.80 663.66 632.52 662.49 633.24 Z" />
<path fill="#ffffff" d=" M 312.55 637.68 C 314.44 633.92 317.31 630.53 321.06 628.55 C 323.26 628.67 325.16 629.98 327.08 630.94 C 330.62 633.01 334.54 634.72 337.36 637.80 C 338.61 641.36 337.82 645.55 335.44 648.48 C 334.19 650.74 331.37 649.24 329.60 648.56 C 323.57 645.58 317.22 642.68 312.55 637.68 Z" />
<path fill="#ffffff" d=" M 662.91 635.86 C 667.28 632.94 671.84 629.96 676.91 628.48 C 680.25 630.18 683.11 632.98 684.82 636.32 C 685.55 639.08 682.57 640.40 680.80 641.80 C 675.47 645.08 670.06 648.55 663.88 649.97 C 660.43 646.41 657.98 639.16 662.91 635.86 Z" />
<path fill="#040404" d=" M 357.48 639.43 C 360.37 638.46 362.74 641.02 363.35 643.63 C 364.21 647.15 363.93 651.53 360.99 654.04 C 358.67 655.79 355.21 654.22 354.47 651.54 C 352.78 647.65 353.08 641.29 357.48 639.43 Z" />
<path fill="#020202" d=" M 637.58 639.58 C 639.19 639.13 641.24 639.07 642.43 640.47 C 644.58 643.04 644.85 646.69 644.23 649.87 C 643.68 652.25 641.93 655.12 639.10 654.72 C 636.74 654.73 635.46 652.35 634.77 650.43 C 633.97 646.70 634.13 641.97 637.58 639.58 Z" />
<path fill="#ffffff" d=" M 397.76 642.27 C 400.80 639.30 405.23 641.07 408.98 640.75 C 425.32 641.56 441.70 641.43 458.04 642.31 C 460.66 642.72 464.63 641.14 465.76 644.46 C 449.18 645.02 432.60 643.63 416.02 643.45 C 409.94 643.04 403.72 643.80 397.76 642.27 Z" />
<path fill="#fefefe" d=" M 358.98 653.21 C 355.06 650.53 354.67 644.72 357.98 641.40 C 359.42 641.30 360.35 641.94 360.77 643.33 C 362.52 646.63 361.34 650.55 358.98 653.21 Z" />
<path fill="#fefefe" d=" M 639.00 652.69 C 635.34 649.75 636.06 644.01 639.04 640.84 C 643.22 643.18 643.87 650.98 639.00 652.69 Z" />
<path fill="#ffffff" d=" M 667.07 651.65 C 673.43 648.92 679.54 645.58 685.14 641.52 C 718.23 704.20 751.24 766.92 784.43 829.53 C 777.61 830.94 770.84 833.63 765.93 838.74 C 749.65 808.05 733.48 777.31 717.23 746.60 C 719.87 744.46 722.60 742.42 725.07 740.08 C 723.55 737.38 721.79 734.83 719.92 732.38 C 717.23 733.76 714.77 735.51 712.25 737.15 C 697.18 708.65 682.13 680.15 667.07 651.65 Z" />
<path fill="#ffffff" d=" M 387.43 651.26 C 389.66 651.26 391.89 651.27 394.13 651.28 C 394.11 750.60 394.14 849.91 394.11 949.22 C 391.88 949.22 389.65 949.23 387.43 949.24 C 387.44 849.91 387.44 750.58 387.43 651.26 Z" />
<path fill="#ffffff" d=" M 467.16 651.26 C 469.35 651.26 471.54 651.26 473.73 651.26 C 473.74 750.59 473.73 849.91 473.74 949.24 C 471.54 949.22 469.35 949.22 467.16 949.24 C 467.16 849.91 467.16 750.59 467.16 651.26 Z" />
<path fill="#ffffff" d=" M 397.11 653.25 C 419.69 653.25 442.27 653.25 464.85 653.25 C 464.84 655.03 464.84 656.81 464.85 658.60 C 452.95 658.58 441.06 658.63 429.16 658.59 C 427.32 658.70 426.15 657.04 424.63 656.32 C 422.29 656.26 419.79 656.34 418.28 658.41 C 411.24 658.89 404.15 658.44 397.09 658.61 C 397.09 656.81 397.10 655.03 397.11 653.25 Z" />
<path fill="#ffffff" d=" M 479.65 654.22 C 514.84 654.22 550.03 654.23 585.22 654.22 C 585.20 694.54 585.23 734.86 585.20 775.18 C 550.02 775.19 514.83 775.19 479.64 775.18 C 479.64 734.86 479.63 694.54 479.65 654.22 Z" />
<path fill="#ffffff" d=" M 588.20 654.86 C 589.99 654.86 591.80 654.86 593.61 654.86 C 593.73 657.07 593.99 659.27 594.43 661.46 C 600.16 661.68 605.91 661.46 611.66 661.61 C 608.60 665.90 605.56 670.21 602.57 674.56 C 603.74 675.33 604.92 676.11 606.10 676.90 C 609.64 671.75 613.27 666.66 616.86 661.56 C 627.94 661.56 639.01 661.55 650.09 661.56 C 650.14 663.76 650.22 665.98 650.43 668.19 C 657.62 668.30 664.82 668.19 672.02 668.25 C 673.19 670.43 675.83 672.27 675.26 675.00 C 673.55 686.59 671.61 698.18 670.68 709.86 C 670.99 710.90 671.36 711.94 671.77 712.97 C 666.41 720.32 661.35 727.89 656.02 735.27 C 657.11 736.13 658.22 736.99 659.34 737.85 C 664.65 730.57 669.69 723.10 674.92 715.77 C 677.99 719.08 680.87 722.56 683.87 725.93 C 681.77 731.47 679.80 737.05 677.74 742.61 C 678.97 743.10 680.22 743.60 681.47 744.09 C 682.14 748.15 683.37 752.08 684.45 756.05 C 681.98 757.39 679.50 758.73 677.00 760.04 C 675.65 758.92 674.21 757.92 672.75 757.00 C 671.15 759.64 671.21 763.65 668.06 765.02 C 662.69 767.77 657.72 771.58 651.70 772.82 C 644.92 774.49 638.15 776.25 631.37 777.92 C 637.69 768.68 644.29 759.63 650.57 750.37 C 649.38 749.61 648.19 748.87 647.01 748.13 C 640.06 758.15 633.01 768.10 626.05 778.10 C 625.01 779.99 622.62 780.07 620.80 780.68 C 611.57 782.86 602.44 785.39 593.34 788.02 C 595.02 783.25 596.72 778.50 598.58 773.80 C 597.27 773.26 595.96 772.73 594.66 772.22 C 592.42 777.96 590.38 783.78 588.29 789.57 C 583.41 790.85 578.54 793.50 573.39 792.11 C 576.52 787.43 579.86 782.89 583.01 778.22 C 584.72 778.17 586.44 778.15 588.16 778.13 C 588.18 775.82 588.05 773.50 588.28 771.21 C 589.47 768.60 591.43 766.44 592.87 763.97 C 591.36 763.16 589.83 762.36 588.11 762.21 C 588.27 742.82 588.11 723.42 588.19 704.03 C 588.11 702.92 588.42 701.93 589.11 701.07 C 591.75 697.26 594.45 693.50 597.09 689.69 C 595.98 688.83 594.86 687.98 593.75 687.14 C 591.88 689.71 590.09 692.34 588.28 694.97 C 588.06 681.60 588.21 668.23 588.20 654.86 Z" />
<path fill="#ffffff" d=" M 350.96 658.53 C 358.49 658.42 366.03 658.47 373.56 658.51 C 372.55 659.96 371.53 661.42 370.51 662.88 C 371.65 663.70 372.80 664.52 373.96 665.36 C 375.64 662.93 377.35 660.52 379.05 658.12 C 379.89 658.89 380.73 659.68 381.57 660.48 C 382.74 659.56 383.93 658.67 385.16 657.83 C 385.25 675.21 385.33 692.61 385.13 709.99 C 383.26 713.94 380.24 717.21 377.91 720.89 C 379.03 721.66 380.15 722.45 381.28 723.24 C 382.57 721.52 383.84 719.78 385.13 718.07 C 385.30 728.70 385.27 739.34 385.17 749.97 C 384.13 755.25 381.66 760.13 380.02 765.24 C 380.92 765.62 382.72 766.36 383.62 766.73 C 383.99 766.06 384.75 764.73 385.12 764.06 C 385.26 768.85 385.35 773.66 385.14 778.46 C 384.25 780.85 382.46 782.74 381.09 784.86 C 379.23 782.96 377.68 780.54 375.05 779.65 C 368.38 779.97 361.74 781.62 355.06 781.41 C 347.18 779.17 339.18 777.24 331.41 774.65 C 325.67 768.05 321.18 760.46 316.49 753.10 C 318.69 748.08 319.67 742.47 322.98 738.00 C 326.49 733.03 329.99 728.05 333.49 723.07 C 332.36 722.24 331.24 721.41 330.12 720.59 C 329.12 721.87 328.11 723.15 327.07 724.41 C 331.25 712.41 335.80 700.55 340.02 688.57 C 338.68 688.10 337.35 687.64 336.01 687.20 C 331.59 699.58 327.14 711.94 322.50 724.24 C 323.84 724.74 325.18 725.26 326.53 725.78 C 322.04 731.96 317.60 738.17 313.37 744.53 C 312.02 732.81 311.72 721.00 310.64 709.26 C 310.64 703.87 309.48 698.51 309.76 693.14 C 312.48 687.24 315.82 681.64 318.71 675.83 C 320.17 672.65 322.44 669.98 324.57 667.25 C 330.42 669.14 336.68 667.90 342.72 668.20 C 342.44 669.81 342.19 671.43 342.00 673.07 C 343.13 673.33 344.26 673.61 345.40 673.90 C 347.20 668.75 349.05 663.64 350.96 658.53 Z" />
<path fill="#fefefe" d=" M 476.69 675.00 C 476.88 669.36 476.24 663.67 477.07 658.08 C 477.88 664.34 477.27 670.69 477.46 677.00 C 477.26 684.17 477.90 691.38 477.05 698.52 C 476.23 690.71 476.90 682.83 476.69 675.00 Z" />
<path fill="#000000" d=" M 482.59 658.60 C 515.81 658.60 549.03 658.60 582.25 658.60 C 582.26 670.65 582.25 682.69 582.25 694.74 C 549.03 694.73 515.81 694.73 482.59 694.74 C 482.58 682.69 482.58 670.65 482.59 658.60 Z" />
<path fill="#ffffff" d=" M 396.27 661.55 C 418.91 661.56 441.56 661.56 464.20 661.56 C 464.20 662.30 464.19 663.78 464.19 664.52 C 441.56 664.52 418.94 664.51 396.31 664.52 C 396.30 663.78 396.28 662.30 396.27 661.55 Z" />
<path fill="#ffffff" d=" M 484.79 661.56 C 516.56 661.57 548.32 661.53 580.09 661.58 C 580.11 671.89 580.13 682.21 580.08 692.52 C 548.31 692.56 516.55 692.52 484.79 692.54 C 484.79 682.21 484.79 671.89 484.79 661.56 Z" />
<path fill="#ffffff" d=" M 397.09 667.47 C 403.15 667.51 409.22 667.42 415.28 667.52 C 413.41 670.24 411.53 672.95 409.57 675.60 C 410.34 676.32 411.13 677.05 411.92 677.78 C 411.19 679.72 410.48 681.66 409.79 683.62 C 405.56 683.72 401.33 683.66 397.10 683.68 C 397.10 678.27 397.11 672.87 397.09 667.47 Z" />
<path fill="#ffffff" d=" M 420.46 667.49 C 435.26 667.45 450.05 667.49 464.85 667.47 C 464.84 672.88 464.85 678.28 464.85 683.69 C 462.29 683.67 459.74 683.67 457.19 683.65 C 458.51 681.77 459.84 679.89 461.16 678.02 C 460.04 677.18 458.92 676.34 457.81 675.51 C 455.73 678.17 454.14 681.23 451.72 683.61 C 439.21 683.75 426.70 683.69 414.18 683.63 C 414.86 681.87 415.55 680.11 416.27 678.37 C 415.54 677.70 414.81 677.05 414.10 676.41 C 416.33 673.52 418.42 670.52 420.46 667.49 Z" />
<path fill="#010101" d=" M 632.09 669.11 C 633.46 669.37 634.83 669.65 636.22 669.95 C 632.03 682.38 627.18 694.58 622.93 706.99 C 621.52 706.75 620.13 706.51 618.74 706.27 C 622.95 693.80 627.80 681.55 632.09 669.11 Z" />
<path fill="#010101" d=" M 652.57 671.75 C 653.71 672.50 654.85 673.25 656.00 674.03 C 648.59 685.00 640.88 695.76 633.26 706.59 C 632.12 705.74 631.00 704.91 629.89 704.08 C 637.45 693.30 645.00 682.52 652.57 671.75 Z" />
<path fill="#010101" d=" M 361.34 676.08 C 362.73 676.24 363.88 677.12 365.11 677.72 C 357.78 688.76 349.93 699.45 342.40 710.35 C 341.25 709.58 340.11 708.81 338.98 708.05 C 346.27 697.29 353.80 686.67 361.34 676.08 Z" />
<path fill="#ffffff" d=" M 677.50 676.26 C 688.49 696.96 699.38 717.72 710.38 738.42 C 709.07 739.87 705.89 740.53 706.27 742.90 C 707.66 745.80 709.69 748.36 711.72 750.86 C 712.96 749.93 714.20 749.00 715.45 748.07 C 732.61 780.55 749.79 813.02 766.91 845.52 C 764.13 845.05 761.35 844.72 758.61 844.17 C 756.03 842.14 754.18 839.04 750.86 838.08 C 746.27 836.07 741.15 838.14 736.50 836.64 C 715.82 830.54 695.14 824.41 674.43 818.40 C 668.98 817.22 666.44 811.54 661.83 808.92 C 655.05 808.20 648.00 809.94 641.44 807.58 C 623.23 802.39 604.86 797.71 586.73 792.27 C 594.96 790.23 602.94 787.29 611.22 785.40 C 626.36 781.47 641.59 777.83 656.67 773.69 C 666.90 768.48 676.87 762.74 686.91 757.15 C 686.22 753.06 684.46 749.19 684.14 745.05 C 684.65 739.13 685.60 733.19 687.59 727.58 C 683.62 720.99 677.45 716.10 673.10 709.81 C 673.81 698.56 675.46 687.35 677.50 676.26 Z" />
<path fill="#ffffff" d=" M 396.28 686.63 C 418.91 686.63 441.55 686.62 464.19 686.63 C 464.19 687.37 464.19 688.84 464.20 689.58 C 441.56 689.58 418.93 689.57 396.30 689.58 C 396.29 688.84 396.28 687.36 396.28 686.63 Z" />
<path fill="#ffffff" d=" M 397.20 701.20 C 398.60 698.02 401.07 695.44 402.95 692.54 C 403.84 692.55 405.63 692.57 406.52 692.58 C 403.93 699.57 401.35 706.57 398.89 713.61 C 400.17 714.06 401.46 714.51 402.76 714.94 C 405.61 707.52 408.27 700.04 410.93 692.56 C 422.56 692.54 434.18 692.48 445.80 692.59 C 442.18 697.72 438.52 702.82 435.03 708.04 C 436.16 708.82 437.29 709.61 438.42 710.41 C 442.64 704.48 446.78 698.49 450.98 692.55 C 455.60 692.53 460.22 692.53 464.85 692.54 C 464.84 701.63 464.86 710.72 464.84 719.81 C 442.26 719.79 419.68 719.81 397.10 719.81 C 397.18 713.60 396.93 707.39 397.20 701.20 Z" />
<path fill="#ffffff" d=" M 285.63 738.37 C 292.97 724.65 300.25 710.88 307.46 697.08 C 308.92 713.37 309.92 729.71 310.95 746.04 C 311.08 750.25 314.22 753.34 316.19 756.81 C 320.33 763.58 324.72 770.24 329.77 776.36 C 332.25 777.75 335.14 778.09 337.82 778.95 C 343.61 780.42 349.28 782.40 355.13 783.66 C 361.74 783.87 368.28 781.85 374.90 782.35 C 378.30 785.26 381.77 788.13 384.94 791.29 C 385.54 793.84 385.13 796.52 385.22 799.13 C 375.04 801.86 364.89 804.73 354.73 807.54 C 348.12 809.98 341.01 808.18 334.18 808.93 C 329.54 811.54 327.02 817.26 321.54 818.42 C 300.56 824.50 279.62 830.73 258.66 836.87 C 255.87 837.86 252.94 836.57 250.09 836.98 C 246.97 837.36 243.72 838.16 241.36 840.36 C 239.94 841.52 238.95 843.16 237.41 844.18 C 234.65 844.72 231.86 845.06 229.09 845.52 C 246.21 813.00 263.38 780.51 280.62 748.05 C 281.83 748.99 283.05 749.93 284.28 750.86 C 286.44 748.12 288.70 745.33 290.00 742.06 C 288.75 740.60 287.12 739.54 285.63 738.37 Z" />
<path fill="#010101" d=" M 482.59 697.69 C 515.81 697.69 549.04 697.68 582.26 697.70 C 582.25 709.74 582.25 721.78 582.26 733.82 C 549.04 733.81 515.81 733.82 482.59 733.82 C 482.58 721.77 482.58 709.73 482.59 697.69 Z" />
<path fill="#ffffff" d=" M 484.80 700.65 C 516.56 700.65 548.33 700.62 580.09 700.66 C 580.12 710.71 580.08 720.75 580.11 730.80 C 548.34 730.90 516.57 730.81 484.79 730.85 C 484.80 720.78 484.79 710.71 484.80 700.65 Z" />
<path fill="#5c5c5c" d=" M 477.63 717.74 C 475.80 714.93 475.97 711.60 477.07 708.56 C 478.18 711.50 478.17 714.67 477.63 717.74 Z" />
<path fill="#000000" d=" M 531.59 710.56 C 534.87 709.19 538.66 712.22 537.83 715.74 C 537.53 719.82 531.28 720.97 529.41 717.41 C 527.66 715.10 529.02 711.55 531.59 710.56 Z" />
<path fill="#fefefe" d=" M 531.36 712.62 C 532.78 712.63 535.33 712.24 535.59 714.19 C 536.46 716.16 534.01 716.82 532.90 717.90 C 531.30 716.51 531.01 714.62 531.36 712.62 Z" />
<path fill="#010101" d=" M 617.64 721.71 C 618.73 720.04 619.83 718.38 620.93 716.73 C 622.09 717.53 623.26 718.34 624.44 719.16 C 620.32 725.41 615.61 731.27 611.78 737.70 C 608.97 744.68 606.48 751.80 604.03 758.93 C 602.67 758.62 601.31 758.32 599.97 758.02 C 600.56 755.90 601.46 753.87 601.80 751.69 C 600.65 750.76 599.43 749.95 598.25 749.12 C 600.77 745.66 603.20 742.13 605.68 738.64 C 609.57 733.46 610.80 726.95 613.20 721.05 C 614.68 721.24 616.16 721.47 617.64 721.71 Z" />
<path fill="#ffffff" d=" M 396.29 722.76 C 418.92 722.76 441.55 722.75 464.18 722.77 C 464.19 723.51 464.20 724.98 464.21 725.72 C 441.57 725.71 418.93 725.72 396.29 725.72 C 396.29 724.98 396.29 723.50 396.29 722.76 Z" />
<path fill="#fefefe" d=" M 476.68 730.92 C 476.67 728.33 476.58 725.72 477.06 723.17 C 477.64 726.41 477.44 729.72 477.46 733.00 C 477.45 748.04 477.45 763.09 477.46 778.13 C 478.94 778.15 480.41 778.17 481.90 778.21 C 480.17 780.59 478.47 782.99 476.77 785.39 C 476.58 767.23 476.75 749.07 476.68 730.92 Z" />
<path fill="#ffffff" d=" M 397.24 728.64 C 404.97 728.71 412.70 728.61 420.43 728.71 C 414.74 736.81 409.10 744.96 403.37 753.03 C 404.54 753.84 405.72 754.66 406.90 755.48 C 413.11 746.50 419.36 737.54 425.72 728.66 C 438.78 728.69 451.84 728.64 464.90 728.68 C 464.83 730.61 464.99 732.58 464.65 734.51 C 459.36 741.45 454.51 748.71 449.49 755.84 C 432.03 755.97 414.56 755.83 397.10 755.90 C 397.16 746.81 396.96 737.72 397.24 728.64 Z" />
<path fill="#010101" d=" M 346.30 766.00 C 353.81 755.11 361.48 744.33 369.04 733.48 C 370.18 734.30 371.33 735.12 372.48 735.95 C 364.96 746.77 357.30 757.49 349.84 768.35 C 348.65 767.55 347.48 766.77 346.30 766.00 Z" />
<path fill="#fefefe" d=" M 273.71 739.72 C 274.73 738.20 275.76 736.69 276.81 735.20 C 280.35 737.68 283.91 740.11 287.44 742.60 C 286.27 744.32 285.10 746.04 283.95 747.78 C 280.51 745.12 277.17 742.34 273.71 739.72 Z" />
<path fill="#fefefe" d=" M 708.62 742.61 C 712.11 740.09 715.67 737.67 719.20 735.21 C 720.25 736.70 721.29 738.22 722.32 739.74 C 718.83 742.33 715.52 745.14 712.06 747.77 C 710.91 746.04 709.76 744.33 708.62 742.61 Z" />
<path fill="#000000" d=" M 482.59 736.77 C 515.81 736.77 549.03 736.76 582.24 736.78 C 582.27 748.81 582.25 760.84 582.26 772.87 C 549.03 772.88 515.81 772.87 482.59 772.87 C 482.59 760.84 482.58 748.81 482.59 736.77 Z" />
<path fill="#ffffff" d=" M 484.79 739.10 C 516.56 739.14 548.34 739.04 580.11 739.15 C 580.10 749.38 580.10 759.62 580.11 769.85 C 548.34 769.96 516.56 769.86 484.79 769.90 C 484.79 759.63 484.79 749.36 484.79 739.10 Z" />
<path fill="#fefefe" d=" M 462.13 745.12 C 463.02 743.88 463.90 742.63 464.79 741.40 C 464.89 746.23 464.84 751.07 464.85 755.90 C 463.32 755.88 461.79 755.86 460.26 755.85 C 461.37 752.39 463.83 748.80 462.13 745.12 Z" />
<path fill="#fefefe" d=" M 456.15 753.33 C 457.68 753.91 456.09 757.22 454.66 756.11 C 454.03 755.02 454.95 753.47 456.15 753.33 Z" />
<path fill="#fefefe" d=" M 396.30 758.85 C 418.93 758.89 441.55 758.85 464.17 758.86 C 464.18 760.10 464.19 761.34 464.21 762.60 C 441.57 762.60 418.93 762.58 396.29 762.61 C 396.29 761.35 396.29 760.10 396.30 758.85 Z" />
<path fill="#ffffff" d=" M 397.12 764.79 C 412.33 764.79 427.54 764.80 442.75 764.78 C 442.50 765.77 442.25 766.77 442.02 767.77 C 443.00 768.36 443.97 768.97 444.96 769.58 C 446.05 768.03 447.09 766.43 448.37 765.03 C 449.75 764.82 451.15 764.70 452.56 764.66 C 450.52 770.81 447.89 776.76 446.13 783.00 C 447.43 783.32 448.74 783.66 450.06 784.00 C 452.31 777.58 454.72 771.22 457.00 764.80 C 459.62 764.79 462.23 764.79 464.85 764.79 C 464.85 772.93 464.84 781.06 464.85 789.20 C 453.68 789.31 442.51 789.10 431.37 788.96 C 432.98 786.75 434.56 784.51 436.02 782.20 C 434.89 781.46 433.76 780.73 432.63 780.01 C 430.35 782.99 428.23 786.10 426.10 789.19 C 416.43 789.21 406.77 789.19 397.10 789.20 C 396.96 781.06 397.31 772.92 397.12 764.79 Z" />
<path fill="#ffffff" d=" M 486.98 778.19 C 497.98 778.16 508.99 778.09 520.00 778.22 C 518.44 782.72 516.70 787.16 515.14 791.66 C 503.11 791.82 491.06 791.26 479.06 792.22 C 479.72 786.64 484.24 782.79 486.98 778.19 Z" />
<path fill="#fdfdfd" d=" M 524.55 778.14 C 526.33 778.15 528.12 778.16 529.91 778.20 C 526.67 782.41 524.22 787.28 520.23 790.86 C 521.26 786.49 523.02 782.35 524.55 778.14 Z" />
<path fill="#ffffff" d=" M 531.98 778.19 C 547.30 778.15 562.62 778.12 577.94 778.20 C 574.95 782.41 571.98 786.63 569.04 790.89 C 562.63 790.34 556.41 788.42 550.02 787.78 C 542.08 788.73 534.18 790.10 526.21 790.82 C 528.75 787.16 531.28 783.50 533.89 779.90 C 533.41 779.47 532.45 778.61 531.98 778.19 Z" />
<path fill="#ffffff" d=" M 530.42 792.83 C 537.22 791.69 544.08 790.51 550.97 790.20 C 559.35 791.33 567.61 793.33 575.97 794.64 C 578.34 795.08 580.63 794.10 582.97 793.79 C 603.99 799.41 624.91 805.48 645.96 811.02 C 645.44 815.42 643.84 819.59 642.63 823.83 C 605.23 813.50 567.82 803.19 530.42 792.83 Z" />
<path fill="#ffffff" d=" M 396.28 792.16 C 418.92 792.16 441.56 792.17 464.19 792.16 C 464.19 793.36 464.19 794.56 464.20 795.78 C 441.56 795.76 418.92 795.79 396.28 795.76 C 396.28 794.55 396.28 793.35 396.28 792.16 Z" />
<path fill="#ffffff" d=" M 397.11 798.11 C 413.53 798.22 429.96 797.82 446.37 798.35 C 429.87 802.46 413.56 807.34 397.13 811.75 C 397.08 807.20 397.10 802.65 397.11 798.11 Z" />
<path fill="#ffffff" d=" M 452.81 798.67 C 456.75 797.66 460.85 798.22 464.86 798.12 C 464.83 807.66 464.85 817.21 464.85 826.76 C 442.27 826.75 419.68 826.75 397.10 826.76 C 397.11 822.48 397.05 818.20 397.19 813.93 C 415.79 809.07 434.27 803.75 452.81 798.67 Z" />
<path fill="#ffffff" d=" M 349.70 811.19 C 361.55 807.99 373.37 804.68 385.21 801.41 C 385.25 805.97 385.23 810.53 385.22 815.09 C 374.59 817.92 364.01 820.94 353.40 823.84 C 352.10 819.64 350.87 815.42 349.70 811.19 Z" />
<path fill="#ffffff" d=" M 336.41 811.21 C 340.04 811.25 343.68 811.24 347.31 811.24 C 347.78 812.87 348.28 814.50 348.75 816.16 C 345.84 816.96 342.95 817.85 340.06 818.71 C 339.02 816.12 337.79 813.62 336.41 811.21 Z" />
<path fill="#ffffff" d=" M 648.68 811.23 C 652.32 811.24 655.96 811.25 659.60 811.23 C 658.21 813.65 656.99 816.16 655.91 818.74 C 653.03 817.84 650.15 816.96 647.25 816.17 C 647.71 814.51 648.20 812.87 648.68 811.23 Z" />
<path fill="#ffffff" d=" M 325.99 819.32 C 328.69 816.83 331.40 814.34 334.05 811.81 C 337.71 817.42 339.76 823.95 340.36 830.61 C 336.57 830.57 332.81 830.16 329.09 829.47 C 327.79 826.17 326.75 822.77 325.99 819.32 Z" />
<path fill="#ffffff" d=" M 661.98 811.76 C 664.62 814.33 667.32 816.86 670.05 819.35 C 669.21 822.77 668.21 826.15 666.98 829.45 C 663.24 830.15 659.45 830.57 655.65 830.61 C 656.23 823.93 658.35 817.41 661.98 811.76 Z" />
<path fill="#ffffff" d=" M 340.85 820.77 C 343.72 819.99 346.57 819.13 349.42 818.26 C 350.01 820.29 350.55 822.34 351.01 824.42 C 348.23 826.44 345.36 828.32 342.56 830.31 C 342.24 827.08 341.60 823.91 340.85 820.77 Z" />
<path fill="#ffffff" d=" M 645.23 824.58 C 645.09 822.39 646.08 820.34 646.66 818.29 C 649.43 819.12 652.21 819.95 655.01 820.73 C 654.44 823.93 653.87 827.14 653.50 830.38 C 650.80 828.36 647.88 826.66 645.23 824.58 Z" />
<path fill="#ffffff" d=" M 257.38 839.53 C 279.53 833.16 301.59 826.48 323.74 820.12 C 324.60 822.95 325.41 825.80 326.22 828.65 C 304.56 834.84 282.86 840.86 261.21 847.05 C 257.77 848.02 254.19 848.29 250.64 848.61 C 250.16 847.32 249.70 846.04 249.24 844.77 C 251.80 842.82 254.14 840.31 257.38 839.53 Z" />
<path fill="#ffffff" d=" M 672.24 820.14 C 694.38 826.42 716.40 833.15 738.52 839.50 C 741.81 840.28 744.19 842.82 746.82 844.77 C 746.31 846.04 745.81 847.32 745.32 848.61 C 741.55 848.29 737.76 847.96 734.14 846.86 C 712.73 840.69 691.22 834.86 669.84 828.60 C 670.63 825.77 671.42 822.95 672.24 820.14 Z" />
<path fill="#ffffff" d=" M 396.29 829.71 C 418.92 829.72 441.55 829.70 464.18 829.71 C 464.18 830.45 464.20 831.92 464.20 832.66 C 441.57 832.67 418.93 832.65 396.30 832.67 C 396.30 831.93 396.29 830.45 396.29 829.71 Z" />
<path fill="#fefefe" d=" M 210.36 832.09 C 217.38 832.37 224.08 835.81 228.94 840.81 C 228.23 842.20 227.51 843.61 226.79 845.01 C 220.79 841.47 215.04 836.77 207.69 836.76 C 208.58 835.20 209.46 833.64 210.36 832.09 Z" />
<path fill="#fefefe" d=" M 767.10 840.83 C 771.87 835.76 778.63 832.47 785.60 832.06 C 786.50 833.64 787.40 835.24 788.31 836.84 C 780.97 836.75 775.16 841.44 769.23 845.09 C 768.50 843.66 767.78 842.24 767.10 840.83 Z" />
<path fill="#ffffff" d=" M 397.10 835.61 C 419.68 835.60 442.27 835.61 464.86 835.61 C 464.84 844.47 464.85 853.34 464.85 862.21 C 442.27 862.21 419.68 862.21 397.10 862.21 C 397.10 853.34 397.11 844.48 397.10 835.61 Z" />
<path fill="#ffffff" d=" M 203.36 839.59 C 206.36 839.40 209.43 839.03 212.41 839.69 C 217.90 841.24 222.08 845.49 227.17 847.83 C 233.71 847.59 240.05 845.61 246.58 845.08 C 247.01 846.22 247.43 847.37 247.85 848.54 C 241.06 852.35 234.25 856.12 227.47 859.94 C 227.46 856.49 229.14 851.65 225.47 849.46 C 223.04 848.96 219.61 848.60 218.20 851.16 C 216.13 854.35 213.69 857.46 212.78 861.25 C 216.99 859.56 218.13 854.61 220.78 851.33 C 222.31 851.35 223.84 851.43 225.37 851.56 C 225.94 854.86 225.47 858.19 224.86 861.44 C 222.26 862.81 219.70 864.24 217.13 865.65 C 213.28 862.43 209.14 859.30 204.26 857.85 C 201.28 857.06 198.20 856.82 195.15 856.55 C 198.04 850.97 200.51 845.19 203.36 839.59 Z" />
<path fill="#fefefe" d=" M 241.07 843.47 C 244.11 840.40 248.30 838.93 252.58 839.20 C 249.67 842.62 245.30 843.17 241.07 843.47 Z" />
<path fill="#fefefe" d=" M 743.40 839.19 C 747.66 838.95 751.88 840.35 754.87 843.46 C 750.64 843.17 746.32 842.58 743.40 839.19 Z" />
<path fill="#ffffff" d=" M 782.84 839.90 C 786.01 838.95 789.35 839.39 792.60 839.58 C 795.50 845.16 797.98 850.95 800.84 856.56 C 792.59 856.48 784.82 860.03 778.91 865.67 C 776.35 864.26 773.80 862.84 771.22 861.50 C 770.50 858.19 770.11 854.80 770.69 851.45 C 772.19 851.39 773.73 851.19 775.22 851.58 C 778.20 854.56 778.92 859.92 783.38 861.15 C 782.17 857.48 779.90 854.32 777.80 851.13 C 776.43 848.60 772.99 848.96 770.61 849.47 C 766.78 851.46 768.57 856.54 768.52 859.94 C 761.76 856.08 754.92 852.37 748.16 848.52 C 748.56 847.36 748.97 846.20 749.40 845.07 C 755.94 845.59 762.29 847.61 768.86 847.82 C 773.72 845.61 777.71 841.64 782.84 839.90 Z" />
<path fill="#fefefe" d=" M 244.85 853.13 C 247.71 850.24 251.77 850.59 255.49 850.55 C 252.23 852.36 248.67 853.91 244.85 853.13 Z" />
<path fill="#fefefe" d=" M 740.58 850.57 C 744.26 850.61 748.31 850.22 751.12 853.13 C 747.32 853.92 743.81 852.35 740.58 850.57 Z" />
<path fill="#ffffff" d=" M 196.95 859.12 C 203.58 858.78 209.45 862.28 214.45 866.25 C 205.18 883.78 195.58 901.13 186.17 918.59 C 180.42 915.47 174.64 912.42 168.91 909.27 C 178.25 892.55 187.62 875.84 196.95 859.12 Z" />
<path fill="#ffffff" d=" M 781.53 866.24 C 786.57 862.30 792.42 858.78 799.06 859.10 C 808.39 875.82 817.75 892.53 827.10 909.25 C 821.39 912.43 815.60 915.46 809.85 918.58 C 800.40 901.13 790.85 883.75 781.53 866.24 Z" />
<path fill="#fcfcfc" d=" M 396.29 865.16 C 418.93 865.16 441.57 865.16 464.21 865.16 C 464.20 865.91 464.18 867.40 464.17 868.15 C 441.54 868.14 418.92 868.14 396.30 868.16 C 396.30 867.41 396.29 865.91 396.29 865.16 Z" />
<path fill="#ffffff" d=" M 397.11 871.10 C 419.69 871.13 442.27 871.10 464.85 871.12 C 464.84 872.81 464.84 874.51 464.85 876.22 C 442.27 876.22 419.68 876.22 397.10 876.22 C 397.10 874.51 397.10 872.80 397.11 871.10 Z" />
<path fill="#fdfdfd" d=" M 396.29 879.17 C 418.93 879.17 441.57 879.17 464.21 879.17 C 464.20 879.92 464.18 881.41 464.17 882.16 C 441.54 882.15 418.92 882.15 396.29 882.16 C 396.29 881.41 396.29 879.92 396.29 879.17 Z" />
<path fill="#ffffff" d=" M 397.10 885.12 C 419.69 885.13 442.27 885.11 464.85 885.12 C 464.84 887.03 464.84 888.94 464.85 890.87 C 442.27 890.87 419.69 890.86 397.11 890.88 C 397.10 888.95 397.10 887.03 397.10 885.12 Z" />
<path fill="#ffffff" d=" M 396.29 893.19 C 418.92 893.19 441.56 893.19 464.20 893.19 C 464.19 894.38 464.19 895.59 464.19 896.81 C 441.56 896.80 418.92 896.81 396.29 896.81 C 396.29 895.59 396.29 894.39 396.29 893.19 Z" />
<path fill="#ffffff" d=" M 397.10 899.77 C 419.68 899.77 442.27 899.77 464.85 899.77 C 464.84 901.46 464.84 903.16 464.85 904.88 C 442.27 904.88 419.69 904.87 397.11 904.89 C 397.10 903.17 397.10 901.46 397.10 899.77 Z" />
<path fill="#fcfcfc" d=" M 396.29 907.84 C 418.92 907.85 441.54 907.85 464.17 907.84 C 464.18 908.59 464.20 910.08 464.21 910.83 C 441.57 910.83 418.93 910.83 396.29 910.83 C 396.29 910.08 396.29 908.59 396.29 907.84 Z" />
<path fill="#ffffff" d=" M 168.24 911.55 C 173.73 914.38 179.11 917.43 184.60 920.28 C 179.96 923.17 174.50 922.85 169.27 922.70 C 168.79 918.99 168.53 915.27 168.24 911.55 Z" />
<path fill="#ffffff" d=" M 811.39 920.30 C 816.84 917.41 822.25 914.46 827.69 911.56 C 827.46 915.29 827.25 919.02 826.67 922.72 C 821.45 922.83 816.02 923.18 811.39 920.30 Z" />
<path fill="#ffffff" d=" M 397.10 913.78 C 419.68 913.78 442.26 913.78 464.85 913.78 C 464.84 915.47 464.85 917.17 464.85 918.89 C 442.27 918.89 419.69 918.87 397.11 918.90 C 397.10 917.18 397.10 915.47 397.10 913.78 Z" />
<path fill="#fefefe" d=" M 396.30 921.85 C 418.92 921.87 441.55 921.86 464.18 921.85 C 464.18 923.09 464.19 924.34 464.21 925.59 C 441.57 925.59 418.93 925.58 396.29 925.60 C 396.29 924.34 396.29 923.09 396.30 921.85 Z" />
<path fill="#fcfcfc" d=" M 155.73 933.60 C 158.79 930.49 161.14 926.58 164.95 924.30 C 163.94 927.54 162.36 930.57 161.14 933.74 C 159.33 933.70 157.53 933.65 155.73 933.60 Z" />
<path fill="#ffffff" d=" M 173.47 927.36 C 175.28 926.27 177.30 925.31 179.45 925.24 C 182.40 927.93 185.07 930.91 187.96 933.67 C 182.07 933.70 176.17 933.74 170.27 933.64 C 171.33 931.54 172.08 929.27 173.47 927.36 Z" />
<path fill="#ffffff" d=" M 815.40 924.59 C 817.82 925.37 820.34 926.03 822.56 927.33 C 823.90 929.27 824.67 931.54 825.73 933.66 C 819.65 933.72 813.58 933.74 807.51 933.64 C 810.20 930.67 812.76 927.60 815.40 924.59 Z" />
<path fill="#fbfbfb" d=" M 164.15 932.32 C 164.95 930.39 165.80 928.51 166.62 926.60 C 167.69 927.77 168.83 928.89 170.03 929.96 C 168.74 932.14 166.56 932.64 164.15 932.32 Z" />
<path fill="#fefefe" d=" M 831.45 925.51 C 834.31 928.15 837.04 930.93 839.76 933.73 C 838.15 933.41 836.09 934.32 834.79 933.19 C 833.49 930.71 832.52 928.07 831.45 925.51 Z" />
<path fill="#fdfdfd" d=" M 826.19 929.65 C 827.31 928.75 828.42 927.82 829.54 926.91 C 830.30 928.67 831.08 930.45 831.86 932.23 C 830.43 932.24 829.02 932.26 827.61 932.29 C 827.12 931.39 826.65 930.52 826.19 929.65 Z" />
<path fill="#ffffff" d=" M 397.10 927.79 C 419.68 927.79 442.27 927.78 464.85 927.79 C 464.84 929.75 464.84 931.73 464.85 933.71 C 442.26 933.70 419.68 933.70 397.10 933.71 C 397.10 931.73 397.10 929.75 397.10 927.79 Z" />
<path fill="#ffffff" d=" M 123.25 943.24 C 121.57 941.81 122.88 938.74 122.48 936.66 C 155.45 936.65 188.42 936.67 221.39 936.65 C 221.40 938.86 221.40 941.09 221.40 943.33 C 188.69 943.26 155.96 943.45 123.25 943.24 Z" />
<path fill="#ffffff" d=" M 396.28 936.65 C 418.92 936.66 441.55 936.65 464.19 936.66 C 464.19 937.39 464.19 938.86 464.20 939.60 C 441.56 939.60 418.93 939.60 396.29 939.60 C 396.29 938.86 396.29 937.39 396.28 936.65 Z" />
<path fill="#ffffff" d=" M 774.15 936.65 C 807.06 936.66 839.98 936.66 872.89 936.65 C 872.88 938.87 872.88 941.09 872.89 943.33 C 839.98 943.32 807.06 943.32 774.15 943.33 C 774.14 941.09 774.14 938.87 774.15 936.65 Z" />
<path fill="#ffffff" d=" M 132.36 946.36 C 158.27 946.21 184.19 946.25 210.10 946.34 C 207.34 948.15 204.77 950.32 201.77 951.74 C 182.50 951.95 163.21 951.86 143.93 951.78 C 139.25 952.58 136.12 948.35 132.36 946.36 Z" />
<path fill="#ffffff" d=" M 784.18 946.37 C 810.08 946.20 836.00 946.27 861.91 946.33 C 858.87 948.06 856.28 950.94 852.86 951.80 C 832.69 951.83 812.51 951.98 792.34 951.70 C 789.46 950.17 786.91 948.11 784.18 946.37 Z" />
<path fill="#ffffff" d=" M 145.39 954.30 C 161.68 954.32 177.97 954.29 194.26 954.32 C 194.04 960.91 195.49 968.45 191.12 974.06 C 186.34 979.99 178.08 980.63 171.02 980.80 C 163.37 980.65 154.42 980.17 148.98 974.02 C 144.31 968.55 145.55 960.92 145.39 954.30 Z" />
<path fill="#ffffff" d=" M 797.25 954.31 C 813.54 954.36 829.85 954.22 846.15 954.38 C 846.07 960.92 847.06 968.33 843.01 973.97 C 838.03 980.13 829.35 980.72 822.01 980.80 C 814.44 980.60 805.53 979.93 800.40 973.57 C 796.13 968.08 797.45 960.76 797.25 954.31 Z" />
</svg>
